Khula-wt439.67.ufo
<glyph name="nine.deva" format="1">
  <advance width="1052"/>
  <unicode hex="0039"/>
  <outline>
    <contour>
      <point x="971" y="754" type="curve" smooth="yes"/>
      <point x="971" y="235"/>
      <point x="763" y="-18"/>
      <point x="343" y="-18" type="curve" smooth="yes"/>
      <point x="263" y="-18"/>
      <point x="206" y="-13"/>
      <point x="171" y="-4" type="curve"/>
      <point x="171" y="174" type="line"/>
      <point x="224" y="159"/>
      <point x="278" y="151"/>
      <point x="332" y="151" type="curve" smooth="yes"/>
      <point x="617" y="151"/>
      <point x="754" y="300"/>
      <point x="767" y="628" type="curve"/>
      <point x="756" y="628" type="line"/>
      <point x="685" y="520"/>
      <point x="587" y="475"/>
      <point x="452" y="475" type="curve" smooth="yes"/>
      <point x="335" y="475"/>
      <point x="244" y="511"/>
      <point x="177" y="584" type="curve" smooth="yes"/>
      <point x="110" y="657"/>
      <point x="77" y="756"/>
      <point x="77" y="883" type="curve" smooth="yes"/>
      <point x="77" y="1020"/>
      <point x="116" y="1130"/>
      <point x="193" y="1211" type="curve" smooth="yes"/>
      <point x="270" y="1292"/>
      <point x="375" y="1333"/>
      <point x="508" y="1333" type="curve" smooth="yes"/>
      <point x="791" y="1333"/>
      <point x="971" y="1119"/>
    </contour>
    <contour>
      <point x="512" y="1157" type="curve"/>
      <point x="365" y="1157"/>
      <point x="285" y="1057"/>
      <point x="285" y="885" type="curve" smooth="yes"/>
      <point x="285" y="734"/>
      <point x="357" y="643"/>
      <point x="505" y="643" type="curve" smooth="yes"/>
      <point x="576" y="643"/>
      <point x="636" y="664"/>
      <point x="685" y="707" type="curve" smooth="yes"/>
      <point x="734" y="750"/>
      <point x="758" y="800"/>
      <point x="758" y="857" type="curve"/>
      <point x="760" y="1016"/>
      <point x="655" y="1161"/>
    </contour>
  </outline>
</glyph>
<glyph name="equal.deva" format="1">
  <advance width="1052"/>
  <unicode hex="003D"/>
  <outline>
    <contour>
      <point x="92" y="748" type="line"/>
      <point x="92" y="909" type="line"/>
      <point x="958" y="909" type="line"/>
      <point x="958" y="748" type="line"/>
    </contour>
    <contour>
      <point x="92" y="389" type="line"/>
      <point x="92" y="549" type="line"/>
      <point x="958" y="549" type="line"/>
      <point x="958" y="389" type="line"/>
    </contour>
  </outline>
</glyph>
<glyph name="C" format="1">
  <advance width="1168"/>
  <unicode hex="0043"/>
  <outline>
    <contour>
      <point x="733" y="1150" type="curve" smooth="yes"/>
      <point x="610" y="1150"/>
      <point x="513" y="1106"/>
      <point x="442" y="1018" type="curve" smooth="yes"/>
      <point x="371" y="931"/>
      <point x="336" y="810"/>
      <point x="336" y="656" type="curve" smooth="yes"/>
      <point x="336" y="333"/>
      <point x="476" y="166"/>
      <point x="733" y="166" type="curve" smooth="yes"/>
      <point x="845" y="166"/>
      <point x="946" y="190"/>
      <point x="1058" y="225" type="curve"/>
      <point x="1058" y="40" type="line"/>
      <point x="955" y="1"/>
      <point x="838" y="-18"/>
      <point x="707" y="-18" type="curve" smooth="yes"/>
      <point x="514" y="-18"/>
      <point x="366" y="40"/>
      <point x="263" y="157" type="curve" smooth="yes"/>
      <point x="160" y="274"/>
      <point x="109" y="441"/>
      <point x="109" y="658" type="curve"/>
      <point x="104" y="1068"/>
      <point x="352" y="1340"/>
      <point x="735" y="1335" type="curve"/>
      <point x="870" y="1335"/>
      <point x="994" y="1307"/>
      <point x="1108" y="1250" type="curve"/>
      <point x="1030" y="1071" type="line"/>
      <point x="942" y="1112"/>
      <point x="842" y="1150"/>
    </contour>
  </outline>
</glyph>
<glyph name="I" format="1">
  <advance width="562"/>
  <unicode hex="0049"/>
  <outline>
    <contour>
      <point x="174" y="0" type="line"/>
      <point x="174" y="1316" type="line"/>
      <point x="389" y="1316" type="line"/>
      <point x="389" y="0" type="line"/>
    </contour>
  </outline>
</glyph>
<glyph name="T" format="1">
  <advance width="1043"/>
  <unicode hex="0054"/>
  <outline>
    <contour>
      <point x="628" y="0" type="line"/>
      <point x="413" y="0" type="line"/>
      <point x="413" y="1131" type="line"/>
      <point x="26" y="1131" type="line"/>
      <point x="26" y="1316" type="line"/>
      <point x="1015" y="1316" type="line"/>
      <point x="1015" y="1131" type="line"/>
      <point x="628" y="1131" type="line"/>
    </contour>
  </outline>
</glyph>
<glyph name="Z" format="1">
  <advance width="1060"/>
  <unicode hex="005A"/>
  <outline>
    <contour>
      <point x="1001" y="0" type="line"/>
      <point x="59" y="0" type="line"/>
      <point x="59" y="149" type="line"/>
      <point x="723" y="1131" type="line"/>
      <point x="77" y="1131" type="line"/>
      <point x="77" y="1316" type="line"/>
      <point x="983" y="1316" type="line"/>
      <point x="983" y="1165" type="line"/>
      <point x="317" y="184" type="line"/>
      <point x="1001" y="184" type="line"/>
    </contour>
  </outline>
</glyph>
<glyph name="grave" format="1">
  <advance width="1081"/>
  <unicode hex="0060"/>
  <outline>
    <contour>
      <point x="666" y="1241" type="line"/>
      <point x="648" y="1252"/>
      <point x="587" y="1271"/>
      <point x="551" y="1296" type="curve"/>
      <point x="484" y="1347"/>
      <point x="422" y="1398"/>
      <point x="366" y="1449" type="curve"/>
      <point x="335" y="1480"/>
      <point x="314" y="1512"/>
      <point x="303" y="1528" type="curve"/>
      <point x="473" y="1536" type="line"/>
      <point x="487" y="1518"/>
      <point x="584" y="1487"/>
      <point x="624" y="1444" type="curve"/>
      <point x="633" y="1428"/>
      <point x="673" y="1378"/>
      <point x="698" y="1346" type="curve" smooth="yes"/>
      <point x="722" y="1315"/>
      <point x="746" y="1275"/>
      <point x="769" y="1249" type="curve"/>
    </contour>
  </outline>
</glyph>
<glyph name="u" format="1">
  <advance width="1170"/>
  <unicode hex="0075"/>
  <outline>
    <contour>
      <point x="853" y="0" type="line"/>
      <point x="823" y="130" type="line"/>
      <point x="813" y="130" type="line"/>
      <point x="754" y="38"/>
      <point x="641" y="-18"/>
      <point x="501" y="-18" type="curve" smooth="yes"/>
      <point x="260" y="-18"/>
      <point x="142" y="101"/>
      <point x="142" y="345" type="curve" smooth="yes"/>
      <point x="142" y="995" type="line"/>
      <point x="355" y="995" type="line"/>
      <point x="355" y="382" type="line" smooth="yes"/>
      <point x="355" y="229"/>
      <point x="416" y="153"/>
      <point x="549" y="153" type="curve" smooth="yes"/>
      <point x="638" y="153"/>
      <point x="703" y="179"/>
      <point x="744" y="232" type="curve" smooth="yes"/>
      <point x="786" y="285"/>
      <point x="807" y="374"/>
      <point x="807" y="499" type="curve" smooth="yes"/>
      <point x="807" y="995" type="line"/>
      <point x="1020" y="995" type="line"/>
      <point x="1020" y="0" type="line"/>
    </contour>
  </outline>
</glyph>
<glyph name="aadeva" format="1">
  <advance width="2216"/>
  <unicode hex="0906"/>
  <outline>
    <contour>
      <point x="361" y="649" type="line"/>
      <point x="322" y="810" type="line"/>
      <point x="334" y="810" type="line"/>
      <point x="633" y="819"/>
      <point x="703" y="896"/>
      <point x="703" y="1000" type="curve" smooth="yes"/>
      <point x="703" y="1075"/>
      <point x="649" y="1131"/>
      <point x="535" y="1131" type="curve" smooth="yes"/>
      <point x="439" y="1131"/>
      <point x="341" y="1098"/>
      <point x="245" y="1044" type="curve"/>
      <point x="192" y="1204" type="line"/>
      <point x="291" y="1253"/>
      <point x="402" y="1290"/>
      <point x="540" y="1290" type="curve" smooth="yes"/>
      <point x="768" y="1290"/>
      <point x="891" y="1165"/>
      <point x="891" y="975" type="curve" smooth="yes"/>
      <point x="891" y="789"/>
      <point x="731" y="662"/>
      <point x="377" y="650" type="curve" smooth="yes"/>
    </contour>
    <contour>
      <point x="1786" y="1169" type="line"/>
      <point x="1996" y="1169" type="line"/>
      <point x="1996" y="0" type="line"/>
      <point x="1786" y="0" type="line"/>
    </contour>
    <contour>
      <point x="683" y="798" type="line"/>
      <point x="838" y="717"/>
      <point x="943" y="609"/>
      <point x="943" y="441" type="curve" smooth="yes"/>
      <point x="943" y="272"/>
      <point x="810" y="126"/>
      <point x="589" y="126" type="curve" smooth="yes"/>
      <point x="435" y="126"/>
      <point x="307" y="176"/>
      <point x="134" y="298" type="curve"/>
      <point x="180" y="455" type="line"/>
      <point x="322" y="342"/>
      <point x="426" y="301"/>
      <point x="532" y="301" type="curve" smooth="yes"/>
      <point x="670" y="301"/>
      <point x="750" y="375"/>
      <point x="750" y="482" type="curve" smooth="yes"/>
      <point x="750" y="567"/>
      <point x="686" y="653"/>
      <point x="567" y="702" type="curve"/>
    </contour>
    <contour>
      <point x="787" y="674" type="line"/>
      <point x="835" y="652"/>
      <point x="958" y="641"/>
      <point x="1009" y="641" type="curve" smooth="yes"/>
      <point x="1076" y="641"/>
      <point x="1176" y="665"/>
      <point x="1239" y="715" type="curve"/>
      <point x="1239" y="517" type="line"/>
      <point x="1201" y="500"/>
      <point x="1113" y="486"/>
      <point x="1062" y="486" type="curve" smooth="yes"/>
      <point x="1001" y="486"/>
      <point x="862" y="502"/>
      <point x="813" y="522" type="curve"/>
    </contour>
    <contour>
      <point x="1211" y="1169" type="line"/>
      <point x="1422" y="1169" type="line"/>
      <point x="1422" y="0" type="line"/>
      <point x="1211" y="0" type="line"/>
    </contour>
    <contour>
      <point x="2232" y="1136" type="line"/>
      <point x="1007" y="1136" type="line"/>
      <point x="1007" y="1283" type="line"/>
      <point x="2232" y="1283" type="line"/>
    </contour>
  </outline>
</glyph>
<glyph name="ideva" format="1">
  <advance width="1044"/>
  <unicode hex="0907"/>
  <outline>
    <contour>
      <point x="515" y="146" type="curve" smooth="yes"/>
      <point x="800" y="-161" type="line"/>
      <point x="661" y="-243" type="line"/>
      <point x="337" y="116" type="line"/>
      <point x="468" y="48" type="line"/>
      <point x="224" y="51"/>
      <point x="139" y="138"/>
      <point x="139" y="203" type="curve" smooth="yes"/>
      <point x="139" y="260"/>
      <point x="184" y="311"/>
      <point x="260" y="311" type="curve" smooth="yes"/>
      <point x="336" y="311"/>
      <point x="413" y="255"/>
    </contour>
    <contour>
      <point x="628" y="1167" type="line"/>
      <point x="829" y="1167" type="line"/>
      <point x="829" y="804" type="line"/>
      <point x="459" y="804" type="line"/>
      <point x="329" y="804"/>
      <point x="291" y="756"/>
      <point x="291" y="694" type="curve" smooth="yes"/>
      <point x="292" y="637"/>
      <point x="333" y="596"/>
      <point x="425" y="560" type="curve"/>
      <point x="342" y="568" type="line"/>
      <point x="444" y="610"/>
      <point x="517" y="629"/>
      <point x="630" y="629" type="curve" smooth="yes"/>
      <point x="810" y="629"/>
      <point x="936" y="521"/>
      <point x="936" y="354" type="curve" smooth="yes"/>
      <point x="936" y="190"/>
      <point x="752" y="52"/>
      <point x="477" y="52" type="curve"/>
      <point x="448" y="204" type="line"/>
      <point x="619" y="204"/>
      <point x="741" y="270"/>
      <point x="741" y="359" type="curve" smooth="yes"/>
      <point x="741" y="431"/>
      <point x="688" y="471"/>
      <point x="610" y="471" type="curve" smooth="yes"/>
      <point x="533" y="471"/>
      <point x="460" y="453"/>
      <point x="384" y="423" type="curve"/>
      <point x="369" y="422" type="line"/>
      <point x="169" y="512"/>
      <point x="101" y="611"/>
      <point x="101" y="733" type="curve" smooth="yes"/>
      <point x="101" y="854"/>
      <point x="188" y="949"/>
      <point x="413" y="949" type="curve" smooth="yes"/>
      <point x="680" y="949" type="line"/>
      <point x="628" y="897" type="line"/>
    </contour>
    <contour>
      <point x="1060" y="1136" type="line"/>
      <point x="-18" y="1136" type="line"/>
      <point x="-18" y="1283" type="line"/>
      <point x="1060" y="1283" type="line"/>
    </contour>
    <contour>
      <point x="672" y="1282" type="move" name="mark0"/>
    </contour>
    <contour>
      <point x="27" y="8" type="move" name="x51"/>
    </contour>
  </outline>
</glyph>
<glyph name="udeva" format="1">
  <advance width="1090"/>
  <unicode hex="0909"/>
  <outline>
    <contour>
      <point x="341" y="628" type="line"/>
      <point x="302" y="798" type="line"/>
      <point x="317" y="799" type="line"/>
      <point x="610" y="807"/>
      <point x="683" y="891"/>
      <point x="683" y="1000" type="curve" smooth="yes"/>
      <point x="683" y="1087"/>
      <point x="630" y="1142"/>
      <point x="525" y="1142" type="curve"/>
      <point x="568" y="1266" type="line"/>
      <point x="749" y="1266"/>
      <point x="874" y="1136"/>
      <point x="874" y="966" type="curve" smooth="yes"/>
      <point x="874" y="786"/>
      <point x="726" y="639"/>
      <point x="359" y="629" type="curve"/>
    </contour>
    <contour>
      <point x="658" y="770" type="line"/>
      <point x="840" y="685"/>
      <point x="950" y="559"/>
      <point x="950" y="395" type="curve" smooth="yes"/>
      <point x="950" y="192"/>
      <point x="794" y="65"/>
      <point x="581" y="65" type="curve" smooth="yes"/>
      <point x="413" y="65"/>
      <point x="264" y="112"/>
      <point x="85" y="239" type="curve"/>
      <point x="132" y="399" type="line"/>
      <point x="289" y="281"/>
      <point x="414" y="243"/>
      <point x="518" y="243" type="curve" smooth="yes"/>
      <point x="668" y="243"/>
      <point x="749" y="325"/>
      <point x="749" y="431" type="curve" smooth="yes"/>
      <point x="749" y="518"/>
      <point x="673" y="622"/>
      <point x="530" y="662" type="curve"/>
    </contour>
    <contour>
      <point x="-37" y="1136" type="line"/>
      <point x="-37" y="1283" type="line"/>
      <point x="1119" y="1283" type="line"/>
      <point x="1119" y="1136" type="line"/>
    </contour>
    <contour>
      <point x="736" y="1282" type="move" name="mark0"/>
    </contour>
    <contour>
      <point x="-96" y="8" type="move" name="x36"/>
    </contour>
  </outline>
</glyph>
<glyph name="uudeva" format="1">
  <advance width="1469"/>
  <unicode hex="090A"/>
  <outline>
    <contour>
      <point x="846" y="452" type="curve"/>
      <point x="752" y="651" type="line"/>
      <point x="841" y="699"/>
      <point x="933" y="738"/>
      <point x="1081" y="738" type="curve" smooth="yes"/>
      <point x="1290" y="738"/>
      <point x="1436" y="601"/>
      <point x="1436" y="405" type="curve" smooth="yes"/>
      <point x="1436" y="278"/>
      <point x="1391" y="172"/>
      <point x="1308" y="59" type="curve"/>
      <point x="1128" y="131" type="line"/>
      <point x="1207" y="250"/>
      <point x="1245" y="332"/>
      <point x="1245" y="428" type="curve" smooth="yes"/>
      <point x="1245" y="514"/>
      <point x="1185" y="567"/>
      <point x="1092" y="567" type="curve" smooth="yes"/>
      <point x="1001" y="567"/>
      <point x="920" y="526"/>
    </contour>
    <contour>
      <point x="1052" y="1136" type="line"/>
      <point x="1052" y="1283" type="line"/>
      <point x="1500" y="1283" type="line"/>
      <point x="1500" y="1136" type="line"/>
    </contour>
    <component base="udeva"/>
    <contour>
      <point x="875" y="1282" type="move" name="mark0"/>
    </contour>
    <contour>
      <point x="43" y="8" type="move" name="x53"/>
    </contour>
  </outline>
</glyph>
<glyph name="lvocalicdeva" format="1">
  <advance width="1463"/>
  <unicode hex="090C"/>
  <outline>
    <contour>
      <point x="887" y="644" type="curve"/>
      <point x="766" y="535" type="line"/>
      <point x="675" y="664"/>
      <point x="591" y="724"/>
      <point x="471" y="724" type="curve" smooth="yes"/>
      <point x="360" y="724"/>
      <point x="286" y="638"/>
      <point x="286" y="533" type="curve" smooth="yes"/>
      <point x="286" y="418"/>
      <point x="343" y="314"/>
      <point x="518" y="164" type="curve"/>
      <point x="373" y="81" type="line"/>
      <point x="178" y="247"/>
      <point x="87" y="417"/>
      <point x="87" y="578" type="curve" smooth="yes"/>
      <point x="87" y="759"/>
      <point x="213" y="903"/>
      <point x="432" y="903" type="curve" smooth="yes"/>
      <point x="622" y="903"/>
      <point x="759" y="797"/>
    </contour>
    <contour>
      <point x="1478" y="1136" type="line"/>
      <point x="-32" y="1136" type="line"/>
      <point x="-32" y="1283" type="line"/>
      <point x="1478" y="1283" type="line"/>
    </contour>
    <contour>
      <point x="980" y="1169" type="line"/>
      <point x="1191" y="1169" type="line"/>
      <point x="1191" y="787" type="line"/>
      <point x="980" y="787" type="line"/>
    </contour>
    <contour>
      <point x="1215" y="337" type="curve"/>
      <point x="1122" y="262" type="line"/>
      <point x="1191" y="345"/>
      <point x="1227" y="438"/>
      <point x="1227" y="529" type="curve" smooth="yes"/>
      <point x="1227" y="618"/>
      <point x="1167" y="683"/>
      <point x="1067" y="683" type="curve" smooth="yes"/>
      <point x="944" y="683"/>
      <point x="841" y="565"/>
      <point x="791" y="357" type="curve"/>
      <point x="613" y="421" type="line"/>
      <point x="670" y="662"/>
      <point x="802" y="859"/>
      <point x="1054" y="861" type="curve" smooth="yes"/>
      <point x="1265" y="862"/>
      <point x="1410" y="705"/>
      <point x="1410" y="511" type="curve" smooth="yes"/>
      <point x="1410" y="413"/>
      <point x="1371" y="310"/>
      <point x="1313" y="222" type="curve"/>
      <point x="1163" y="222"/>
      <point x="1104" y="162"/>
      <point x="1104" y="97" type="curve" smooth="yes"/>
      <point x="1104" y="35"/>
      <point x="1151" y="-7"/>
      <point x="1244" y="-7" type="curve" smooth="yes"/>
      <point x="1301" y="-7"/>
      <point x="1347" y="4"/>
      <point x="1422" y="37" type="curve"/>
      <point x="1447" y="-102" type="line"/>
      <point x="1372" y="-132"/>
      <point x="1311" y="-142"/>
      <point x="1235" y="-142" type="curve" smooth="yes"/>
      <point x="1053" y="-142"/>
      <point x="930" y="-39"/>
      <point x="930" y="94" type="curve" smooth="yes"/>
      <point x="930" y="223"/>
      <point x="1033" y="322"/>
    </contour>
    <contour>
      <point x="1039" y="1261" type="move" name="mark0"/>
    </contour>
  </outline>
</glyph>
<glyph name="kadeva" format="1">
  <advance width="1537"/>
  <unicode hex="0915"/>
  <outline>
    <contour>
      <point x="865" y="519" type="curve"/>
      <point x="852" y="782" type="line"/>
      <point x="917" y="810"/>
      <point x="1012" y="839"/>
      <point x="1106" y="839" type="curve" smooth="yes"/>
      <point x="1322" y="839"/>
      <point x="1470" y="698"/>
      <point x="1470" y="507" type="curve" smooth="yes"/>
      <point x="1470" y="378"/>
      <point x="1423" y="267"/>
      <point x="1348" y="156" type="curve"/>
      <point x="1174" y="219" type="line"/>
      <point x="1252" y="334"/>
      <point x="1289" y="425"/>
      <point x="1289" y="524" type="curve" smooth="yes"/>
      <point x="1289" y="611"/>
      <point x="1225" y="665"/>
      <point x="1125" y="665" type="curve" smooth="yes"/>
      <point x="1046" y="665"/>
      <point x="944" y="615"/>
    </contour>
    <contour>
      <point x="-38" y="1136" type="line"/>
      <point x="-38" y="1283" type="line"/>
      <point x="1591" y="1283" type="line"/>
      <point x="1591" y="1136" type="line"/>
    </contour>
    <contour>
      <point x="718" y="592" type="curve"/>
      <point x="718" y="356" type="line"/>
      <point x="640" y="296"/>
      <point x="565" y="254"/>
      <point x="449" y="254" type="curve" smooth="yes"/>
      <point x="230" y="254"/>
      <point x="75" y="424"/>
      <point x="75" y="627" type="curve" smooth="yes"/>
      <point x="75" y="789"/>
      <point x="198" y="914"/>
      <point x="403" y="914" type="curve" smooth="yes"/>
      <point x="541" y="914"/>
      <point x="635" y="881"/>
      <point x="728" y="827" type="curve"/>
      <point x="728" y="672" type="line"/>
      <point x="628" y="732"/>
      <point x="552" y="755"/>
      <point x="456" y="755" type="curve" smooth="yes"/>
      <point x="325" y="755"/>
      <point x="257" y="679"/>
      <point x="257" y="587" type="curve" smooth="yes"/>
      <point x="257" y="497"/>
      <point x="327" y="422"/>
      <point x="430" y="422" type="curve" smooth="yes"/>
      <point x="545" y="423"/>
      <point x="638" y="485"/>
    </contour>
    <contour>
      <point x="696" y="1169" type="line"/>
      <point x="906" y="1169" type="line"/>
      <point x="906" y="0" type="line"/>
      <point x="696" y="0" type="line"/>
    </contour>
    <contour>
      <point x="-102" y="8" type="move" name="x47"/>
    </contour>
    <contour>
      <point x="739" y="8" type="move" name="x46"/>
    </contour>
    <contour>
      <point x="739" y="8" type="move" name="mark0"/>
    </contour>
  </outline>
</glyph>
<glyph name="khadeva" format="1">
  <advance width="1730"/>
  <unicode hex="0916"/>
  <outline>
    <contour>
      <point x="1333" y="659" type="curve"/>
      <point x="1333" y="446" type="line"/>
      <point x="1262" y="405"/>
      <point x="1193" y="377"/>
      <point x="1105" y="377" type="curve" smooth="yes"/>
      <point x="918" y="377"/>
      <point x="750" y="512"/>
      <point x="750" y="698" type="curve" smooth="yes"/>
      <point x="750" y="842"/>
      <point x="864" y="956"/>
      <point x="1059" y="956" type="curve" smooth="yes"/>
      <point x="1170" y="956"/>
      <point x="1259" y="928"/>
      <point x="1345" y="882" type="curve"/>
      <point x="1345" y="735" type="line"/>
      <point x="1272" y="783"/>
      <point x="1178" y="808"/>
      <point x="1098" y="808" type="curve" smooth="yes"/>
      <point x="972" y="808"/>
      <point x="922" y="735"/>
      <point x="922" y="665" type="curve" smooth="yes"/>
      <point x="922" y="591"/>
      <point x="987" y="528"/>
      <point x="1071" y="528" type="curve" smooth="yes"/>
      <point x="1167" y="528"/>
      <point x="1258" y="566"/>
    </contour>
    <contour>
      <point x="244" y="674" type="line"/>
      <point x="414" y="735"/>
      <point x="459" y="818"/>
      <point x="459" y="971" type="curve" smooth="yes"/>
      <point x="459" y="1192" type="line"/>
      <point x="670" y="1192" type="line"/>
      <point x="670" y="956" type="line"/>
      <point x="670" y="766"/>
      <point x="617" y="603"/>
      <point x="363" y="493" type="curve"/>
    </contour>
    <contour>
      <point x="-20" y="1136" type="line"/>
      <point x="-20" y="1283" type="line"/>
      <point x="1746" y="1283" type="line"/>
      <point x="1746" y="1136" type="line"/>
    </contour>
    <contour>
      <point x="324" y="623" type="line"/>
      <point x="488" y="302"/>
      <point x="758" y="179"/>
      <point x="1002" y="179" type="curve" smooth="yes"/>
      <point x="1156" y="179"/>
      <point x="1252" y="203"/>
      <point x="1389" y="288" type="curve"/>
      <point x="1436" y="129" type="line"/>
      <point x="1302" y="70"/>
      <point x="1173" y="37"/>
      <point x="995" y="37" type="curve" smooth="yes"/>
      <point x="786" y="37"/>
      <point x="542" y="97"/>
      <point x="349" y="290" type="curve" smooth="yes"/>
      <point x="185" y="454"/>
      <point x="63" y="670"/>
      <point x="63" y="740" type="curve" smooth="yes"/>
      <point x="63" y="789"/>
      <point x="100" y="824"/>
      <point x="153" y="824" type="curve" smooth="yes"/>
      <point x="204" y="824"/>
      <point x="245" y="789"/>
      <point x="292" y="722" type="curve" smooth="yes"/>
      <point x="341" y="649" type="line"/>
    </contour>
    <contour>
      <point x="1298" y="1169" type="line"/>
      <point x="1509" y="1169" type="line"/>
      <point x="1509" y="0" type="line"/>
      <point x="1298" y="0" type="line"/>
    </contour>
  </outline>
</glyph>
<glyph name="jadeva" format="1">
  <advance width="1519"/>
  <unicode hex="091C"/>
  <outline>
    <contour>
      <point x="-54" y="1136" type="line"/>
      <point x="-54" y="1283" type="line"/>
      <point x="1535" y="1283" type="line"/>
      <point x="1535" y="1136" type="line"/>
    </contour>
    <contour>
      <point x="632" y="713" type="line"/>
      <point x="651" y="758" type="line"/>
      <point x="788" y="685"/>
      <point x="876" y="559"/>
      <point x="876" y="422" type="curve" smooth="yes"/>
      <point x="876" y="249"/>
      <point x="761" y="126"/>
      <point x="573" y="126" type="curve" smooth="yes"/>
      <point x="395" y="126"/>
      <point x="221" y="243"/>
      <point x="30" y="502" type="curve"/>
      <point x="133" y="647" type="line"/>
      <point x="308" y="405"/>
      <point x="424" y="316"/>
      <point x="524" y="316" type="curve" smooth="yes"/>
      <point x="625" y="316"/>
      <point x="685" y="373"/>
      <point x="685" y="466" type="curve" smooth="yes"/>
      <point x="685" y="579"/>
      <point x="584" y="684"/>
      <point x="402" y="733" type="curve"/>
      <point x="402" y="882" type="line"/>
      <point x="1120" y="882" type="line"/>
      <point x="1120" y="713" type="line"/>
    </contour>
    <contour>
      <point x="1087" y="1169" type="line"/>
      <point x="1298" y="1169" type="line"/>
      <point x="1298" y="0" type="line"/>
      <point x="1087" y="0" type="line"/>
    </contour>
  </outline>
</glyph>
<glyph name="nyadeva" format="1">
  <advance width="1581"/>
  <unicode hex="091E"/>
  <outline>
    <contour>
      <point x="825" y="496" type="curve"/>
      <point x="825" y="663" type="line"/>
      <point x="859" y="650"/>
      <point x="943" y="645"/>
      <point x="988" y="645" type="curve" smooth="yes"/>
      <point x="1042" y="645"/>
      <point x="1123" y="656"/>
      <point x="1195" y="690" type="curve"/>
      <point x="1195" y="498" type="line"/>
      <point x="1153" y="483"/>
      <point x="1084" y="474"/>
      <point x="1031" y="474" type="curve" smooth="yes"/>
      <point x="968" y="474"/>
      <point x="882" y="483"/>
    </contour>
    <contour>
      <point x="898" y="551" type="curve" smooth="yes"/>
      <point x="898" y="319"/>
      <point x="747" y="181"/>
      <point x="547" y="181" type="curve" smooth="yes"/>
      <point x="347" y="181"/>
      <point x="207" y="263"/>
      <point x="9" y="453" type="curve"/>
      <point x="76" y="599" type="line"/>
      <point x="259" y="420"/>
      <point x="379" y="361"/>
      <point x="499" y="361" type="curve" smooth="yes"/>
      <point x="637" y="361"/>
      <point x="718" y="450"/>
      <point x="718" y="568" type="curve" smooth="yes"/>
      <point x="717" y="670"/>
      <point x="627" y="750"/>
      <point x="506" y="750" type="curve" smooth="yes"/>
      <point x="426" y="750"/>
      <point x="362" y="726"/>
      <point x="295" y="679" type="curve"/>
      <point x="218" y="828" type="line"/>
      <point x="294" y="881"/>
      <point x="384" y="920"/>
      <point x="493" y="920" type="curve" smooth="yes"/>
      <point x="711" y="920"/>
      <point x="898" y="774"/>
    </contour>
    <contour>
      <point x="-40" y="1136" type="line"/>
      <point x="-40" y="1283" type="line"/>
      <point x="1598" y="1283" type="line"/>
      <point x="1598" y="1136" type="line"/>
    </contour>
    <contour>
      <point x="1149" y="1169" type="line"/>
      <point x="1360" y="1169" type="line"/>
      <point x="1360" y="0" type="line"/>
      <point x="1149" y="0" type="line"/>
    </contour>
  </outline>
</glyph>
<glyph name="nnadeva" format="1">
  <advance width="1624"/>
  <unicode hex="0923"/>
  <outline>
    <contour>
      <point x="695" y="1167" type="line"/>
      <point x="906" y="1167" type="line"/>
      <point x="906" y="721" type="line"/>
      <point x="906" y="484"/>
      <point x="801" y="336"/>
      <point x="545" y="336" type="curve" smooth="yes"/>
      <point x="292" y="336"/>
      <point x="151" y="490"/>
      <point x="151" y="733" type="curve" smooth="yes"/>
      <point x="151" y="1167" type="line"/>
      <point x="362" y="1167" type="line"/>
      <point x="362" y="678" type="line"/>
      <point x="362" y="557"/>
      <point x="422" y="494"/>
      <point x="519" y="494" type="curve" smooth="yes"/>
      <point x="636" y="494"/>
      <point x="695" y="565"/>
      <point x="695" y="716" type="curve" smooth="yes"/>
    </contour>
    <contour>
      <point x="-32" y="1136" type="line"/>
      <point x="-32" y="1283" type="line"/>
      <point x="1639" y="1283" type="line"/>
      <point x="1639" y="1136" type="line"/>
    </contour>
    <contour>
      <point x="1192" y="1169" type="line"/>
      <point x="1403" y="1169" type="line"/>
      <point x="1403" y="0" type="line"/>
      <point x="1192" y="0" type="line"/>
    </contour>
  </outline>
</glyph>
<glyph name="dhadeva" format="1">
  <advance width="1320"/>
  <unicode hex="0927"/>
  <outline>
    <contour>
      <point x="698" y="720" type="line"/>
      <point x="687" y="720" type="line"/>
      <point x="482" y="713"/>
      <point x="415" y="630"/>
      <point x="415" y="535" type="curve" smooth="yes"/>
      <point x="415" y="447"/>
      <point x="498" y="386"/>
      <point x="596" y="387" type="curve" smooth="yes"/>
      <point x="726" y="389"/>
      <point x="850" y="468"/>
      <point x="931" y="588" type="curve"/>
      <point x="933" y="307" type="line"/>
      <point x="844" y="248"/>
      <point x="730" y="216"/>
      <point x="614" y="216" type="curve" smooth="yes"/>
      <point x="384" y="216"/>
      <point x="226" y="373"/>
      <point x="226" y="561" type="curve" smooth="yes"/>
      <point x="226" y="719"/>
      <point x="339" y="886"/>
      <point x="635" y="886" type="curve" smooth="yes"/>
      <point x="645" y="886" type="line"/>
    </contour>
    <contour>
      <point x="355" y="740" type="line"/>
      <point x="152" y="794"/>
      <point x="28" y="908"/>
      <point x="28" y="1076" type="curve" smooth="yes"/>
      <point x="28" y="1219"/>
      <point x="143" y="1329"/>
      <point x="320" y="1329" type="curve" smooth="yes"/>
      <point x="430" y="1329"/>
      <point x="495" y="1310"/>
      <point x="567" y="1278" type="curve"/>
      <point x="541" y="1137" type="line"/>
      <point x="489" y="1157"/>
      <point x="441" y="1170"/>
      <point x="377" y="1170" type="curve" smooth="yes"/>
      <point x="286" y="1170"/>
      <point x="234" y="1107"/>
      <point x="234" y="1036" type="curve" smooth="yes"/>
      <point x="234" y="939"/>
      <point x="320" y="866"/>
      <point x="506" y="848" type="curve"/>
    </contour>
    <contour>
      <point x="888" y="1168" type="line"/>
      <point x="1099" y="1168" type="line"/>
      <point x="1099" y="0" type="line"/>
      <point x="888" y="0" type="line"/>
    </contour>
    <contour>
      <point x="1336" y="1136" type="line"/>
      <point x="796" y="1136" type="line"/>
      <point x="796" y="1283" type="line"/>
      <point x="1336" y="1283" type="line"/>
    </contour>
  </outline>
</glyph>
<glyph name="nadeva" format="1">
  <advance width="1221"/>
  <unicode hex="0928"/>
  <outline>
    <contour>
      <point x="813" y="807" type="line"/>
      <point x="813" y="634" type="line"/>
      <point x="332" y="634" type="line"/>
      <point x="382" y="685" type="line"/>
      <point x="382" y="445" type="line"/>
      <point x="382" y="385"/>
      <point x="354" y="352"/>
      <point x="300" y="352" type="curve" smooth="yes"/>
      <point x="227" y="352"/>
      <point x="112" y="555"/>
      <point x="112" y="700" type="curve" smooth="yes"/>
      <point x="112" y="770"/>
      <point x="144" y="807"/>
      <point x="232" y="807" type="curve" smooth="yes"/>
    </contour>
    <contour>
      <point x="-31" y="1136" type="line"/>
      <point x="-31" y="1283" type="line"/>
      <point x="1236" y="1283" type="line"/>
      <point x="1236" y="1136" type="line"/>
    </contour>
    <contour>
      <point x="789" y="1169" type="line"/>
      <point x="1000" y="1169" type="line"/>
      <point x="1000" y="0" type="line"/>
      <point x="789" y="0" type="line"/>
    </contour>
  </outline>
</glyph>
<glyph name="padeva" format="1">
  <advance width="1203"/>
  <unicode hex="092A"/>
  <outline>
    <contour>
      <point x="1219" y="1136" type="line"/>
      <point x="-36" y="1136" type="line"/>
      <point x="-36" y="1283" type="line"/>
      <point x="1219" y="1283" type="line"/>
    </contour>
    <contour>
      <point x="358" y="1207" type="line"/>
      <point x="358" y="712" type="line"/>
      <point x="358" y="589"/>
      <point x="422" y="522"/>
      <point x="539" y="522" type="curve" smooth="yes"/>
      <point x="630" y="522"/>
      <point x="710" y="547"/>
      <point x="800" y="617" type="curve"/>
      <point x="800" y="401" type="line"/>
      <point x="735" y="372"/>
      <point x="655" y="356"/>
      <point x="575" y="356" type="curve" smooth="yes"/>
      <point x="318" y="356"/>
      <point x="148" y="513"/>
      <point x="148" y="761" type="curve" smooth="yes"/>
      <point x="148" y="1207" type="line"/>
    </contour>
    <contour>
      <point x="771" y="1169" type="line"/>
      <point x="981" y="1169" type="line"/>
      <point x="981" y="0" type="line"/>
      <point x="771" y="0" type="line"/>
    </contour>
  </outline>
</glyph>
<glyph name="badeva" format="1">
  <advance width="1200"/>
  <unicode hex="092C"/>
  <outline>
    <contour>
      <point x="757" y="427" type="line"/>
      <point x="666" y="359" type="line"/>
      <point x="315" y="762" type="line"/>
      <point x="405" y="830" type="line"/>
    </contour>
    <component base="vadeva"/>
  </outline>
</glyph>
<glyph name="madeva" format="1">
  <advance width="1271"/>
  <unicode hex="092E"/>
  <outline>
    <contour>
      <point x="-25" y="1136" type="line"/>
      <point x="-25" y="1283" type="line"/>
      <point x="1286" y="1283" type="line"/>
      <point x="1286" y="1136" type="line"/>
    </contour>
    <contour>
      <point x="230" y="1175" type="line"/>
      <point x="441" y="1175" type="line"/>
      <point x="441" y="623" type="line"/>
      <point x="409" y="656" type="line"/>
      <point x="893" y="656" type="line"/>
      <point x="893" y="490" type="line"/>
      <point x="402" y="490" type="line"/>
      <point x="441" y="524" type="line"/>
      <point x="441" y="384" type="line"/>
      <point x="441" y="327"/>
      <point x="420" y="296"/>
      <point x="364" y="296" type="curve" smooth="yes"/>
      <point x="259" y="296"/>
      <point x="87" y="485"/>
      <point x="87" y="574" type="curve" smooth="yes"/>
      <point x="87" y="628"/>
      <point x="115" y="655"/>
      <point x="166" y="655" type="curve" smooth="yes"/>
      <point x="262" y="655" type="line"/>
      <point x="230" y="626" type="line"/>
    </contour>
    <contour>
      <point x="840" y="1169" type="line"/>
      <point x="1050" y="1169" type="line"/>
      <point x="1050" y="0" type="line"/>
      <point x="840" y="0" type="line"/>
    </contour>
  </outline>
</glyph>
<glyph name="ladeva" format="1">
  <advance width="1467"/>
  <unicode hex="0932"/>
  <outline>
    <contour>
      <point x="1105" y="949" type="line"/>
      <point x="1105" y="701" type="line"/>
      <point x="672" y="295" type="line"/>
      <point x="543" y="425" type="line"/>
    </contour>
    <contour>
      <point x="901" y="652" type="curve"/>
      <point x="779" y="534" type="line"/>
      <point x="665" y="661"/>
      <point x="585" y="704"/>
      <point x="475" y="704" type="curve" smooth="yes"/>
      <point x="360" y="704"/>
      <point x="271" y="607"/>
      <point x="270" y="501" type="curve" smooth="yes"/>
      <point x="269" y="379"/>
      <point x="335" y="269"/>
      <point x="506" y="107" type="curve"/>
      <point x="365" y="18" type="line"/>
      <point x="192" y="184"/>
      <point x="81" y="348"/>
      <point x="81" y="545" type="curve" smooth="yes"/>
      <point x="81" y="731"/>
      <point x="220" y="888"/>
      <point x="447" y="888" type="curve" smooth="yes"/>
      <point x="622" y="888"/>
      <point x="761" y="797"/>
    </contour>
    <contour>
      <point x="-20" y="1136" type="line"/>
      <point x="-20" y="1283" type="line"/>
      <point x="1483" y="1283" type="line"/>
      <point x="1483" y="1136" type="line"/>
    </contour>
    <contour>
      <point x="1036" y="1169" type="line"/>
      <point x="1246" y="1169" type="line"/>
      <point x="1246" y="0" type="line"/>
      <point x="1036" y="0" type="line"/>
    </contour>
  </outline>
</glyph>
<glyph name="lladeva" format="1">
  <advance width="1543"/>
  <unicode hex="0933"/>
  <outline>
    <contour>
      <point x="1578" y="1136" type="line"/>
      <point x="-38" y="1136" type="line"/>
      <point x="-38" y="1283" type="line"/>
      <point x="1578" y="1283" type="line"/>
    </contour>
    <contour>
      <point x="698" y="544" type="curve" smooth="yes"/>
      <point x="762" y="737"/>
      <point x="899" y="900"/>
      <point x="1112" y="900" type="curve" smooth="yes"/>
      <point x="1359" y="900"/>
      <point x="1495" y="713"/>
      <point x="1495" y="496" type="curve" smooth="yes"/>
      <point x="1495" y="278"/>
      <point x="1342" y="119"/>
      <point x="1128" y="119" type="curve" smooth="yes"/>
      <point x="975" y="119"/>
      <point x="834" y="193"/>
      <point x="682" y="325" type="curve"/>
      <point x="760" y="451" type="line"/>
      <point x="882" y="344"/>
      <point x="993" y="285"/>
      <point x="1085" y="285" type="curve" smooth="yes"/>
      <point x="1212" y="285"/>
      <point x="1311" y="378"/>
      <point x="1311" y="525" type="curve" smooth="yes"/>
      <point x="1311" y="644"/>
      <point x="1232" y="726"/>
      <point x="1134" y="726" type="curve" smooth="yes"/>
      <point x="1038" y="726"/>
      <point x="942" y="642"/>
      <point x="891" y="487" type="curve" smooth="yes"/>
      <point x="813" y="270"/>
      <point x="682" y="112"/>
      <point x="480" y="112" type="curve" smooth="yes"/>
      <point x="250" y="112"/>
      <point x="86" y="267"/>
      <point x="86" y="520" type="curve" smooth="yes"/>
      <point x="86" y="739"/>
      <point x="245" y="892"/>
      <point x="459" y="892" type="curve" smooth="yes"/>
      <point x="636" y="892"/>
      <point x="742" y="819"/>
      <point x="881" y="702" type="curve"/>
      <point x="819" y="565" type="line"/>
      <point x="704" y="671"/>
      <point x="604" y="727"/>
      <point x="494" y="727" type="curve" smooth="yes"/>
      <point x="372" y="727"/>
      <point x="273" y="641"/>
      <point x="273" y="484" type="curve" smooth="yes"/>
      <point x="273" y="344"/>
      <point x="367" y="282"/>
      <point x="455" y="282" type="curve" smooth="yes"/>
      <point x="558" y="282"/>
      <point x="642" y="378"/>
    </contour>
    <contour>
      <point x="1217" y="823" type="line"/>
      <point x="1015" y="826" type="line"/>
      <point x="1015" y="1160" type="line"/>
      <point x="1217" y="1160" type="line"/>
    </contour>
    <contour>
      <point x="970" y="-13" type="move" name="mark0"/>
    </contour>
  </outline>
</glyph>
<glyph name="vadeva" format="1">
  <advance width="1200"/>
  <unicode hex="0935"/>
  <outline>
    <contour>
      <point x="1216" y="1136" type="line"/>
      <point x="-34" y="1136" type="line"/>
      <point x="-34" y="1283" type="line"/>
      <point x="1216" y="1283" type="line"/>
    </contour>
    <contour>
      <point x="802" y="557" type="curve"/>
      <point x="802" y="327" type="line"/>
      <point x="726" y="260"/>
      <point x="623" y="229"/>
      <point x="528" y="229" type="curve" smooth="yes"/>
      <point x="265" y="229"/>
      <point x="96" y="428"/>
      <point x="96" y="634" type="curve" smooth="yes"/>
      <point x="96" y="811"/>
      <point x="248" y="942"/>
      <point x="454" y="942" type="curve" smooth="yes"/>
      <point x="625" y="942"/>
      <point x="705" y="919"/>
      <point x="843" y="855" type="curve"/>
      <point x="842" y="690" type="line"/>
      <point x="707" y="765"/>
      <point x="638" y="784"/>
      <point x="518" y="784" type="curve" smooth="yes"/>
      <point x="369" y="784"/>
      <point x="289" y="700"/>
      <point x="289" y="593" type="curve" smooth="yes"/>
      <point x="289" y="490"/>
      <point x="368" y="396"/>
      <point x="496" y="396" type="curve" smooth="yes"/>
      <point x="609" y="396"/>
      <point x="706" y="439"/>
    </contour>
    <contour>
      <point x="769" y="1169" type="line"/>
      <point x="979" y="1169" type="line"/>
      <point x="979" y="0" type="line"/>
      <point x="769" y="0" type="line"/>
    </contour>
  </outline>
</glyph>
<glyph name="sadeva" format="1">
  <advance width="1506"/>
  <unicode hex="0938"/>
  <outline>
    <contour>
      <point x="760" y="72" type="line"/>
      <point x="614" y="-27" type="line"/>
      <point x="140" y="611" type="line"/>
      <point x="84" y="685"/>
      <point x="58" y="730"/>
      <point x="58" y="773" type="curve" smooth="yes"/>
      <point x="58" y="818"/>
      <point x="98" y="854"/>
      <point x="146" y="854" type="curve" smooth="yes"/>
      <point x="195" y="854"/>
      <point x="234" y="809"/>
      <point x="290" y="733" type="curve" smooth="yes"/>
      <point x="372" y="618" type="line"/>
      <point x="370" y="602" type="line"/>
    </contour>
    <contour>
      <point x="251" y="645" type="line"/>
      <point x="412" y="687"/>
      <point x="482" y="780"/>
      <point x="482" y="942" type="curve" smooth="yes"/>
      <point x="482" y="1179" type="line"/>
      <point x="693" y="1179" type="line"/>
      <point x="693" y="910" type="line"/>
      <point x="693" y="728"/>
      <point x="603" y="561"/>
      <point x="366" y="484" type="curve"/>
    </contour>
    <contour>
      <point x="-35" y="1136" type="line"/>
      <point x="-35" y="1283" type="line"/>
      <point x="1522" y="1283" type="line"/>
      <point x="1522" y="1136" type="line"/>
    </contour>
    <contour>
      <point x="499" y="575" type="curve"/>
      <point x="574" y="722" type="line"/>
      <point x="673" y="681"/>
      <point x="769" y="666"/>
      <point x="845" y="666" type="curve" smooth="yes"/>
      <point x="935" y="666"/>
      <point x="1025" y="678"/>
      <point x="1099" y="703" type="curve"/>
      <point x="1099" y="521" type="line"/>
      <point x="1046" y="505"/>
      <point x="966" y="490"/>
      <point x="874" y="490" type="curve" smooth="yes"/>
      <point x="772" y="490"/>
      <point x="639" y="514"/>
    </contour>
    <contour>
      <point x="1075" y="1169" type="line"/>
      <point x="1285" y="1169" type="line"/>
      <point x="1285" y="0" type="line"/>
      <point x="1075" y="0" type="line"/>
    </contour>
  </outline>
</glyph>
<glyph name="hadeva" format="1">
  <advance width="1140"/>
  <unicode hex="0939"/>
  <outline>
    <contour>
      <point x="623" y="606" type="curve" smooth="yes"/>
      <point x="884" y="606"/>
      <point x="1025" y="464"/>
      <point x="1025" y="305" type="curve" smooth="yes"/>
      <point x="1025" y="221"/>
      <point x="997" y="150"/>
      <point x="955" y="81" type="curve"/>
      <point x="785" y="122" type="line"/>
      <point x="822" y="175"/>
      <point x="840" y="225"/>
      <point x="840" y="297" type="curve" smooth="yes"/>
      <point x="840" y="372"/>
      <point x="771" y="447"/>
      <point x="639" y="447" type="curve" smooth="yes"/>
      <point x="484" y="447"/>
      <point x="384" y="355"/>
      <point x="384" y="227" type="curve" smooth="yes"/>
      <point x="384" y="66"/>
      <point x="521" y="-56"/>
      <point x="937" y="-109" type="curve"/>
      <point x="890" y="-251" type="line"/>
      <point x="412" y="-198"/>
      <point x="184" y="-16"/>
      <point x="184" y="245" type="curve" smooth="yes"/>
      <point x="184" y="442"/>
      <point x="335" y="606"/>
    </contour>
    <contour>
      <point x="1175" y="1136" type="line"/>
      <point x="-20" y="1136" type="line"/>
      <point x="-20" y="1283" type="line"/>
      <point x="1175" y="1283" type="line"/>
    </contour>
    <contour>
      <point x="736" y="1146" type="line"/>
      <point x="946" y="1146" type="line"/>
      <point x="946" y="804" type="line"/>
      <point x="473" y="804" type="line"/>
      <point x="344" y="804"/>
      <point x="298" y="751"/>
      <point x="298" y="683" type="curve" smooth="yes"/>
      <point x="298" y="619"/>
      <point x="341" y="574"/>
      <point x="455" y="528" type="curve"/>
      <point x="318" y="423" type="line"/>
      <point x="177" y="501"/>
      <point x="95" y="600"/>
      <point x="95" y="727" type="curve" smooth="yes"/>
      <point x="95" y="856"/>
      <point x="194" y="951"/>
      <point x="391" y="951" type="curve" smooth="yes"/>
      <point x="775" y="951" type="line"/>
      <point x="736" y="898" type="line"/>
    </contour>
  </outline>
</glyph>
<glyph name="aavowelsigndeva" format="1">
  <advance width="618"/>
  <unicode hex="093E"/>
  <outline>
    <contour>
      <point x="186" y="1169" type="line"/>
      <point x="397" y="1169" type="line"/>
      <point x="397" y="0" type="line"/>
      <point x="186" y="0" type="line"/>
    </contour>
    <contour>
      <point x="634" y="1136" type="line"/>
      <point x="-18" y="1136" type="line"/>
      <point x="-18" y="1283" type="line"/>
      <point x="634" y="1283" type="line"/>
    </contour>
  </outline>
</glyph>
<glyph name="uuvowelsigndeva" format="1">
  <advance width="0"/>
  <unicode hex="0942"/>
  <outline>
    <contour>
      <point x="-71" y="-523" type="line"/>
      <point x="-179" y="-557"/>
      <point x="-219" y="-565"/>
      <point x="-304" y="-565" type="curve" smooth="yes"/>
      <point x="-490" y="-565"/>
      <point x="-661" y="-440"/>
      <point x="-661" y="-265" type="curve" smooth="yes"/>
      <point x="-661" y="-103"/>
      <point x="-529" y="20"/>
      <point x="-334" y="20" type="curve" smooth="yes"/>
      <point x="-95" y="20"/>
      <point x="59" y="-82"/>
      <point x="300" y="-379" type="curve"/>
      <point x="201" y="-498" type="line"/>
      <point x="-21" y="-228"/>
      <point x="-149" y="-153"/>
      <point x="-292" y="-153" type="curve" smooth="yes"/>
      <point x="-411" y="-153"/>
      <point x="-471" y="-215"/>
      <point x="-471" y="-295" type="curve" smooth="yes"/>
      <point x="-471" y="-363"/>
      <point x="-413" y="-419"/>
      <point x="-309" y="-419" type="curve" smooth="yes"/>
      <point x="-246" y="-419"/>
      <point x="-199" y="-407"/>
      <point x="-122" y="-374" type="curve"/>
    </contour>
    <contour>
      <point x="49" y="8" type="move" name="x24"/>
    </contour>
    <contour>
      <point x="-424" y="8" type="move" name="_mark0"/>
    </contour>
  </outline>
</glyph>
<glyph name="omdeva" format="1">
  <advance width="1990"/>
  <unicode hex="0950"/>
  <outline>
    <contour>
      <point x="361" y="649" type="line"/>
      <point x="321" y="810" type="line"/>
      <point x="333" y="810" type="line"/>
      <point x="632" y="819"/>
      <point x="703" y="896"/>
      <point x="703" y="1000" type="curve" smooth="yes"/>
      <point x="703" y="1075"/>
      <point x="649" y="1131"/>
      <point x="534" y="1131" type="curve" smooth="yes"/>
      <point x="438" y="1131"/>
      <point x="341" y="1098"/>
      <point x="245" y="1044" type="curve"/>
      <point x="192" y="1204" type="line"/>
      <point x="291" y="1253"/>
      <point x="401" y="1290"/>
      <point x="540" y="1290" type="curve" smooth="yes"/>
      <point x="768" y="1290"/>
      <point x="890" y="1165"/>
      <point x="890" y="975" type="curve" smooth="yes"/>
      <point x="890" y="789"/>
      <point x="730" y="662"/>
      <point x="377" y="650" type="curve" smooth="yes"/>
    </contour>
    <contour>
      <point x="682" y="798" type="line"/>
      <point x="837" y="717"/>
      <point x="942" y="609"/>
      <point x="942" y="441" type="curve" smooth="yes"/>
      <point x="942" y="272"/>
      <point x="810" y="126"/>
      <point x="589" y="126" type="curve" smooth="yes"/>
      <point x="435" y="126"/>
      <point x="306" y="176"/>
      <point x="133" y="298" type="curve"/>
      <point x="179" y="455" type="line"/>
      <point x="321" y="342"/>
      <point x="425" y="301"/>
      <point x="532" y="301" type="curve" smooth="yes"/>
      <point x="669" y="301"/>
      <point x="750" y="375"/>
      <point x="750" y="482" type="curve" smooth="yes"/>
      <point x="750" y="567"/>
      <point x="686" y="653"/>
      <point x="566" y="702" type="curve"/>
    </contour>
    <contour>
      <point x="1351" y="930" type="curve" smooth="yes"/>
      <point x="1310" y="993"/>
      <point x="1319" y="1040"/>
      <point x="1395" y="931" type="curve" smooth="yes"/>
      <point x="1491" y="846"/>
      <point x="1507" y="671"/>
      <point x="1420" y="571" type="curve" smooth="yes"/>
      <point x="1401" y="476"/>
      <point x="1306" y="394"/>
      <point x="1179" y="397" type="curve"/>
      <point x="1097" y="397"/>
      <point x="1038" y="472"/>
      <point x="971" y="526" type="curve"/>
      <point x="974" y="523"/>
      <point x="1052" y="607"/>
      <point x="1070" y="607" type="curve" smooth="yes"/>
      <point x="1165" y="577"/>
      <point x="1251" y="594"/>
      <point x="1333" y="688" type="curve" smooth="yes"/>
      <point x="1431" y="818"/>
      <point x="1533" y="910"/>
      <point x="1613" y="953" type="curve" smooth="yes"/>
      <point x="1718" y="986"/>
      <point x="1778" y="921"/>
      <point x="1754" y="793" type="curve" smooth="yes"/>
      <point x="1727" y="670"/>
      <point x="1613" y="573"/>
      <point x="1496" y="527" type="curve" smooth="yes"/>
      <point x="1377" y="418"/>
      <point x="1252" y="397"/>
      <point x="1096" y="474" type="curve"/>
      <point x="1050" y="474"/>
      <point x="1047" y="513"/>
      <point x="1017" y="520" type="curve"/>
      <point x="1097" y="444"/>
      <point x="1147" y="530"/>
      <point x="1199" y="530" type="curve" smooth="yes"/>
      <point x="1317" y="521"/>
      <point x="1397" y="571"/>
      <point x="1418" y="677" type="curve" smooth="yes"/>
      <point x="1444" y="766"/>
      <point x="1400" y="867"/>
    </contour>
    <component base="candrabindudeva" xOffset="1479" yOffset="-107"/>
  </outline>
</glyph>
<glyph name="uni0953" format="1">
  <advance width="43"/>
  <unicode hex="0953"/>
  <outline>
    <contour>
      <point x="-166" y="1429" type="line"/>
      <point x="-345" y="1429" type="line"/>
      <point x="-383" y="1494"/>
      <point x="-539" y="1743"/>
      <point x="-577" y="1808" type="curve"/>
      <point x="-311" y="1808" type="line"/>
    </contour>
    <contour>
      <point x="-381" y="1261" type="move" name="_mark0"/>
    </contour>
    <contour>
      <point x="22" y="-13" type="move" name="x4"/>
    </contour>
  </outline>
</glyph>
<glyph name="uni0954" format="1">
  <advance width="43"/>
  <unicode hex="0954"/>
  <outline>
    <contour>
      <point x="-241" y="1808" type="line"/>
      <point x="23" y="1808" type="line"/>
      <point x="-208" y="1429" type="line"/>
      <point x="-387" y="1429" type="line"/>
    </contour>
    <contour>
      <point x="-381" y="1261" type="move" name="_mark0"/>
    </contour>
    <contour>
      <point x="22" y="-13" type="move" name="x4"/>
    </contour>
  </outline>
</glyph>
<glyph name="rhadeva" format="1">
  <advance width="1147"/>
  <unicode hex="095D"/>
  <outline>
    <component base="nuktadeva" xOffset="1459" yOffset="18"/>
    <component base="ddhadeva"/>
    <contour>
      <point x="706" y="1274" type="move" name="mark0"/>
    </contour>
  </outline>
</glyph>
<glyph name="fadeva" format="1">
  <advance width="1592"/>
  <unicode hex="095E"/>
  <outline>
    <component base="phadeva"/>
    <component base="nuktadeva" xOffset="1147" yOffset="250"/>
    <contour>
      <point x="861" y="0" type="move" name="mark0"/>
    </contour>
  </outline>
</glyph>
<glyph name="lvocalicvowelsigndeva" format="1">
  <advance width="-1"/>
  <unicode hex="0962"/>
  <outline>
    <contour>
      <point x="-358" y="-249" type="curve"/>
      <point x="-429" y="-311" type="line"/>
      <point x="-479" y="-242"/>
      <point x="-524" y="-210"/>
      <point x="-589" y="-210" type="curve" smooth="yes"/>
      <point x="-650" y="-210"/>
      <point x="-688" y="-255"/>
      <point x="-688" y="-307" type="curve" smooth="yes"/>
      <point x="-688" y="-369"/>
      <point x="-656" y="-421"/>
      <point x="-560" y="-500" type="curve"/>
      <point x="-646" y="-550" type="line"/>
      <point x="-752" y="-462"/>
      <point x="-804" y="-371"/>
      <point x="-804" y="-286" type="curve" smooth="yes"/>
      <point x="-804" y="-187"/>
      <point x="-737" y="-109"/>
      <point x="-612" y="-109" type="curve" smooth="yes"/>
      <point x="-507" y="-109"/>
      <point x="-429" y="-166"/>
    </contour>
    <contour>
      <point x="-179" y="-408" type="curve"/>
      <point x="-235" y="-449" type="line"/>
      <point x="-198" y="-405"/>
      <point x="-178" y="-356"/>
      <point x="-178" y="-308" type="curve" smooth="yes"/>
      <point x="-178" y="-267"/>
      <point x="-207" y="-232"/>
      <point x="-259" y="-232" type="curve" smooth="yes"/>
      <point x="-326" y="-232"/>
      <point x="-383" y="-293"/>
      <point x="-411" y="-402" type="curve"/>
      <point x="-514" y="-366" type="line"/>
      <point x="-482" y="-239"/>
      <point x="-408" y="-132"/>
      <point x="-269" y="-131" type="curve" smooth="yes"/>
      <point x="-148" y="-131"/>
      <point x="-71" y="-216"/>
      <point x="-71" y="-318" type="curve" smooth="yes"/>
      <point x="-71" y="-371"/>
      <point x="-91" y="-428"/>
      <point x="-123" y="-475" type="curve"/>
      <point x="-205" y="-476"/>
      <point x="-236" y="-505"/>
      <point x="-236" y="-537" type="curve" smooth="yes"/>
      <point x="-236" y="-570"/>
      <point x="-213" y="-589"/>
      <point x="-163" y="-589" type="curve" smooth="yes"/>
      <point x="-131" y="-589"/>
      <point x="-105" y="-583"/>
      <point x="-64" y="-566" type="curve"/>
      <point x="-50" y="-645" type="line"/>
      <point x="-92" y="-662"/>
      <point x="-125" y="-667"/>
      <point x="-168" y="-667" type="curve" smooth="yes"/>
      <point x="-269" y="-667"/>
      <point x="-339" y="-612"/>
      <point x="-339" y="-539" type="curve" smooth="yes"/>
      <point x="-339" y="-471"/>
      <point x="-284" y="-415"/>
    </contour>
    <contour>
      <point x="-381" y="-13" type="move" name="_mark0"/>
    </contour>
  </outline>
</glyph>
<glyph name="llvocalicvowelsigndeva" format="1">
  <advance width="-1"/>
  <unicode hex="0963"/>
  <outline>
    <contour>
      <point x="-357" y="-249" type="curve"/>
      <point x="-429" y="-310" type="line"/>
      <point x="-480" y="-241"/>
      <point x="-525" y="-209"/>
      <point x="-591" y="-209" type="curve" smooth="yes"/>
      <point x="-652" y="-209"/>
      <point x="-688" y="-255"/>
      <point x="-688" y="-308" type="curve" smooth="yes"/>
      <point x="-688" y="-370"/>
      <point x="-658" y="-422"/>
      <point x="-562" y="-503" type="curve"/>
      <point x="-646" y="-552" type="line"/>
      <point x="-755" y="-464"/>
      <point x="-805" y="-372"/>
      <point x="-805" y="-285" type="curve" smooth="yes"/>
      <point x="-805" y="-186"/>
      <point x="-739" y="-107"/>
      <point x="-613" y="-107" type="curve" smooth="yes"/>
      <point x="-507" y="-107"/>
      <point x="-429" y="-166"/>
    </contour>
    <contour>
      <point x="-3" y="-792" type="line"/>
      <point x="-35" y="-806"/>
      <point x="-80" y="-816"/>
      <point x="-120" y="-816" type="curve" smooth="yes"/>
      <point x="-224" y="-816"/>
      <point x="-271" y="-762"/>
      <point x="-271" y="-705" type="curve" smooth="yes"/>
      <point x="-271" y="-641"/>
      <point x="-206" y="-593"/>
      <point x="-107" y="-592" type="curve"/>
      <point x="-93" y="-644" type="line"/>
      <point x="-147" y="-645"/>
      <point x="-172" y="-673"/>
      <point x="-172" y="-702" type="curve" smooth="yes"/>
      <point x="-172" y="-729"/>
      <point x="-154" y="-746"/>
      <point x="-110" y="-746" type="curve" smooth="yes"/>
      <point x="-82" y="-746"/>
      <point x="-54" y="-739"/>
      <point x="-18" y="-724" type="curve"/>
    </contour>
    <contour>
      <point x="-172" y="-407" type="curve"/>
      <point x="-234" y="-451" type="line"/>
      <point x="-196" y="-407"/>
      <point x="-177" y="-356"/>
      <point x="-177" y="-308" type="curve" smooth="yes"/>
      <point x="-177" y="-266"/>
      <point x="-206" y="-232"/>
      <point x="-259" y="-232" type="curve" smooth="yes"/>
      <point x="-326" y="-232"/>
      <point x="-383" y="-294"/>
      <point x="-410" y="-404" type="curve"/>
      <point x="-514" y="-367" type="line"/>
      <point x="-483" y="-238"/>
      <point x="-408" y="-131"/>
      <point x="-269" y="-130" type="curve" smooth="yes"/>
      <point x="-148" y="-130"/>
      <point x="-70" y="-215"/>
      <point x="-70" y="-319" type="curve" smooth="yes"/>
      <point x="-70" y="-372"/>
      <point x="-89" y="-430"/>
      <point x="-122" y="-477" type="curve"/>
      <point x="-126" y="-477"/>
      <point x="-131" y="-477"/>
      <point x="-134" y="-477" type="curve" smooth="yes"/>
      <point x="-204" y="-477"/>
      <point x="-229" y="-508"/>
      <point x="-229" y="-537" type="curve" smooth="yes"/>
      <point x="-229" y="-565"/>
      <point x="-206" y="-586"/>
      <point x="-159" y="-586" type="curve" smooth="yes"/>
      <point x="-131" y="-586"/>
      <point x="-106" y="-582"/>
      <point x="-60" y="-568" type="curve"/>
      <point x="-45" y="-641" type="line"/>
      <point x="-90" y="-653"/>
      <point x="-126" y="-659"/>
      <point x="-161" y="-659" type="curve" smooth="yes"/>
      <point x="-271" y="-659"/>
      <point x="-336" y="-602"/>
      <point x="-336" y="-531" type="curve" smooth="yes"/>
      <point x="-336" y="-467"/>
      <point x="-280" y="-413"/>
    </contour>
    <contour>
      <point x="-381" y="-13" type="move" name="_mark0"/>
    </contour>
  </outline>
</glyph>
<glyph name="zerodeva" format="1">
  <advance width="1202"/>
  <unicode hex="0966"/>
  <outline>
    <contour>
      <point x="571" y="1094" type="curve" smooth="yes"/>
      <point x="866" y="1094"/>
      <point x="1056" y="892"/>
      <point x="1056" y="640" type="curve" smooth="yes"/>
      <point x="1056" y="429"/>
      <point x="892" y="236"/>
      <point x="625" y="236" type="curve" smooth="yes"/>
      <point x="336" y="236"/>
      <point x="137" y="439"/>
      <point x="137" y="694" type="curve" smooth="yes"/>
      <point x="137" y="900"/>
      <point x="308" y="1094"/>
    </contour>
    <contour>
      <point x="591" y="398" type="curve" smooth="yes"/>
      <point x="768" y="398"/>
      <point x="872" y="529"/>
      <point x="872" y="684" type="curve" smooth="yes"/>
      <point x="872" y="819"/>
      <point x="758" y="936"/>
      <point x="613" y="936" type="curve" smooth="yes"/>
      <point x="438" y="936"/>
      <point x="330" y="807"/>
      <point x="330" y="652" type="curve" smooth="yes"/>
      <point x="330" y="508"/>
      <point x="453" y="398"/>
    </contour>
  </outline>
</glyph>
<glyph name="twodeva" format="1">
  <advance width="1010"/>
  <unicode hex="0968"/>
  <outline>
    <contour>
      <point x="325" y="473" type="line"/>
      <point x="481" y="540" type="line"/>
      <point x="824" y="49" type="line"/>
      <point x="671" y="-30" type="line"/>
    </contour>
    <contour>
      <point x="290" y="373" type="curve" smooth="yes"/>
      <point x="194" y="373"/>
      <point x="136" y="424"/>
      <point x="136" y="489" type="curve" smooth="yes"/>
      <point x="136" y="573"/>
      <point x="226" y="682"/>
      <point x="318" y="682" type="curve" smooth="yes"/>
      <point x="393" y="682"/>
      <point x="441" y="635"/>
      <point x="484" y="540" type="curve"/>
      <point x="280" y="531" type="line"/>
      <point x="554" y="586"/>
      <point x="700" y="752"/>
      <point x="700" y="909" type="curve" smooth="yes"/>
      <point x="700" y="1044"/>
      <point x="604" y="1127"/>
      <point x="452" y="1127" type="curve" smooth="yes"/>
      <point x="355" y="1127"/>
      <point x="244" y="1095"/>
      <point x="131" y="1038" type="curve"/>
      <point x="71" y="1212" type="line"/>
      <point x="179" y="1259"/>
      <point x="300" y="1292"/>
      <point x="441" y="1291" type="curve" smooth="yes"/>
      <point x="719" y="1290"/>
      <point x="887" y="1138"/>
      <point x="887" y="894" type="curve" smooth="yes"/>
      <point x="887" y="611"/>
      <point x="567" y="373"/>
    </contour>
  </outline>
</glyph>
<glyph name="fourdeva" format="1">
  <advance width="1015"/>
  <unicode hex="096A"/>
  <outline>
    <contour>
      <point x="-14" y="1162" type="line"/>
      <point x="108" y="1293" type="line"/>
      <point x="495" y="943" type="line"/>
      <point x="807" y="662"/>
      <point x="905" y="527"/>
      <point x="905" y="360" type="curve" smooth="yes"/>
      <point x="905" y="200"/>
      <point x="784" y="41"/>
      <point x="532" y="41" type="curve" smooth="yes"/>
      <point x="279" y="41"/>
      <point x="112" y="220"/>
      <point x="112" y="393" type="curve" smooth="yes"/>
      <point x="112" y="549"/>
      <point x="177" y="669"/>
      <point x="572" y="999" type="curve" smooth="yes"/>
      <point x="887" y="1290" type="line"/>
      <point x="1021" y="1157" type="line"/>
      <point x="706" y="865" type="line"/>
      <point x="381" y="574"/>
      <point x="306" y="484"/>
      <point x="306" y="369" type="curve" smooth="yes"/>
      <point x="306" y="282"/>
      <point x="382" y="199"/>
      <point x="499" y="199" type="curve" smooth="yes"/>
      <point x="642" y="199"/>
      <point x="720" y="295"/>
      <point x="720" y="404" type="curve" smooth="yes"/>
      <point x="720" y="501"/>
      <point x="660" y="576"/>
      <point x="388" y="809" type="curve" smooth="yes"/>
    </contour>
  </outline>
</glyph>
<glyph name="fivedeva" format="1">
  <advance width="1142"/>
  <unicode hex="096B"/>
  <outline>
    <contour>
      <point x="307" y="681" type="curve" smooth="yes"/>
      <point x="307" y="544"/>
      <point x="397" y="429"/>
      <point x="562" y="428" type="curve" smooth="yes"/>
      <point x="662" y="428"/>
      <point x="748" y="473"/>
      <point x="838" y="542" type="curve"/>
      <point x="718" y="434" type="line"/>
      <point x="675" y="492"/>
      <point x="659" y="522"/>
      <point x="659" y="566" type="curve" smooth="yes"/>
      <point x="659" y="625"/>
      <point x="714" y="666"/>
      <point x="815" y="666" type="curve" smooth="yes"/>
      <point x="933" y="666"/>
      <point x="1021" y="609"/>
      <point x="1021" y="547" type="curve" smooth="yes"/>
      <point x="1021" y="434"/>
      <point x="830" y="284"/>
      <point x="583" y="284" type="curve" smooth="yes"/>
      <point x="292" y="284"/>
      <point x="109" y="465"/>
      <point x="109" y="718" type="curve" smooth="yes"/>
      <point x="109" y="915"/>
      <point x="222" y="1126"/>
      <point x="427" y="1286" type="curve"/>
      <point x="592" y="1167" type="line"/>
      <point x="407" y="1024"/>
      <point x="307" y="835"/>
    </contour>
    <contour>
      <point x="697" y="472" type="line"/>
      <point x="860" y="526" type="line"/>
      <point x="1142" y="-12" type="line"/>
      <point x="983" y="-74" type="line"/>
    </contour>
  </outline>
</glyph>
<glyph name="sevendeva" format="1">
  <advance width="1320"/>
  <unicode hex="096D"/>
  <outline>
    <contour>
      <point x="1102" y="402" type="curve"/>
      <point x="1101" y="401"/>
      <point x="1028" y="299"/>
      <point x="1028" y="299" type="curve"/>
      <point x="673" y="375"/>
      <point x="538" y="541"/>
      <point x="538" y="740" type="curve" smooth="yes"/>
      <point x="538" y="885"/>
      <point x="641" y="1004"/>
      <point x="817" y="1004" type="curve" smooth="yes"/>
      <point x="1046" y="1004"/>
      <point x="1206" y="823"/>
      <point x="1206" y="536" type="curve" smooth="yes"/>
      <point x="1206" y="280"/>
      <point x="1016" y="82"/>
      <point x="765" y="82" type="curve" smooth="yes"/>
      <point x="431" y="82"/>
      <point x="147" y="321"/>
      <point x="147" y="833" type="curve" smooth="yes"/>
      <point x="147" y="969"/>
      <point x="183" y="1156"/>
      <point x="225" y="1283" type="curve"/>
      <point x="404" y="1207" type="line"/>
      <point x="352" y="1054"/>
      <point x="326" y="889"/>
      <point x="326" y="746" type="curve" smooth="yes"/>
      <point x="326" y="374"/>
      <point x="530" y="225"/>
      <point x="734" y="225" type="curve" smooth="yes"/>
      <point x="909" y="225"/>
      <point x="1033" y="386"/>
      <point x="1033" y="589" type="curve" smooth="yes"/>
      <point x="1033" y="745"/>
      <point x="952" y="850"/>
      <point x="849" y="850" type="curve" smooth="yes"/>
      <point x="763" y="850"/>
      <point x="713" y="786"/>
      <point x="713" y="702" type="curve" smooth="yes"/>
      <point x="713" y="589"/>
      <point x="795" y="483"/>
    </contour>
  </outline>
</glyph>
<glyph name="eightdeva" format="1">
  <advance width="1015"/>
  <unicode hex="096E"/>
  <outline>
    <contour>
      <point x="667" y="1289" type="line"/>
      <point x="823" y="1166" type="line"/>
      <point x="410" y="695" type="line"/>
      <point x="308" y="579"/>
      <point x="278" y="506"/>
      <point x="278" y="413" type="curve" smooth="yes"/>
      <point x="278" y="314"/>
      <point x="372" y="229"/>
      <point x="522" y="229" type="curve" smooth="yes"/>
      <point x="647" y="229"/>
      <point x="780" y="285"/>
      <point x="943" y="408" type="curve"/>
      <point x="1044" y="245" type="line"/>
      <point x="886" y="122"/>
      <point x="710" y="56"/>
      <point x="548" y="56" type="curve" smooth="yes"/>
      <point x="307" y="56"/>
      <point x="90" y="225"/>
      <point x="90" y="449" type="curve" smooth="yes"/>
      <point x="90" y="578"/>
      <point x="133" y="683"/>
      <point x="255" y="822" type="curve" smooth="yes"/>
    </contour>
  </outline>
</glyph>
<glyph name="ninedeva" format="1">
  <advance width="960"/>
  <unicode hex="096F"/>
  <outline>
    <contour>
      <point x="386" y="664" type="curve" smooth="yes"/>
      <point x="817" y="253" type="line"/>
      <point x="881" y="191"/>
      <point x="918" y="122"/>
      <point x="918" y="63" type="curve" smooth="yes"/>
      <point x="918" y="-1"/>
      <point x="904" y="-42"/>
      <point x="867" y="-100" type="curve"/>
      <point x="676" y="-61" type="line"/>
      <point x="695" y="-25"/>
      <point x="713" y="20"/>
      <point x="713" y="59" type="curve" smooth="yes"/>
      <point x="713" y="99"/>
      <point x="702" y="130"/>
      <point x="661" y="168" type="curve" smooth="yes"/>
      <point x="272" y="533" type="line"/>
      <point x="125" y="668"/>
      <point x="69" y="791"/>
      <point x="69" y="953" type="curve" smooth="yes"/>
      <point x="69" y="1114"/>
      <point x="204" y="1282"/>
      <point x="434" y="1282" type="curve" smooth="yes"/>
      <point x="699" y="1282"/>
      <point x="846" y="1103"/>
      <point x="846" y="910" type="curve" smooth="yes"/>
      <point x="846" y="710"/>
      <point x="697" y="564"/>
      <point x="490" y="499" type="curve"/>
      <point x="387" y="619" type="line"/>
      <point x="562" y="678"/>
      <point x="661" y="790"/>
      <point x="661" y="923" type="curve" smooth="yes"/>
      <point x="661" y="1034"/>
      <point x="585" y="1122"/>
      <point x="467" y="1122" type="curve" smooth="yes"/>
      <point x="343" y="1122"/>
      <point x="265" y="1030"/>
      <point x="265" y="913" type="curve" smooth="yes"/>
      <point x="265" y="817"/>
      <point x="302" y="745"/>
    </contour>
  </outline>
</glyph>
<glyph name="abbreviationsigndeva" format="1">
  <advance width="963"/>
  <unicode hex="0970"/>
  <outline>
    <contour>
      <point x="0" y="0" type="line"/>
      <point x="963" y="0" type="line"/>
      <point x="963" y="20" type="line"/>
      <point x="0" y="20" type="line"/>
    </contour>
  </outline>
</glyph>
<glyph name="uni097D" format="1">
  <advance width="1074"/>
  <unicode hex="097D"/>
  <outline>
    <contour>
      <point x="561" y="577" type="line"/>
      <point x="561" y="2" type="line"/>
      <point x="350" y="2" type="line"/>
      <point x="350" y="686" type="line"/>
      <point x="362" y="686" type="line"/>
      <point x="603" y="695"/>
      <point x="741" y="814"/>
      <point x="741" y="947" type="curve" smooth="yes"/>
      <point x="741" y="1055"/>
      <point x="662" y="1131"/>
      <point x="542" y="1131" type="curve" smooth="yes"/>
      <point x="437" y="1131"/>
      <point x="341" y="1098"/>
      <point x="245" y="1044" type="curve"/>
      <point x="192" y="1204" type="line"/>
      <point x="291" y="1253"/>
      <point x="400" y="1290"/>
      <point x="546" y="1290" type="curve" smooth="yes"/>
      <point x="780" y="1290"/>
      <point x="929" y="1147"/>
      <point x="929" y="927" type="curve" smooth="yes"/>
      <point x="929" y="703"/>
      <point x="713" y="560"/>
      <point x="521" y="547" type="curve"/>
    </contour>
  </outline>
</glyph>
<glyph name="uni200D" format="1">
  <advance width="54"/>
  <unicode hex="200D"/>
  <outline>
    <contour>
      <point x="0" y="0" type="line"/>
      <point x="54" y="0" type="line"/>
      <point x="54" y="20" type="line"/>
      <point x="0" y="20" type="line"/>
    </contour>
  </outline>
</glyph>
<glyph name="auanusvaradeva" format="1">
  <advance width="2174"/>
  <outline>
    <contour>
      <point x="0" y="0" type="line"/>
      <point x="2174" y="0" type="line"/>
      <point x="2174" y="20" type="line"/>
      <point x="0" y="20" type="line"/>
    </contour>
  </outline>
</glyph>
<glyph name="bhaprehalfdeva" format="1">
  <advance width="806"/>
  <outline>
    <contour>
      <point x="362" y="1014" type="line"/>
      <point x="362" y="1126"/>
      <point x="311" y="1184"/>
      <point x="231" y="1184" type="curve" smooth="yes"/>
      <point x="159" y="1184"/>
      <point x="127" y="1135"/>
      <point x="126" y="1072" type="curve" smooth="yes"/>
      <point x="126" y="989"/>
      <point x="202" y="910"/>
      <point x="410" y="899" type="curve"/>
      <point x="388" y="777" type="line"/>
      <point x="123" y="786"/>
      <point x="-60" y="908"/>
      <point x="-60" y="1109" type="curve" smooth="yes"/>
      <point x="-60" y="1229"/>
      <point x="24" y="1339"/>
      <point x="217" y="1339" type="curve" smooth="yes"/>
      <point x="440" y="1339"/>
      <point x="572" y="1202"/>
      <point x="572" y="983" type="curve" smooth="yes"/>
      <point x="572" y="623" type="line"/>
      <point x="540" y="656" type="line"/>
      <point x="1105" y="656" type="line"/>
      <point x="1105" y="490" type="line"/>
      <point x="533" y="490" type="line"/>
      <point x="572" y="524" type="line"/>
      <point x="572" y="384" type="line"/>
      <point x="572" y="327"/>
      <point x="552" y="296"/>
      <point x="495" y="296" type="curve" smooth="yes"/>
      <point x="390" y="296"/>
      <point x="218" y="485"/>
      <point x="218" y="574" type="curve" smooth="yes"/>
      <point x="218" y="628"/>
      <point x="246" y="655"/>
      <point x="297" y="655" type="curve" smooth="yes"/>
      <point x="393" y="655" type="line"/>
      <point x="362" y="626" type="line"/>
    </contour>
  </outline>
</glyph>
<glyph name="bharadeva" format="1">
  <advance width="1369"/>
  <outline>
    <contour>
      <point x="1097" y="377" type="line"/>
      <point x="502" y="-89" type="line"/>
      <point x="387" y="43" type="line"/>
      <point x="994" y="516" type="line"/>
    </contour>
    <contour>
      <point x="387" y="1014" type="line"/>
      <point x="387" y="1126"/>
      <point x="336" y="1184"/>
      <point x="256" y="1184" type="curve" smooth="yes"/>
      <point x="184" y="1184"/>
      <point x="152" y="1135"/>
      <point x="151" y="1072" type="curve" smooth="yes"/>
      <point x="151" y="989"/>
      <point x="227" y="910"/>
      <point x="435" y="899" type="curve"/>
      <point x="413" y="786" type="line"/>
      <point x="148" y="795"/>
      <point x="-35" y="908"/>
      <point x="-35" y="1109" type="curve" smooth="yes"/>
      <point x="-35" y="1229"/>
      <point x="49" y="1339"/>
      <point x="242" y="1339" type="curve" smooth="yes"/>
      <point x="465" y="1339"/>
      <point x="597" y="1202"/>
      <point x="597" y="983" type="curve" smooth="yes"/>
      <point x="597" y="632" type="line"/>
      <point x="565" y="665" type="line"/>
      <point x="993" y="665" type="line"/>
      <point x="993" y="498" type="line"/>
      <point x="558" y="498" type="line"/>
      <point x="597" y="533" type="line"/>
      <point x="597" y="401" type="line"/>
      <point x="597" y="344"/>
      <point x="577" y="314"/>
      <point x="520" y="314" type="curve" smooth="yes"/>
      <point x="424" y="314"/>
      <point x="243" y="502"/>
      <point x="243" y="583" type="curve" smooth="yes"/>
      <point x="243" y="637"/>
      <point x="271" y="664"/>
      <point x="322" y="664" type="curve" smooth="yes"/>
      <point x="418" y="664" type="line"/>
      <point x="387" y="635" type="line"/>
    </contour>
    <contour>
      <point x="949" y="1169" type="line"/>
      <point x="1160" y="1169" type="line"/>
      <point x="1160" y="0" type="line"/>
      <point x="949" y="0" type="line"/>
    </contour>
    <contour>
      <point x="1397" y="1136" type="line"/>
      <point x="807" y="1136" type="line"/>
      <point x="807" y="1283" type="line"/>
      <point x="1397" y="1283" type="line"/>
    </contour>
  </outline>
</glyph>
<glyph name="bharaprehalfdeva" format="1">
  <advance width="806"/>
  <outline>
    <contour>
      <point x="1072" y="377" type="line"/>
      <point x="477" y="-89" type="line"/>
      <point x="362" y="43" type="line"/>
      <point x="969" y="516" type="line"/>
    </contour>
    <contour>
      <point x="362" y="1014" type="line"/>
      <point x="362" y="1126"/>
      <point x="311" y="1184"/>
      <point x="231" y="1184" type="curve" smooth="yes"/>
      <point x="159" y="1184"/>
      <point x="127" y="1135"/>
      <point x="126" y="1072" type="curve" smooth="yes"/>
      <point x="126" y="989"/>
      <point x="202" y="910"/>
      <point x="410" y="899" type="curve"/>
      <point x="388" y="786" type="line"/>
      <point x="123" y="795"/>
      <point x="-60" y="908"/>
      <point x="-60" y="1109" type="curve" smooth="yes"/>
      <point x="-60" y="1229"/>
      <point x="24" y="1339"/>
      <point x="217" y="1339" type="curve" smooth="yes"/>
      <point x="440" y="1339"/>
      <point x="572" y="1202"/>
      <point x="572" y="983" type="curve" smooth="yes"/>
      <point x="572" y="632" type="line"/>
      <point x="540" y="665" type="line"/>
      <point x="1104" y="665" type="line"/>
      <point x="1104" y="498" type="line"/>
      <point x="533" y="498" type="line"/>
      <point x="572" y="533" type="line"/>
      <point x="572" y="401" type="line"/>
      <point x="572" y="344"/>
      <point x="552" y="314"/>
      <point x="495" y="314" type="curve" smooth="yes"/>
      <point x="399" y="314"/>
      <point x="218" y="502"/>
      <point x="218" y="583" type="curve" smooth="yes"/>
      <point x="218" y="637"/>
      <point x="246" y="664"/>
      <point x="297" y="664" type="curve" smooth="yes"/>
      <point x="393" y="664" type="line"/>
      <point x="362" y="635" type="line"/>
    </contour>
  </outline>
</glyph>
<glyph name="chaprehalfdeva" format="1">
  <advance width="1493"/>
  <outline>
    <contour>
      <point x="651" y="784" type="curve"/>
      <point x="705" y="620" type="line"/>
      <point x="703" y="620"/>
      <point x="701" y="620"/>
      <point x="699" y="620" type="curve" smooth="yes"/>
      <point x="484" y="611"/>
      <point x="415" y="512"/>
      <point x="415" y="416" type="curve" smooth="yes"/>
      <point x="415" y="306"/>
      <point x="512" y="217"/>
      <point x="688" y="217" type="curve" smooth="yes"/>
      <point x="967" y="217"/>
      <point x="1236" y="461"/>
      <point x="1236" y="669" type="curve" smooth="yes"/>
      <point x="1236" y="784"/>
      <point x="1176" y="844"/>
      <point x="1100" y="844" type="curve" smooth="yes"/>
      <point x="1034" y="844"/>
      <point x="985" y="782"/>
      <point x="985" y="702" type="curve" smooth="yes"/>
      <point x="985" y="606"/>
      <point x="1051" y="513"/>
      <point x="1239" y="382" type="curve"/>
      <point x="1143" y="283" type="line"/>
      <point x="914" y="433"/>
      <point x="810" y="564"/>
      <point x="810" y="741" type="curve" smooth="yes"/>
      <point x="810" y="863"/>
      <point x="900" y="998"/>
      <point x="1074" y="998" type="curve" smooth="yes"/>
      <point x="1272" y="998"/>
      <point x="1409" y="865"/>
      <point x="1409" y="650" type="curve" smooth="yes"/>
      <point x="1409" y="374"/>
      <point x="1101" y="53"/>
      <point x="700" y="53" type="curve" smooth="yes"/>
      <point x="372" y="53"/>
      <point x="210" y="240"/>
      <point x="210" y="446" type="curve" smooth="yes"/>
      <point x="210" y="622"/>
      <point x="350" y="779"/>
      <point x="646" y="784" type="curve" smooth="yes"/>
      <point x="648" y="784"/>
      <point x="649" y="784"/>
    </contour>
    <contour>
      <point x="543" y="746" type="curve"/>
      <point x="395" y="633" type="line"/>
      <point x="191" y="693"/>
      <point x="106" y="814"/>
      <point x="106" y="969" type="curve" smooth="yes"/>
      <point x="106" y="1088"/>
      <point x="203" y="1233"/>
      <point x="456" y="1263" type="curve"/>
      <point x="547" y="1156" type="line"/>
      <point x="379" y="1134"/>
      <point x="310" y="1034"/>
      <point x="310" y="947" type="curve" smooth="yes"/>
      <point x="310" y="862"/>
      <point x="360" y="778"/>
    </contour>
    <contour>
      <point x="1527" y="1136" type="line"/>
      <point x="-40" y="1136" type="line"/>
      <point x="-40" y="1283" type="line"/>
      <point x="1527" y="1283" type="line"/>
    </contour>
  </outline>
</glyph>
<glyph name="chayadeva" format="1">
  <advance width="2731"/>
  <outline>
    <contour>
      <point x="1158" y="827" type="line"/>
      <point x="1050" y="972" type="line"/>
      <point x="1714" y="972" type="line"/>
      <point x="1908" y="972"/>
      <point x="2013" y="850"/>
      <point x="2013" y="717" type="curve" smooth="yes"/>
      <point x="2013" y="585"/>
      <point x="1921" y="471"/>
      <point x="1685" y="418" type="curve"/>
      <point x="1688" y="484" type="line"/>
      <point x="1762" y="371"/>
      <point x="1866" y="298"/>
      <point x="1987" y="298" type="curve" smooth="yes"/>
      <point x="2136" y="298"/>
      <point x="2258" y="382"/>
      <point x="2331" y="518" type="curve"/>
      <point x="2331" y="243" type="line"/>
      <point x="2263" y="173"/>
      <point x="2174" y="127"/>
      <point x="2038" y="127" type="curve" smooth="yes"/>
      <point x="1803" y="127"/>
      <point x="1606" y="276"/>
      <point x="1500" y="507" type="curve"/>
      <point x="1500" y="513" type="line"/>
      <point x="1743" y="566"/>
      <point x="1815" y="644"/>
      <point x="1815" y="717" type="curve" smooth="yes"/>
      <point x="1815" y="781"/>
      <point x="1763" y="827"/>
      <point x="1654" y="827" type="curve" smooth="yes"/>
    </contour>
    <contour>
      <point x="2283" y="1169" type="line"/>
      <point x="2494" y="1169" type="line"/>
      <point x="2494" y="0" type="line"/>
      <point x="2283" y="0" type="line"/>
    </contour>
    <contour>
      <point x="1414" y="1136" type="line"/>
      <point x="1414" y="1283" type="line"/>
      <point x="2731" y="1283" type="line"/>
      <point x="2731" y="1136" type="line"/>
    </contour>
    <contour>
      <point x="629" y="783" type="curve"/>
      <point x="684" y="619" type="line"/>
      <point x="682" y="619"/>
      <point x="680" y="619"/>
      <point x="678" y="619" type="curve" smooth="yes"/>
      <point x="470" y="618"/>
      <point x="395" y="514"/>
      <point x="395" y="416" type="curve" smooth="yes"/>
      <point x="395" y="306"/>
      <point x="488" y="217"/>
      <point x="664" y="217" type="curve" smooth="yes"/>
      <point x="943" y="217"/>
      <point x="1212" y="457"/>
      <point x="1212" y="661" type="curve" smooth="yes"/>
      <point x="1212" y="773"/>
      <point x="1151" y="835"/>
      <point x="1075" y="835" type="curve" smooth="yes"/>
      <point x="1010" y="835"/>
      <point x="961" y="771"/>
      <point x="961" y="695" type="curve" smooth="yes"/>
      <point x="961" y="600"/>
      <point x="1027" y="513"/>
      <point x="1214" y="386" type="curve"/>
      <point x="1115" y="287" type="line"/>
      <point x="890" y="429"/>
      <point x="785" y="561"/>
      <point x="785" y="723" type="curve" smooth="yes"/>
      <point x="785" y="850"/>
      <point x="875" y="972"/>
      <point x="1045" y="972" type="curve" smooth="yes"/>
      <point x="1243" y="972"/>
      <point x="1384" y="857"/>
      <point x="1384" y="641" type="curve" smooth="yes"/>
      <point x="1384" y="366"/>
      <point x="1076" y="53"/>
      <point x="675" y="53" type="curve" smooth="yes"/>
      <point x="347" y="53"/>
      <point x="188" y="240"/>
      <point x="188" y="446" type="curve" smooth="yes"/>
      <point x="188" y="626"/>
      <point x="337" y="782"/>
      <point x="625" y="783" type="curve" smooth="yes"/>
      <point x="627" y="783"/>
      <point x="627" y="783"/>
    </contour>
    <contour>
      <point x="526" y="746" type="curve"/>
      <point x="378" y="633" type="line"/>
      <point x="174" y="693"/>
      <point x="89" y="814"/>
      <point x="89" y="969" type="curve" smooth="yes"/>
      <point x="89" y="1088"/>
      <point x="185" y="1233"/>
      <point x="438" y="1263" type="curve"/>
      <point x="530" y="1156" type="line"/>
      <point x="362" y="1134"/>
      <point x="293" y="1034"/>
      <point x="293" y="947" type="curve" smooth="yes"/>
      <point x="293" y="862"/>
      <point x="343" y="778"/>
    </contour>
    <contour>
      <point x="1498" y="1136" type="line"/>
      <point x="-60" y="1136" type="line"/>
      <point x="-60" y="1283" type="line"/>
      <point x="1498" y="1283" type="line"/>
    </contour>
  </outline>
</glyph>
<glyph name="dabhaaltdeva" format="1">
  <advance width="1875"/>
  <outline>
    <contour>
      <point x="0" y="0" type="line"/>
      <point x="1875" y="0" type="line"/>
      <point x="1875" y="20" type="line"/>
      <point x="0" y="20" type="line"/>
    </contour>
  </outline>
</glyph>
<glyph name="dadadeva" format="1">
  <advance width="1105"/>
  <outline>
    <contour>
      <point x="807" y="-64" type="line"/>
      <point x="964" y="-9" type="line"/>
      <point x="1147" y="-372" type="line"/>
      <point x="989" y="-426" type="line"/>
    </contour>
    <contour>
      <point x="1184" y="1136" type="line"/>
      <point x="-45" y="1136" type="line"/>
      <point x="-45" y="1283" type="line"/>
      <point x="1184" y="1283" type="line"/>
    </contour>
    <contour>
      <point x="420" y="230" type="curve" smooth="yes"/>
      <point x="420" y="101"/>
      <point x="545" y="9"/>
      <point x="697" y="9" type="curve" smooth="yes"/>
      <point x="747" y="9"/>
      <point x="800" y="15"/>
      <point x="885" y="48" type="curve"/>
      <point x="791" y="-30" type="line"/>
      <point x="761" y="20"/>
      <point x="747" y="70"/>
      <point x="747" y="102" type="curve" smooth="yes"/>
      <point x="747" y="146"/>
      <point x="781" y="190"/>
      <point x="862" y="190" type="curve" smooth="yes"/>
      <point x="1010" y="190"/>
      <point x="1114" y="123"/>
      <point x="1114" y="54" type="curve" smooth="yes"/>
      <point x="1114" y="-33"/>
      <point x="955" y="-137"/>
      <point x="718" y="-137" type="curve" smooth="yes"/>
      <point x="420" y="-137"/>
      <point x="224" y="32"/>
      <point x="224" y="261" type="curve" smooth="yes"/>
      <point x="224" y="474"/>
      <point x="425" y="594"/>
      <point x="673" y="593" type="curve" smooth="yes"/>
      <point x="793" y="593"/>
      <point x="868" y="575"/>
      <point x="962" y="544" type="curve"/>
      <point x="931" y="407" type="line"/>
      <point x="849" y="428"/>
      <point x="803" y="438"/>
      <point x="702" y="438" type="curve" smooth="yes"/>
      <point x="524" y="438"/>
      <point x="420" y="356"/>
    </contour>
    <contour>
      <point x="499" y="537" type="curve"/>
      <point x="392" y="427" type="line"/>
      <point x="226" y="499"/>
      <point x="151" y="607"/>
      <point x="151" y="729" type="curve" smooth="yes"/>
      <point x="151" y="845"/>
      <point x="239" y="949"/>
      <point x="448" y="949" type="curve" smooth="yes"/>
      <point x="767" y="949" type="line"/>
      <point x="715" y="897" type="line"/>
      <point x="715" y="1167" type="line"/>
      <point x="916" y="1167" type="line"/>
      <point x="916" y="804" type="line"/>
      <point x="498" y="804" type="line"/>
      <point x="387" y="804"/>
      <point x="344" y="756"/>
      <point x="344" y="692" type="curve" smooth="yes"/>
      <point x="344" y="629"/>
      <point x="392" y="578"/>
    </contour>
    <contour>
      <point x="914" y="-13" type="move" name="mark0"/>
    </contour>
  </outline>
</glyph>
<glyph name="dadhadeva" format="1">
  <advance width="1418"/>
  <outline>
    <contour>
      <point x="997" y="194" type="line"/>
      <point x="1154" y="248" type="line"/>
      <point x="1397" y="-231" type="line"/>
      <point x="1244" y="-295" type="line"/>
    </contour>
    <contour>
      <point x="745" y="194" type="line"/>
      <point x="614" y="133"/>
      <point x="577" y="49"/>
      <point x="577" y="-13" type="curve" smooth="yes"/>
      <point x="576" y="-89"/>
      <point x="629" y="-141"/>
      <point x="714" y="-140" type="curve" smooth="yes"/>
      <point x="863" y="-139"/>
      <point x="989" y="-3"/>
      <point x="1005" y="203" type="curve"/>
      <point x="1128" y="-25" type="line"/>
      <point x="1046" y="-185"/>
      <point x="899" y="-293"/>
      <point x="728" y="-293" type="curve" smooth="yes"/>
      <point x="527" y="-293"/>
      <point x="403" y="-176"/>
      <point x="403" y="-12" type="curve" smooth="yes"/>
      <point x="403" y="96"/>
      <point x="453" y="204"/>
      <point x="624" y="305" type="curve"/>
    </contour>
    <contour>
      <point x="-39" y="1136" type="line"/>
      <point x="-39" y="1283" type="line"/>
      <point x="1434" y="1283" type="line"/>
      <point x="1434" y="1136" type="line"/>
    </contour>
    <contour>
      <point x="908" y="121" type="curve" smooth="yes"/>
      <point x="613" y="121"/>
      <point x="405" y="307"/>
      <point x="405" y="535" type="curve" smooth="yes"/>
      <point x="405" y="732"/>
      <point x="557" y="887"/>
      <point x="855" y="887" type="curve" smooth="yes"/>
      <point x="1035" y="887" type="line"/>
      <point x="990" y="836" type="line"/>
      <point x="990" y="1177" type="line"/>
      <point x="1192" y="1177" type="line"/>
      <point x="1192" y="728" type="line"/>
      <point x="937" y="728" type="line"/>
      <point x="694" y="728"/>
      <point x="606" y="623"/>
      <point x="606" y="494" type="curve" smooth="yes"/>
      <point x="606" y="370"/>
      <point x="735" y="267"/>
      <point x="888" y="267" type="curve" smooth="yes"/>
      <point x="937" y="267"/>
      <point x="990" y="273"/>
      <point x="1075" y="305" type="curve"/>
      <point x="981" y="228" type="line"/>
      <point x="951" y="278"/>
      <point x="937" y="328"/>
      <point x="937" y="360" type="curve" smooth="yes"/>
      <point x="937" y="404"/>
      <point x="971" y="448"/>
      <point x="1052" y="448" type="curve" smooth="yes"/>
      <point x="1201" y="448"/>
      <point x="1304" y="381"/>
      <point x="1304" y="312" type="curve" smooth="yes"/>
      <point x="1304" y="225"/>
      <point x="1152" y="121"/>
    </contour>
    <contour>
      <point x="485" y="96" type="line"/>
      <point x="427" y="64"/>
      <point x="365" y="49"/>
      <point x="283" y="49" type="curve" smooth="yes"/>
      <point x="98" y="49"/>
      <point x="-27" y="165"/>
      <point x="-27" y="317" type="curve" smooth="yes"/>
      <point x="-27" y="422"/>
      <point x="17" y="516"/>
      <point x="113" y="594" type="curve"/>
      <point x="236" y="500" type="line"/>
      <point x="180" y="438"/>
      <point x="157" y="387"/>
      <point x="157" y="327" type="curve" smooth="yes"/>
      <point x="157" y="244"/>
      <point x="220" y="187"/>
      <point x="322" y="188" type="curve" smooth="yes"/>
      <point x="414" y="189"/>
      <point x="484" y="214"/>
      <point x="556" y="252" type="curve"/>
    </contour>
    <contour>
      <point x="1678" y="-13" type="move" name="mark0"/>
    </contour>
  </outline>
</glyph>
<glyph name="daghadeva" format="1">
  <advance width="1413"/>
  <outline>
    <contour>
      <point x="992" y="194" type="line"/>
      <point x="1149" y="248" type="line"/>
      <point x="1392" y="-231" type="line"/>
      <point x="1239" y="-295" type="line"/>
    </contour>
    <contour>
      <point x="740" y="194" type="line"/>
      <point x="610" y="133"/>
      <point x="572" y="49"/>
      <point x="572" y="-13" type="curve" smooth="yes"/>
      <point x="571" y="-89"/>
      <point x="624" y="-141"/>
      <point x="709" y="-140" type="curve" smooth="yes"/>
      <point x="858" y="-139"/>
      <point x="984" y="-3"/>
      <point x="1000" y="203" type="curve"/>
      <point x="1123" y="-25" type="line"/>
      <point x="1041" y="-185"/>
      <point x="894" y="-293"/>
      <point x="723" y="-293" type="curve" smooth="yes"/>
      <point x="522" y="-293"/>
      <point x="398" y="-176"/>
      <point x="398" y="-12" type="curve" smooth="yes"/>
      <point x="398" y="96"/>
      <point x="448" y="204"/>
      <point x="619" y="305" type="curve"/>
    </contour>
    <contour>
      <point x="515" y="91" type="line"/>
      <point x="461" y="59"/>
      <point x="398" y="43"/>
      <point x="305" y="43" type="curve" smooth="yes"/>
      <point x="131" y="43"/>
      <point x="0" y="155"/>
      <point x="0" y="323" type="curve" smooth="yes"/>
      <point x="0" y="472"/>
      <point x="131" y="603"/>
      <point x="343" y="603" type="curve" smooth="yes"/>
      <point x="408" y="603"/>
      <point x="452" y="596"/>
      <point x="509" y="582" type="curve"/>
      <point x="507" y="450" type="line"/>
      <point x="468" y="461"/>
      <point x="422" y="469"/>
      <point x="378" y="469" type="curve" smooth="yes"/>
      <point x="252" y="469"/>
      <point x="184" y="394"/>
      <point x="184" y="313" type="curve" smooth="yes"/>
      <point x="184" y="230"/>
      <point x="249" y="180"/>
      <point x="331" y="180" type="curve" smooth="yes"/>
      <point x="421" y="181"/>
      <point x="478" y="204"/>
      <point x="552" y="248" type="curve"/>
    </contour>
    <contour>
      <point x="-70" y="1136" type="line"/>
      <point x="-70" y="1283" type="line"/>
      <point x="1429" y="1283" type="line"/>
      <point x="1429" y="1136" type="line"/>
    </contour>
    <contour>
      <point x="903" y="121" type="curve" smooth="yes"/>
      <point x="609" y="121"/>
      <point x="400" y="307"/>
      <point x="400" y="535" type="curve" smooth="yes"/>
      <point x="400" y="732"/>
      <point x="553" y="887"/>
      <point x="850" y="887" type="curve" smooth="yes"/>
      <point x="1030" y="887" type="line"/>
      <point x="986" y="836" type="line"/>
      <point x="986" y="1177" type="line"/>
      <point x="1188" y="1177" type="line"/>
      <point x="1188" y="728" type="line"/>
      <point x="932" y="728" type="line"/>
      <point x="690" y="728"/>
      <point x="602" y="623"/>
      <point x="602" y="494" type="curve" smooth="yes"/>
      <point x="602" y="370"/>
      <point x="730" y="267"/>
      <point x="883" y="267" type="curve" smooth="yes"/>
      <point x="932" y="267"/>
      <point x="985" y="273"/>
      <point x="1070" y="305" type="curve"/>
      <point x="976" y="228" type="line"/>
      <point x="946" y="278"/>
      <point x="932" y="328"/>
      <point x="932" y="360" type="curve" smooth="yes"/>
      <point x="932" y="404"/>
      <point x="967" y="448"/>
      <point x="1047" y="448" type="curve" smooth="yes"/>
      <point x="1196" y="448"/>
      <point x="1299" y="381"/>
      <point x="1299" y="312" type="curve" smooth="yes"/>
      <point x="1299" y="225"/>
      <point x="1148" y="121"/>
    </contour>
    <contour>
      <point x="1492" y="-13" type="move" name="mark0"/>
    </contour>
  </outline>
</glyph>
<glyph name="damadeva" format="1">
  <advance width="1661"/>
  <outline>
    <contour>
      <point x="1229" y="1169" type="line"/>
      <point x="1440" y="1169" type="line"/>
      <point x="1440" y="0" type="line"/>
      <point x="1229" y="0" type="line"/>
    </contour>
    <contour>
      <point x="1283" y="395" type="line"/>
      <point x="1283" y="233" type="line"/>
      <point x="874" y="233" type="line"/>
      <point x="913" y="267" type="line"/>
      <point x="913" y="149" type="line"/>
      <point x="913" y="92"/>
      <point x="893" y="62"/>
      <point x="836" y="62" type="curve" smooth="yes"/>
      <point x="731" y="62"/>
      <point x="585" y="237"/>
      <point x="585" y="313" type="curve" smooth="yes"/>
      <point x="585" y="367"/>
      <point x="610" y="395"/>
      <point x="665" y="395" type="curve" smooth="yes"/>
    </contour>
    <contour>
      <point x="1678" y="1136" type="line"/>
      <point x="-77" y="1136" type="line"/>
      <point x="-77" y="1283" type="line"/>
      <point x="1678" y="1283" type="line"/>
    </contour>
    <contour>
      <point x="631" y="1167" type="line"/>
      <point x="832" y="1167" type="line"/>
      <point x="832" y="813" type="line"/>
      <point x="450" y="813" type="line"/>
      <point x="336" y="813"/>
      <point x="298" y="776"/>
      <point x="298" y="717" type="curve" smooth="yes"/>
      <point x="298" y="660"/>
      <point x="349" y="625"/>
      <point x="427" y="625" type="curve" smooth="yes"/>
      <point x="590" y="625" type="line"/>
      <point x="813" y="625"/>
      <point x="910" y="504"/>
      <point x="912" y="360" type="curve" smooth="yes"/>
      <point x="913" y="294" type="line"/>
      <point x="719" y="289" type="line"/>
      <point x="719" y="362" type="line"/>
      <point x="719" y="432"/>
      <point x="677" y="474"/>
      <point x="572" y="474" type="curve" smooth="yes"/>
      <point x="405" y="474" type="line"/>
      <point x="212" y="474"/>
      <point x="107" y="598"/>
      <point x="107" y="730" type="curve" smooth="yes"/>
      <point x="107" y="866"/>
      <point x="195" y="958"/>
      <point x="403" y="958" type="curve" smooth="yes"/>
      <point x="683" y="958" type="line"/>
      <point x="631" y="906" type="line"/>
    </contour>
  </outline>
</glyph>
<glyph name="davadeva" format="1">
  <advance width="1105"/>
  <outline>
    <contour>
      <point x="685" y="194" type="line"/>
      <point x="842" y="248" type="line"/>
      <point x="1084" y="-231" type="line"/>
      <point x="932" y="-295" type="line"/>
    </contour>
    <contour>
      <point x="411" y="223" type="line"/>
      <point x="281" y="165"/>
      <point x="235" y="76"/>
      <point x="234" y="0" type="curve" smooth="yes"/>
      <point x="234" y="-84"/>
      <point x="302" y="-144"/>
      <point x="399" y="-144" type="curve" smooth="yes"/>
      <point x="547" y="-144"/>
      <point x="685" y="-3"/>
      <point x="706" y="195" type="curve"/>
      <point x="824" y="-38" type="line"/>
      <point x="734" y="-188"/>
      <point x="595" y="-291"/>
      <point x="408" y="-291" type="curve" smooth="yes"/>
      <point x="216" y="-291"/>
      <point x="55" y="-158"/>
      <point x="55" y="12" type="curve" smooth="yes"/>
      <point x="55" y="135"/>
      <point x="113" y="240"/>
      <point x="268" y="330" type="curve"/>
    </contour>
    <contour>
      <point x="-200" y="1136" type="line"/>
      <point x="-200" y="1283" type="line"/>
      <point x="1122" y="1283" type="line"/>
      <point x="1122" y="1136" type="line"/>
    </contour>
    <contour>
      <point x="596" y="121" type="curve" smooth="yes"/>
      <point x="301" y="121"/>
      <point x="92" y="307"/>
      <point x="92" y="535" type="curve" smooth="yes"/>
      <point x="92" y="732"/>
      <point x="245" y="887"/>
      <point x="543" y="887" type="curve" smooth="yes"/>
      <point x="723" y="887" type="line"/>
      <point x="678" y="836" type="line"/>
      <point x="678" y="1177" type="line"/>
      <point x="880" y="1177" type="line"/>
      <point x="880" y="728" type="line"/>
      <point x="625" y="728" type="line"/>
      <point x="382" y="728"/>
      <point x="294" y="623"/>
      <point x="294" y="494" type="curve" smooth="yes"/>
      <point x="294" y="370"/>
      <point x="423" y="267"/>
      <point x="575" y="267" type="curve" smooth="yes"/>
      <point x="625" y="267"/>
      <point x="678" y="273"/>
      <point x="763" y="305" type="curve"/>
      <point x="669" y="228" type="line"/>
      <point x="639" y="278"/>
      <point x="625" y="328"/>
      <point x="625" y="360" type="curve" smooth="yes"/>
      <point x="625" y="404"/>
      <point x="659" y="448"/>
      <point x="740" y="448" type="curve" smooth="yes"/>
      <point x="889" y="448"/>
      <point x="992" y="381"/>
      <point x="992" y="312" type="curve" smooth="yes"/>
      <point x="992" y="225"/>
      <point x="840" y="121"/>
    </contour>
    <contour>
      <point x="1000" y="-13" type="move" name="mark0"/>
    </contour>
  </outline>
</glyph>
<glyph name="dayadeva" format="1">
  <advance width="1357"/>
  <outline>
    <contour>
      <point x="392" y="1181" type="line"/>
      <point x="603" y="1181" type="line"/>
      <point x="603" y="920" type="line"/>
      <point x="392" y="920" type="line"/>
    </contour>
    <contour>
      <point x="735" y="529" type="line"/>
      <point x="725" y="528" type="line"/>
      <point x="516" y="522"/>
      <point x="453" y="455"/>
      <point x="453" y="376" type="curve" smooth="yes"/>
      <point x="453" y="303"/>
      <point x="522" y="248"/>
      <point x="629" y="249" type="curve" smooth="yes"/>
      <point x="759" y="250"/>
      <point x="888" y="321"/>
      <point x="969" y="430" type="curve"/>
      <point x="970" y="187" type="line"/>
      <point x="882" y="131"/>
      <point x="767" y="100"/>
      <point x="652" y="100" type="curve" smooth="yes"/>
      <point x="413" y="100"/>
      <point x="263" y="239"/>
      <point x="263" y="399" type="curve" smooth="yes"/>
      <point x="263" y="530"/>
      <point x="376" y="670"/>
      <point x="672" y="670" type="curve" smooth="yes"/>
      <point x="682" y="670" type="line"/>
    </contour>
    <contour>
      <point x="366" y="499" type="line"/>
      <point x="163" y="530"/>
      <point x="34" y="646"/>
      <point x="34" y="786" type="curve" smooth="yes"/>
      <point x="34" y="925"/>
      <point x="164" y="1010"/>
      <point x="362" y="1010" type="curve" smooth="yes"/>
      <point x="483" y="1010"/>
      <point x="517" y="1010"/>
      <point x="603" y="1004" type="curve"/>
      <point x="603" y="885" type="line"/>
      <point x="555" y="885"/>
      <point x="496" y="885"/>
      <point x="432" y="885" type="curve" smooth="yes"/>
      <point x="299" y="885"/>
      <point x="239" y="833"/>
      <point x="239" y="756" type="curve" smooth="yes"/>
      <point x="239" y="683"/>
      <point x="330" y="610"/>
      <point x="514" y="609" type="curve"/>
    </contour>
    <contour>
      <point x="926" y="1168" type="line"/>
      <point x="1136" y="1168" type="line"/>
      <point x="1136" y="0" type="line"/>
      <point x="926" y="0" type="line"/>
    </contour>
    <contour>
      <point x="1373" y="1136" type="line"/>
      <point x="-50" y="1136" type="line"/>
      <point x="-50" y="1283" type="line"/>
      <point x="1373" y="1283" type="line"/>
    </contour>
  </outline>
</glyph>
<glyph name="dayaprehalfdeva" format="1">
  <advance width="920"/>
  <outline>
    <contour>
      <point x="391" y="1181" type="line"/>
      <point x="602" y="1181" type="line"/>
      <point x="602" y="920" type="line"/>
      <point x="391" y="920" type="line"/>
    </contour>
    <contour>
      <point x="730" y="529" type="line"/>
      <point x="720" y="528" type="line"/>
      <point x="511" y="522"/>
      <point x="448" y="455"/>
      <point x="448" y="376" type="curve" smooth="yes"/>
      <point x="448" y="303"/>
      <point x="517" y="248"/>
      <point x="624" y="249" type="curve" smooth="yes"/>
      <point x="788" y="250"/>
      <point x="923" y="348"/>
      <point x="1095" y="556" type="curve"/>
      <point x="1224" y="430" type="line"/>
      <point x="1073" y="255"/>
      <point x="907" y="100"/>
      <point x="647" y="100" type="curve" smooth="yes"/>
      <point x="408" y="100"/>
      <point x="258" y="239"/>
      <point x="258" y="399" type="curve" smooth="yes"/>
      <point x="258" y="530"/>
      <point x="372" y="670"/>
      <point x="667" y="670" type="curve" smooth="yes"/>
      <point x="677" y="670" type="line"/>
    </contour>
    <contour>
      <point x="366" y="499" type="line"/>
      <point x="163" y="530"/>
      <point x="33" y="646"/>
      <point x="33" y="786" type="curve" smooth="yes"/>
      <point x="33" y="925"/>
      <point x="164" y="1010"/>
      <point x="361" y="1010" type="curve" smooth="yes"/>
      <point x="482" y="1010"/>
      <point x="517" y="1010"/>
      <point x="602" y="1004" type="curve"/>
      <point x="602" y="885" type="line"/>
      <point x="554" y="885"/>
      <point x="496" y="885"/>
      <point x="432" y="885" type="curve" smooth="yes"/>
      <point x="299" y="885"/>
      <point x="239" y="833"/>
      <point x="239" y="756" type="curve" smooth="yes"/>
      <point x="239" y="683"/>
      <point x="330" y="610"/>
      <point x="514" y="609" type="curve"/>
    </contour>
    <contour>
      <point x="1170" y="1136" type="line"/>
      <point x="-51" y="1136" type="line"/>
      <point x="-51" y="1283" type="line"/>
      <point x="1170" y="1283" type="line"/>
    </contour>
  </outline>
</glyph>
<glyph name="ddaddhadeva" format="1">
  <advance width="1109"/>
  <outline>
    <contour>
      <point x="642" y="251" type="line"/>
      <point x="830" y="251" type="line"/>
      <point x="830" y="-73" type="line"/>
      <point x="596" y="-73" type="line"/>
      <point x="382" y="-73"/>
      <point x="303" y="-162"/>
      <point x="303" y="-286" type="curve" smooth="yes"/>
      <point x="303" y="-410"/>
      <point x="443" y="-525"/>
      <point x="636" y="-525" type="curve" smooth="yes"/>
      <point x="787" y="-525"/>
      <point x="853" y="-469"/>
      <point x="853" y="-406" type="curve" smooth="yes"/>
      <point x="853" y="-358"/>
      <point x="815" y="-325"/>
      <point x="755" y="-325" type="curve" smooth="yes"/>
      <point x="681" y="-325"/>
      <point x="626" y="-374"/>
      <point x="626" y="-444" type="curve" smooth="yes"/>
      <point x="626" y="-486"/>
      <point x="639" y="-525"/>
      <point x="662" y="-566" type="curve"/>
      <point x="518" y="-579" type="line"/>
      <point x="483" y="-525"/>
      <point x="471" y="-480"/>
      <point x="471" y="-418" type="curve" smooth="yes"/>
      <point x="471" y="-312"/>
      <point x="565" y="-209"/>
      <point x="740" y="-209" type="curve" smooth="yes"/>
      <point x="911" y="-209"/>
      <point x="1010" y="-293"/>
      <point x="1010" y="-415" type="curve" smooth="yes"/>
      <point x="1010" y="-527"/>
      <point x="895" y="-637"/>
      <point x="651" y="-637" type="curve" smooth="yes"/>
      <point x="315" y="-637"/>
      <point x="124" y="-441"/>
      <point x="124" y="-251" type="curve" smooth="yes"/>
      <point x="124" y="-78"/>
      <point x="247" y="56"/>
      <point x="526" y="56" type="curve" smooth="yes"/>
      <point x="680" y="56" type="line"/>
      <point x="642" y="27" type="line"/>
    </contour>
    <contour>
      <point x="690" y="1202" type="line"/>
      <point x="884" y="1202" type="line"/>
      <point x="884" y="848" type="line"/>
      <point x="495" y="848" type="line"/>
      <point x="392" y="848"/>
      <point x="360" y="810"/>
      <point x="360" y="750" type="curve" smooth="yes"/>
      <point x="360" y="699"/>
      <point x="402" y="660"/>
      <point x="481" y="627" type="curve"/>
      <point x="401" y="634" type="line"/>
      <point x="506" y="680"/>
      <point x="570" y="693"/>
      <point x="661" y="693" type="curve" smooth="yes"/>
      <point x="865" y="693"/>
      <point x="981" y="584"/>
      <point x="981" y="437" type="curve" smooth="yes"/>
      <point x="981" y="285"/>
      <point x="847" y="175"/>
      <point x="596" y="175" type="curve" smooth="yes"/>
      <point x="433" y="175"/>
      <point x="306" y="217"/>
      <point x="127" y="311" type="curve"/>
      <point x="160" y="455" type="line"/>
      <point x="332" y="356"/>
      <point x="468" y="313"/>
      <point x="580" y="313" type="curve" smooth="yes"/>
      <point x="716" y="313"/>
      <point x="800" y="369"/>
      <point x="800" y="440" type="curve" smooth="yes"/>
      <point x="800" y="508"/>
      <point x="749" y="546"/>
      <point x="650" y="546" type="curve" smooth="yes"/>
      <point x="572" y="546"/>
      <point x="518" y="530"/>
      <point x="442" y="496" type="curve"/>
      <point x="429" y="496" type="line"/>
      <point x="249" y="576"/>
      <point x="177" y="676"/>
      <point x="177" y="785" type="curve" smooth="yes"/>
      <point x="177" y="893"/>
      <point x="259" y="980"/>
      <point x="451" y="980" type="curve" smooth="yes"/>
      <point x="741" y="980" type="line"/>
      <point x="690" y="934" type="line"/>
    </contour>
    <contour>
      <point x="1133" y="1136" type="line"/>
      <point x="-26" y="1136" type="line"/>
      <point x="-26" y="1283" type="line"/>
      <point x="1133" y="1283" type="line"/>
    </contour>
    <contour>
      <point x="998" y="1261" type="move" name="mark0"/>
    </contour>
  </outline>
</glyph>
<glyph name="gaprehalfdeva" format="1">
  <advance width="732"/>
  <outline>
    <contour>
      <point x="486" y="1171" type="line"/>
      <point x="486" y="429" type="line" smooth="yes"/>
      <point x="486" y="366"/>
      <point x="470" y="334"/>
      <point x="411" y="334" type="curve" smooth="yes"/>
      <point x="308" y="334"/>
      <point x="104" y="504"/>
      <point x="102" y="594" type="curve" smooth="yes"/>
      <point x="102" y="640"/>
      <point x="126" y="671"/>
      <point x="191" y="671" type="curve" smooth="yes"/>
      <point x="311" y="671" type="line"/>
      <point x="275" y="636" type="line"/>
      <point x="275" y="1171" type="line"/>
    </contour>
    <contour>
      <point x="830" y="1136" type="line"/>
      <point x="-50" y="1136" type="line"/>
      <point x="-50" y="1283" type="line"/>
      <point x="830" y="1283" type="line"/>
    </contour>
  </outline>
</glyph>
<glyph name="garadeva" format="1">
  <advance width="1316"/>
  <outline>
    <contour>
      <point x="1025" y="361" type="line"/>
      <point x="379" y="-78" type="line"/>
      <point x="279" y="71" type="line"/>
      <point x="925" y="499" type="line"/>
    </contour>
    <contour>
      <point x="505" y="1171" type="line"/>
      <point x="505" y="460" type="line" smooth="yes"/>
      <point x="505" y="397"/>
      <point x="489" y="364"/>
      <point x="430" y="364" type="curve" smooth="yes"/>
      <point x="327" y="364"/>
      <point x="123" y="534"/>
      <point x="122" y="625" type="curve" smooth="yes"/>
      <point x="121" y="671"/>
      <point x="146" y="702"/>
      <point x="211" y="702" type="curve" smooth="yes"/>
      <point x="330" y="702" type="line"/>
      <point x="295" y="667" type="line"/>
      <point x="295" y="1171" type="line"/>
    </contour>
    <contour>
      <point x="889" y="1169" type="line"/>
      <point x="1099" y="1169" type="line"/>
      <point x="1099" y="0" type="line"/>
      <point x="889" y="0" type="line"/>
    </contour>
    <contour>
      <point x="1336" y="1136" type="line"/>
      <point x="-28" y="1136" type="line"/>
      <point x="-28" y="1283" type="line"/>
      <point x="1336" y="1283" type="line"/>
    </contour>
  </outline>
</glyph>
<glyph name="ghaprehalfdeva" format="1">
  <advance width="819"/>
  <outline>
    <contour>
      <point x="406" y="734" type="line"/>
      <point x="197" y="789"/>
      <point x="102" y="913"/>
      <point x="102" y="1055" type="curve" smooth="yes"/>
      <point x="102" y="1120"/>
      <point x="118" y="1176"/>
      <point x="161" y="1231" type="curve"/>
      <point x="364" y="1182" type="line"/>
      <point x="323" y="1128"/>
      <point x="313" y="1091"/>
      <point x="313" y="1037" type="curve" smooth="yes"/>
      <point x="313" y="953"/>
      <point x="370" y="872"/>
      <point x="565" y="852" type="curve"/>
    </contour>
    <contour>
      <point x="-44" y="1136" type="line"/>
      <point x="-44" y="1283" type="line"/>
      <point x="980" y="1283" type="line"/>
      <point x="980" y="1136" type="line"/>
    </contour>
    <contour>
      <point x="862" y="734" type="curve"/>
      <point x="947" y="614" type="line"/>
      <point x="755" y="541"/>
      <point x="643" y="440"/>
      <point x="532" y="371" type="curve" smooth="yes"/>
      <point x="405" y="303"/>
      <point x="386" y="351"/>
      <point x="454" y="440" type="curve" smooth="yes"/>
      <point x="536" y="518"/>
      <point x="667" y="645"/>
      <point x="890" y="715" type="curve"/>
      <point x="890" y="715"/>
      <point x="919" y="680"/>
      <point x="920" y="680" type="curve"/>
      <point x="827" y="601"/>
      <point x="796" y="436"/>
      <point x="708" y="436" type="curve" smooth="yes"/>
      <point x="603" y="436"/>
      <point x="528" y="501"/>
      <point x="527" y="600" type="curve" smooth="yes"/>
      <point x="475" y="679"/>
      <point x="491" y="736"/>
      <point x="641" y="703" type="curve" smooth="yes"/>
      <point x="641" y="682"/>
      <point x="665" y="667"/>
      <point x="695" y="667" type="curve"/>
      <point x="756" y="667"/>
      <point x="826" y="669"/>
    </contour>
  </outline>
</glyph>
<glyph name="haladeva" format="1">
  <advance width="1507"/>
  <outline>
    <contour>
      <point x="1226" y="335" type="line"/>
      <point x="1226" y="166" type="line"/>
      <point x="974" y="-50" type="line"/>
      <point x="875" y="48" type="line"/>
    </contour>
    <contour>
      <point x="1098" y="155" type="curve"/>
      <point x="1011" y="81" type="line"/>
      <point x="951" y="155"/>
      <point x="908" y="182"/>
      <point x="846" y="182" type="curve" smooth="yes"/>
      <point x="784" y="182"/>
      <point x="737" y="135"/>
      <point x="737" y="79" type="curve" smooth="yes"/>
      <point x="736" y="14"/>
      <point x="766" y="-35"/>
      <point x="851" y="-108" type="curve"/>
      <point x="751" y="-163" type="line"/>
      <point x="650" y="-79"/>
      <point x="594" y="9"/>
      <point x="594" y="105" type="curve" smooth="yes"/>
      <point x="594" y="215"/>
      <point x="674" y="304"/>
      <point x="812" y="304" type="curve" smooth="yes"/>
      <point x="930" y="304"/>
      <point x="1000" y="259"/>
    </contour>
    <contour>
      <point x="1568" y="1136" type="line"/>
      <point x="-18" y="1136" type="line"/>
      <point x="-18" y="1283" type="line"/>
      <point x="1568" y="1283" type="line"/>
    </contour>
    <contour>
      <point x="1117" y="1146" type="line"/>
      <point x="1327" y="1146" type="line"/>
      <point x="1327" y="804" type="line"/>
      <point x="464" y="804" type="line"/>
      <point x="340" y="804"/>
      <point x="299" y="746"/>
      <point x="299" y="683" type="curve" smooth="yes"/>
      <point x="299" y="629"/>
      <point x="342" y="574"/>
      <point x="456" y="528" type="curve"/>
      <point x="319" y="418" type="line"/>
      <point x="168" y="507"/>
      <point x="98" y="605"/>
      <point x="98" y="725" type="curve" smooth="yes"/>
      <point x="98" y="846"/>
      <point x="188" y="951"/>
      <point x="390" y="951" type="curve" smooth="yes"/>
      <point x="1156" y="951" type="line"/>
      <point x="1117" y="898" type="line"/>
    </contour>
    <contour>
      <point x="763" y="455" type="curve" smooth="yes"/>
      <point x="471" y="455"/>
      <point x="346" y="300"/>
      <point x="346" y="130" type="curve" smooth="yes"/>
      <point x="346" y="-16"/>
      <point x="435" y="-153"/>
      <point x="723" y="-354" type="curve"/>
      <point x="603" y="-455" type="line"/>
      <point x="287" y="-239"/>
      <point x="167" y="-42"/>
      <point x="167" y="169" type="curve" smooth="yes"/>
      <point x="167" y="387"/>
      <point x="335" y="616"/>
      <point x="750" y="616" type="curve" smooth="yes"/>
      <point x="1174" y="616"/>
      <point x="1389" y="435"/>
      <point x="1389" y="170" type="curve" smooth="yes"/>
      <point x="1389" y="-254" type="line"/>
      <point x="1200" y="-254" type="line"/>
      <point x="1200" y="187" type="line"/>
      <point x="1200" y="349"/>
      <point x="1056" y="455"/>
    </contour>
    <contour>
      <point x="1213" y="1261" type="move" name="mark0"/>
    </contour>
  </outline>
</glyph>
<glyph name="hanadeva" format="1">
  <advance width="1406"/>
  <outline>
    <contour>
      <point x="346" y="135" type="curve" smooth="yes"/>
      <point x="346" y="-20"/>
      <point x="446" y="-161"/>
      <point x="723" y="-354" type="curve"/>
      <point x="603" y="-455" type="line"/>
      <point x="293" y="-242"/>
      <point x="169" y="-51"/>
      <point x="169" y="173" type="curve" smooth="yes"/>
      <point x="169" y="392"/>
      <point x="342" y="616"/>
      <point x="710" y="616" type="curve" smooth="yes"/>
      <point x="1113" y="616"/>
      <point x="1314" y="435"/>
      <point x="1314" y="170" type="curve" smooth="yes"/>
      <point x="1314" y="-254" type="line"/>
      <point x="1125" y="-254" type="line"/>
      <point x="1125" y="187" type="line"/>
      <point x="1125" y="349"/>
      <point x="994" y="455"/>
      <point x="724" y="455" type="curve" smooth="yes"/>
      <point x="478" y="455"/>
      <point x="346" y="310"/>
    </contour>
    <contour>
      <point x="1436" y="1136" type="line"/>
      <point x="-18" y="1136" type="line"/>
      <point x="-18" y="1283" type="line"/>
      <point x="1436" y="1283" type="line"/>
    </contour>
    <contour>
      <point x="1011" y="1146" type="line"/>
      <point x="1221" y="1146" type="line"/>
      <point x="1221" y="804" type="line"/>
      <point x="464" y="804" type="line"/>
      <point x="340" y="804"/>
      <point x="299" y="746"/>
      <point x="299" y="683" type="curve" smooth="yes"/>
      <point x="299" y="629"/>
      <point x="342" y="574"/>
      <point x="456" y="528" type="curve"/>
      <point x="319" y="418" type="line"/>
      <point x="168" y="507"/>
      <point x="98" y="605"/>
      <point x="98" y="725" type="curve" smooth="yes"/>
      <point x="98" y="846"/>
      <point x="188" y="951"/>
      <point x="390" y="951" type="curve" smooth="yes"/>
      <point x="1050" y="951" type="line"/>
      <point x="1011" y="898" type="line"/>
    </contour>
    <contour>
      <point x="1235" y="243" type="line"/>
      <point x="1235" y="90" type="line"/>
      <point x="821" y="90" type="line"/>
      <point x="860" y="124" type="line"/>
      <point x="860" y="-38" type="line"/>
      <point x="860" y="-88"/>
      <point x="835" y="-120"/>
      <point x="789" y="-120" type="curve" smooth="yes"/>
      <point x="727" y="-120"/>
      <point x="616" y="61"/>
      <point x="617" y="160" type="curve" smooth="yes"/>
      <point x="618" y="211"/>
      <point x="646" y="243"/>
      <point x="717" y="243" type="curve" smooth="yes"/>
    </contour>
    <contour>
      <point x="1016" y="1261" type="move" name="mark0"/>
    </contour>
  </outline>
</glyph>
<glyph name="haradeva" format="1">
  <advance width="1167"/>
  <outline>
    <contour>
      <point x="917" y="460" type="line"/>
      <point x="680" y="79" type="line"/>
      <point x="532" y="145" type="line"/>
      <point x="771" y="520" type="line"/>
    </contour>
    <contour>
      <point x="670" y="616" type="curve" smooth="yes"/>
      <point x="958" y="616"/>
      <point x="1115" y="456"/>
      <point x="1115" y="291" type="curve" smooth="yes"/>
      <point x="1115" y="216"/>
      <point x="1101" y="150"/>
      <point x="1070" y="82" type="curve"/>
      <point x="906" y="123" type="line"/>
      <point x="930" y="173"/>
      <point x="941" y="223"/>
      <point x="941" y="287" type="curve" smooth="yes"/>
      <point x="941" y="382"/>
      <point x="846" y="461"/>
      <point x="699" y="461" type="curve" smooth="yes"/>
      <point x="481" y="461"/>
      <point x="375" y="356"/>
      <point x="375" y="214" type="curve" smooth="yes"/>
      <point x="375" y="54"/>
      <point x="529" y="-73"/>
      <point x="932" y="-126" type="curve"/>
      <point x="885" y="-269" type="line"/>
      <point x="408" y="-216"/>
      <point x="184" y="-16"/>
      <point x="184" y="245" type="curve" smooth="yes"/>
      <point x="184" y="438"/>
      <point x="333" y="616"/>
    </contour>
    <contour>
      <point x="1202" y="1136" type="line"/>
      <point x="-20" y="1136" type="line"/>
      <point x="-20" y="1283" type="line"/>
      <point x="1202" y="1283" type="line"/>
    </contour>
    <contour>
      <point x="830" y="1146" type="line"/>
      <point x="1041" y="1146" type="line"/>
      <point x="1041" y="804" type="line"/>
      <point x="473" y="804" type="line"/>
      <point x="344" y="804"/>
      <point x="298" y="751"/>
      <point x="298" y="683" type="curve" smooth="yes"/>
      <point x="298" y="619"/>
      <point x="341" y="574"/>
      <point x="455" y="528" type="curve"/>
      <point x="318" y="423" type="line"/>
      <point x="177" y="501"/>
      <point x="95" y="600"/>
      <point x="95" y="727" type="curve" smooth="yes"/>
      <point x="95" y="856"/>
      <point x="194" y="951"/>
      <point x="391" y="951" type="curve" smooth="yes"/>
      <point x="869" y="951" type="line"/>
      <point x="830" y="898" type="line"/>
    </contour>
  </outline>
</glyph>
<glyph name="harauudeva" format="1">
  <advance width="1227"/>
  <outline>
    <contour>
      <point x="0" y="0" type="line"/>
      <point x="1227" y="0" type="line"/>
      <point x="1227" y="20" type="line"/>
      <point x="0" y="20" type="line"/>
    </contour>
  </outline>
</glyph>
<glyph name="haudeva" format="1">
  <advance width="1140"/>
  <outline>
    <contour>
      <point x="623" y="606" type="curve" smooth="yes"/>
      <point x="884" y="606"/>
      <point x="1025" y="464"/>
      <point x="1025" y="305" type="curve" smooth="yes"/>
      <point x="1025" y="221"/>
      <point x="997" y="150"/>
      <point x="955" y="81" type="curve"/>
      <point x="785" y="122" type="line"/>
      <point x="822" y="175"/>
      <point x="840" y="225"/>
      <point x="840" y="297" type="curve" smooth="yes"/>
      <point x="840" y="372"/>
      <point x="771" y="447"/>
      <point x="639" y="447" type="curve" smooth="yes"/>
      <point x="484" y="447"/>
      <point x="384" y="355"/>
      <point x="384" y="227" type="curve" smooth="yes"/>
      <point x="384" y="66"/>
      <point x="526" y="-37"/>
      <point x="831" y="-91" type="curve"/>
      <point x="713" y="-223" type="line"/>
      <point x="416" y="-164"/>
      <point x="184" y="-16"/>
      <point x="184" y="245" type="curve" smooth="yes"/>
      <point x="184" y="442"/>
      <point x="335" y="606"/>
    </contour>
    <contour>
      <point x="1175" y="1136" type="line"/>
      <point x="-20" y="1136" type="line"/>
      <point x="-20" y="1283" type="line"/>
      <point x="1175" y="1283" type="line"/>
    </contour>
    <contour>
      <point x="736" y="1146" type="line"/>
      <point x="946" y="1146" type="line"/>
      <point x="946" y="804" type="line"/>
      <point x="473" y="804" type="line"/>
      <point x="344" y="804"/>
      <point x="298" y="751"/>
      <point x="298" y="683" type="curve" smooth="yes"/>
      <point x="298" y="619"/>
      <point x="341" y="574"/>
      <point x="455" y="528" type="curve"/>
      <point x="318" y="423" type="line"/>
      <point x="177" y="501"/>
      <point x="95" y="600"/>
      <point x="95" y="727" type="curve" smooth="yes"/>
      <point x="95" y="856"/>
      <point x="194" y="951"/>
      <point x="391" y="951" type="curve" smooth="yes"/>
      <point x="775" y="951" type="line"/>
      <point x="736" y="898" type="line"/>
    </contour>
    <component base="uvowelsigndeva" xOffset="1085" yOffset="-90"/>
  </outline>
</glyph>
<glyph name="hayadeva" format="1">
  <advance width="1830"/>
  <outline>
    <contour>
      <point x="353" y="164" type="curve" smooth="yes"/>
      <point x="353" y="17"/>
      <point x="435" y="-112"/>
      <point x="686" y="-304" type="curve"/>
      <point x="567" y="-407" type="line"/>
      <point x="285" y="-194"/>
      <point x="174" y="-12"/>
      <point x="174" y="197" type="curve" smooth="yes"/>
      <point x="174" y="424"/>
      <point x="347" y="608"/>
      <point x="669" y="608" type="curve" smooth="yes"/>
      <point x="967" y="608"/>
      <point x="1109" y="445"/>
      <point x="1109" y="313" type="curve" smooth="yes"/>
      <point x="1109" y="199"/>
      <point x="1034" y="101"/>
      <point x="821" y="46" type="curve"/>
      <point x="825" y="108" type="line"/>
      <point x="899" y="2"/>
      <point x="983" y="-50"/>
      <point x="1109" y="-50" type="curve" smooth="yes"/>
      <point x="1258" y="-50"/>
      <point x="1375" y="34"/>
      <point x="1447" y="171" type="curve"/>
      <point x="1447" y="-105" type="line"/>
      <point x="1379" y="-175"/>
      <point x="1298" y="-220"/>
      <point x="1162" y="-220" type="curve" smooth="yes"/>
      <point x="942" y="-220"/>
      <point x="738" y="-90"/>
      <point x="629" y="135" type="curve"/>
      <point x="629" y="140" type="line"/>
      <point x="860" y="182"/>
      <point x="920" y="245"/>
      <point x="920" y="312" type="curve" smooth="yes"/>
      <point x="920" y="380"/>
      <point x="836" y="454"/>
      <point x="675" y="454" type="curve" smooth="yes"/>
      <point x="483" y="454"/>
      <point x="353" y="337"/>
    </contour>
    <contour>
      <point x="1847" y="1136" type="line"/>
      <point x="-20" y="1136" type="line"/>
      <point x="-20" y="1283" type="line"/>
      <point x="1847" y="1283" type="line"/>
    </contour>
    <contour>
      <point x="848" y="1146" type="line"/>
      <point x="1058" y="1146" type="line"/>
      <point x="1058" y="804" type="line"/>
      <point x="473" y="804" type="line"/>
      <point x="344" y="804"/>
      <point x="298" y="751"/>
      <point x="298" y="683" type="curve" smooth="yes"/>
      <point x="298" y="619"/>
      <point x="341" y="574"/>
      <point x="455" y="528" type="curve"/>
      <point x="318" y="423" type="line"/>
      <point x="177" y="501"/>
      <point x="95" y="600"/>
      <point x="95" y="727" type="curve" smooth="yes"/>
      <point x="95" y="856"/>
      <point x="194" y="951"/>
      <point x="391" y="951" type="curve" smooth="yes"/>
      <point x="887" y="951" type="line"/>
      <point x="848" y="898" type="line"/>
    </contour>
    <contour>
      <point x="1399" y="1169" type="line"/>
      <point x="1610" y="1169" type="line"/>
      <point x="1610" y="-402" type="line"/>
      <point x="1399" y="-402" type="line"/>
    </contour>
  </outline>
</glyph>
<glyph name="iivowelsign2deva" format="1">
  <advance width="618"/>
  <outline>
    <contour>
      <point x="184" y="1239" type="line"/>
      <point x="88" y="1469"/>
      <point x="-128" y="1624"/>
      <point x="-334" y="1624" type="curve" smooth="yes"/>
      <point x="-453" y="1624"/>
      <point x="-512" y="1564"/>
      <point x="-512" y="1485" type="curve" smooth="yes"/>
      <point x="-512" y="1408"/>
      <point x="-470" y="1340"/>
      <point x="-388" y="1256" type="curve"/>
      <point x="-590" y="1256" type="line"/>
      <point x="-654" y="1325"/>
      <point x="-711" y="1426"/>
      <point x="-711" y="1542" type="curve" smooth="yes"/>
      <point x="-711" y="1673"/>
      <point x="-597" y="1804"/>
      <point x="-377" y="1804" type="curve" smooth="yes"/>
      <point x="-71" y="1804"/>
      <point x="243" y="1605"/>
      <point x="388" y="1239" type="curve"/>
    </contour>
    <component base="aavowelsigndeva"/>
  </outline>
</glyph>
<glyph name="ivowelsign06deva" format="1">
  <advance width="618"/>
  <outline>
    <contour>
      <point x="186" y="1254" type="line"/>
      <point x="186" y="1348" type="line"/>
      <point x="186" y="1592"/>
      <point x="331" y="1769"/>
      <point x="732" y="1769" type="curve" smooth="yes"/>
      <point x="1178" y="1769"/>
      <point x="1646" y="1552"/>
      <point x="2009" y="1257" type="curve"/>
      <point x="1752" y="1257" type="line"/>
      <point x="1427" y="1457"/>
      <point x="1090" y="1592"/>
      <point x="754" y="1592" type="curve" smooth="yes"/>
      <point x="493" y="1592"/>
      <point x="397" y="1479"/>
      <point x="397" y="1331" type="curve" smooth="yes"/>
      <point x="397" y="1254" type="line"/>
    </contour>
    <component base="aavowelsigndeva"/>
  </outline>
</glyph>
<glyph name="ivowelsign10deva" format="1">
  <advance width="618"/>
  <outline>
    <contour>
      <point x="186" y="1254" type="line"/>
      <point x="186" y="1351" type="line"/>
      <point x="186" y="1596"/>
      <point x="348" y="1769"/>
      <point x="811" y="1769" type="curve" smooth="yes"/>
      <point x="1406" y="1769"/>
      <point x="2039" y="1566"/>
      <point x="2498" y="1257" type="curve"/>
      <point x="2218" y="1257" type="line"/>
      <point x="1818" y="1472"/>
      <point x="1279" y="1599"/>
      <point x="845" y="1599" type="curve" smooth="yes"/>
      <point x="502" y="1599"/>
      <point x="397" y="1486"/>
      <point x="397" y="1334" type="curve" smooth="yes"/>
      <point x="397" y="1254" type="line"/>
    </contour>
    <component base="aavowelsigndeva"/>
  </outline>
</glyph>
<glyph name="janyaprehalfdeva" format="1">
  <advance width="788"/>
  <outline>
    <contour>
      <point x="413" y="111" type="curve" smooth="yes"/>
      <point x="648" y="-202" type="line"/>
      <point x="506" y="-269" type="line"/>
      <point x="253" y="64" type="line"/>
      <point x="341" y="11" type="line"/>
      <point x="151" y="11"/>
      <point x="64" y="85"/>
      <point x="64" y="151" type="curve" smooth="yes"/>
      <point x="64" y="212"/>
      <point x="122" y="268"/>
      <point x="197" y="268" type="curve" smooth="yes"/>
      <point x="266" y="268"/>
      <point x="335" y="215"/>
    </contour>
    <contour>
      <point x="-93" y="1136" type="line"/>
      <point x="-93" y="1283" type="line"/>
      <point x="1097" y="1283" type="line"/>
      <point x="1097" y="1136" type="line"/>
    </contour>
    <contour>
      <point x="434" y="789" type="line" smooth="yes"/>
      <point x="331" y="789"/>
      <point x="302" y="755"/>
      <point x="302" y="703" type="curve" smooth="yes"/>
      <point x="302" y="646"/>
      <point x="362" y="608"/>
      <point x="494" y="585" type="curve" smooth="yes"/>
      <point x="693" y="549"/>
      <point x="787" y="450"/>
      <point x="787" y="301" type="curve" smooth="yes"/>
      <point x="787" y="151"/>
      <point x="633" y="12"/>
      <point x="376" y="12" type="curve"/>
      <point x="345" y="153" type="line"/>
      <point x="517" y="153"/>
      <point x="602" y="232"/>
      <point x="602" y="302" type="curve" smooth="yes"/>
      <point x="602" y="380"/>
      <point x="545" y="430"/>
      <point x="372" y="466" type="curve" smooth="yes"/>
      <point x="194" y="503"/>
      <point x="107" y="601"/>
      <point x="107" y="725" type="curve" smooth="yes"/>
      <point x="107" y="849"/>
      <point x="202" y="933"/>
      <point x="410" y="933" type="curve" smooth="yes"/>
      <point x="1087" y="933" type="line"/>
      <point x="1087" y="789" type="line"/>
    </contour>
  </outline>
</glyph>
<glyph name="janyaraprehalfdeva" format="1">
  <advance width="943"/>
  <outline>
    <contour>
      <point x="1407" y="702" type="line"/>
      <point x="966" y="15" type="line"/>
      <point x="826" y="115" type="line"/>
      <point x="1271" y="788" type="line"/>
    </contour>
    <contour>
      <point x="409" y="129" type="curve" smooth="yes"/>
      <point x="644" y="-184" type="line"/>
      <point x="502" y="-251" type="line"/>
      <point x="249" y="82" type="line"/>
      <point x="337" y="29" type="line"/>
      <point x="147" y="29"/>
      <point x="60" y="103"/>
      <point x="60" y="169" type="curve" smooth="yes"/>
      <point x="60" y="230"/>
      <point x="118" y="286"/>
      <point x="193" y="286" type="curve" smooth="yes"/>
      <point x="262" y="286"/>
      <point x="331" y="233"/>
    </contour>
    <contour>
      <point x="-57" y="1136" type="line"/>
      <point x="-57" y="1283" type="line"/>
      <point x="1155" y="1283" type="line"/>
      <point x="1155" y="1136" type="line"/>
    </contour>
    <contour>
      <point x="430" y="807" type="line" smooth="yes"/>
      <point x="328" y="807"/>
      <point x="298" y="773"/>
      <point x="298" y="721" type="curve" smooth="yes"/>
      <point x="298" y="664"/>
      <point x="358" y="626"/>
      <point x="490" y="603" type="curve" smooth="yes"/>
      <point x="689" y="567"/>
      <point x="783" y="468"/>
      <point x="783" y="319" type="curve" smooth="yes"/>
      <point x="783" y="169"/>
      <point x="629" y="30"/>
      <point x="372" y="30" type="curve"/>
      <point x="341" y="171" type="line"/>
      <point x="513" y="171"/>
      <point x="598" y="250"/>
      <point x="598" y="320" type="curve" smooth="yes"/>
      <point x="598" y="398"/>
      <point x="541" y="448"/>
      <point x="368" y="484" type="curve" smooth="yes"/>
      <point x="190" y="521"/>
      <point x="103" y="619"/>
      <point x="103" y="743" type="curve" smooth="yes"/>
      <point x="103" y="867"/>
      <point x="199" y="951"/>
      <point x="406" y="951" type="curve" smooth="yes"/>
      <point x="1152" y="951" type="line"/>
      <point x="1152" y="807" type="line"/>
    </contour>
  </outline>
</glyph>
<glyph name="jhaprehalfdeva" format="1">
  <advance width="1014"/>
  <outline>
    <contour>
      <point x="1402" y="431" type="line"/>
      <point x="1301" y="374"/>
      <point x="1179" y="340"/>
      <point x="1025" y="340" type="curve" smooth="yes"/>
      <point x="930" y="340"/>
      <point x="846" y="353"/>
      <point x="807" y="362" type="curve"/>
      <point x="807" y="394"/>
      <point x="799" y="465"/>
      <point x="799" y="520" type="curve"/>
      <point x="833" y="506"/>
      <point x="907" y="497"/>
      <point x="965" y="497" type="curve" smooth="yes"/>
      <point x="1088" y="497"/>
      <point x="1215" y="526"/>
      <point x="1320" y="601" type="curve"/>
    </contour>
    <contour>
      <point x="494" y="146" type="curve" smooth="yes"/>
      <point x="780" y="-161" type="line"/>
      <point x="641" y="-243" type="line"/>
      <point x="317" y="116" type="line"/>
      <point x="448" y="48" type="line"/>
      <point x="204" y="51"/>
      <point x="119" y="138"/>
      <point x="119" y="203" type="curve" smooth="yes"/>
      <point x="119" y="260"/>
      <point x="164" y="311"/>
      <point x="240" y="311" type="curve" smooth="yes"/>
      <point x="315" y="311"/>
      <point x="393" y="255"/>
    </contour>
    <contour>
      <point x="608" y="1167" type="line"/>
      <point x="809" y="1167" type="line"/>
      <point x="809" y="804" type="line"/>
      <point x="439" y="804" type="line"/>
      <point x="309" y="804"/>
      <point x="270" y="756"/>
      <point x="271" y="694" type="curve" smooth="yes"/>
      <point x="272" y="637"/>
      <point x="313" y="596"/>
      <point x="405" y="560" type="curve"/>
      <point x="322" y="568" type="line"/>
      <point x="424" y="610"/>
      <point x="497" y="629"/>
      <point x="610" y="629" type="curve" smooth="yes"/>
      <point x="789" y="629"/>
      <point x="915" y="521"/>
      <point x="915" y="354" type="curve" smooth="yes"/>
      <point x="915" y="190"/>
      <point x="731" y="52"/>
      <point x="457" y="52" type="curve"/>
      <point x="428" y="204" type="line"/>
      <point x="599" y="204"/>
      <point x="721" y="270"/>
      <point x="721" y="359" type="curve" smooth="yes"/>
      <point x="721" y="430"/>
      <point x="670" y="471"/>
      <point x="589" y="471" type="curve" smooth="yes"/>
      <point x="516" y="471"/>
      <point x="440" y="453"/>
      <point x="364" y="422" type="curve"/>
      <point x="350" y="422" type="line"/>
      <point x="149" y="512"/>
      <point x="80" y="611"/>
      <point x="80" y="733" type="curve" smooth="yes"/>
      <point x="80" y="854"/>
      <point x="168" y="949"/>
      <point x="393" y="949" type="curve" smooth="yes"/>
      <point x="660" y="949" type="line"/>
      <point x="608" y="897" type="line"/>
    </contour>
    <contour>
      <point x="1346" y="1136" type="line"/>
      <point x="-20" y="1136" type="line"/>
      <point x="-20" y="1283" type="line"/>
      <point x="1346" y="1283" type="line"/>
    </contour>
  </outline>
</glyph>
<glyph name="kaprehalfdeva" format="1">
  <advance width="1186"/>
  <outline>
    <contour>
      <point x="879" y="488" type="curve"/>
      <point x="870" y="758" type="line"/>
      <point x="932" y="808"/>
      <point x="1025" y="845"/>
      <point x="1132" y="845" type="curve" smooth="yes"/>
      <point x="1254" y="845"/>
      <point x="1369" y="808"/>
      <point x="1480" y="717" type="curve"/>
      <point x="1444" y="560" type="line"/>
      <point x="1350" y="634"/>
      <point x="1268" y="665"/>
      <point x="1164" y="665" type="curve" smooth="yes"/>
      <point x="1050" y="665"/>
      <point x="945" y="600"/>
    </contour>
    <contour>
      <point x="-38" y="1136" type="line"/>
      <point x="-38" y="1283" type="line"/>
      <point x="1283" y="1283" type="line"/>
      <point x="1283" y="1136" type="line"/>
    </contour>
    <contour>
      <point x="718" y="592" type="curve"/>
      <point x="718" y="356" type="line"/>
      <point x="640" y="296"/>
      <point x="565" y="254"/>
      <point x="449" y="254" type="curve" smooth="yes"/>
      <point x="230" y="254"/>
      <point x="75" y="424"/>
      <point x="75" y="627" type="curve" smooth="yes"/>
      <point x="75" y="789"/>
      <point x="198" y="914"/>
      <point x="403" y="914" type="curve" smooth="yes"/>
      <point x="541" y="914"/>
      <point x="635" y="881"/>
      <point x="728" y="827" type="curve"/>
      <point x="728" y="672" type="line"/>
      <point x="628" y="732"/>
      <point x="552" y="755"/>
      <point x="456" y="755" type="curve" smooth="yes"/>
      <point x="325" y="755"/>
      <point x="257" y="679"/>
      <point x="257" y="587" type="curve" smooth="yes"/>
      <point x="257" y="497"/>
      <point x="327" y="422"/>
      <point x="430" y="422" type="curve" smooth="yes"/>
      <point x="545" y="423"/>
      <point x="638" y="485"/>
    </contour>
    <contour>
      <point x="696" y="1169" type="line"/>
      <point x="906" y="1169" type="line"/>
      <point x="906" y="0" type="line"/>
      <point x="696" y="0" type="line"/>
    </contour>
  </outline>
</glyph>
<glyph name="kassadeva" format="1">
  <advance width="1441"/>
  <outline>
    <contour>
      <point x="999" y="1169" type="line"/>
      <point x="1210" y="1169" type="line"/>
      <point x="1210" y="0" type="line"/>
      <point x="999" y="0" type="line"/>
    </contour>
    <contour>
      <point x="1452" y="1136" type="line"/>
      <point x="833" y="1136" type="line"/>
      <point x="833" y="1283" type="line"/>
      <point x="1452" y="1283" type="line"/>
    </contour>
    <contour>
      <point x="487" y="158" type="line"/>
      <point x="635" y="213" type="line"/>
      <point x="765" y="-91" type="line"/>
      <point x="607" y="-145" type="line"/>
    </contour>
    <contour>
      <point x="579" y="1029" type="curve" smooth="yes"/>
      <point x="579" y="1105"/>
      <point x="520" y="1160"/>
      <point x="441" y="1160" type="curve" smooth="yes"/>
      <point x="354" y="1160"/>
      <point x="300" y="1101"/>
      <point x="300" y="1020" type="curve" smooth="yes"/>
      <point x="300" y="874"/>
      <point x="532" y="742"/>
      <point x="1078" y="743" type="curve"/>
      <point x="1064" y="580" type="line"/>
      <point x="389" y="581"/>
      <point x="120" y="813"/>
      <point x="120" y="1053" type="curve" smooth="yes"/>
      <point x="120" y="1197"/>
      <point x="231" y="1312"/>
      <point x="422" y="1312" type="curve" smooth="yes"/>
      <point x="636" y="1312"/>
      <point x="748" y="1182"/>
      <point x="748" y="1030" type="curve" smooth="yes"/>
      <point x="748" y="882"/>
      <point x="655" y="766"/>
      <point x="463" y="647" type="curve" smooth="yes"/>
      <point x="301" y="546"/>
      <point x="223" y="470"/>
      <point x="223" y="380" type="curve" smooth="yes"/>
      <point x="223" y="291"/>
      <point x="290" y="227"/>
      <point x="410" y="227" type="curve" smooth="yes"/>
      <point x="465" y="227"/>
      <point x="502" y="237"/>
      <point x="576" y="270" type="curve"/>
      <point x="471" y="192" type="line"/>
      <point x="451" y="238"/>
      <point x="445" y="259"/>
      <point x="445" y="291" type="curve" smooth="yes"/>
      <point x="445" y="329"/>
      <point x="492" y="370"/>
      <point x="561" y="370" type="curve" smooth="yes"/>
      <point x="676" y="370"/>
      <point x="754" y="306"/>
      <point x="754" y="243" type="curve" smooth="yes"/>
      <point x="754" y="174"/>
      <point x="612" y="85"/>
      <point x="424" y="85" type="curve" smooth="yes"/>
      <point x="198" y="85"/>
      <point x="33" y="203"/>
      <point x="33" y="398" type="curve" smooth="yes"/>
      <point x="33" y="537"/>
      <point x="143" y="646"/>
      <point x="325" y="752" type="curve" smooth="yes"/>
      <point x="513" y="862"/>
      <point x="579" y="941"/>
    </contour>
  </outline>
</glyph>
<glyph name="kassaprehalfdeva" format="1">
  <advance width="853"/>
  <outline>
    <contour>
      <point x="487" y="158" type="line"/>
      <point x="635" y="213" type="line"/>
      <point x="765" y="-91" type="line"/>
      <point x="607" y="-145" type="line"/>
    </contour>
    <contour>
      <point x="223" y="380" type="curve" smooth="yes"/>
      <point x="223" y="291"/>
      <point x="290" y="227"/>
      <point x="410" y="227" type="curve" smooth="yes"/>
      <point x="465" y="227"/>
      <point x="502" y="237"/>
      <point x="576" y="270" type="curve"/>
      <point x="471" y="192" type="line"/>
      <point x="451" y="238"/>
      <point x="445" y="259"/>
      <point x="445" y="291" type="curve" smooth="yes"/>
      <point x="445" y="329"/>
      <point x="492" y="370"/>
      <point x="561" y="370" type="curve" smooth="yes"/>
      <point x="676" y="370"/>
      <point x="754" y="306"/>
      <point x="754" y="243" type="curve" smooth="yes"/>
      <point x="754" y="174"/>
      <point x="612" y="85"/>
      <point x="424" y="85" type="curve" smooth="yes"/>
      <point x="198" y="85"/>
      <point x="33" y="203"/>
      <point x="33" y="398" type="curve" smooth="yes"/>
      <point x="33" y="537"/>
      <point x="143" y="646"/>
      <point x="325" y="752" type="curve" smooth="yes"/>
      <point x="513" y="862"/>
      <point x="579" y="941"/>
      <point x="579" y="1029" type="curve" smooth="yes"/>
      <point x="579" y="1105"/>
      <point x="520" y="1160"/>
      <point x="441" y="1160" type="curve" smooth="yes"/>
      <point x="354" y="1160"/>
      <point x="300" y="1101"/>
      <point x="300" y="1020" type="curve" smooth="yes"/>
      <point x="300" y="866"/>
      <point x="571" y="750"/>
      <point x="902" y="750" type="curve" smooth="yes"/>
      <point x="985" y="750"/>
      <point x="1049" y="757"/>
      <point x="1149" y="780" type="curve"/>
      <point x="1162" y="617" type="line"/>
      <point x="1093" y="598"/>
      <point x="1021" y="587"/>
      <point x="936" y="587" type="curve" smooth="yes"/>
      <point x="467" y="587"/>
      <point x="120" y="782"/>
      <point x="120" y="1053" type="curve" smooth="yes"/>
      <point x="119" y="1197"/>
      <point x="231" y="1312"/>
      <point x="422" y="1312" type="curve" smooth="yes"/>
      <point x="636" y="1312"/>
      <point x="748" y="1182"/>
      <point x="748" y="1030" type="curve" smooth="yes"/>
      <point x="748" y="882"/>
      <point x="655" y="766"/>
      <point x="463" y="647" type="curve" smooth="yes"/>
      <point x="301" y="546"/>
      <point x="223" y="470"/>
    </contour>
  </outline>
</glyph>
<glyph name="kassaradeva" format="1">
  <advance width="1554"/>
  <outline>
    <contour>
      <point x="419" y="153" type="line"/>
      <point x="567" y="207" type="line"/>
      <point x="692" y="-91" type="line"/>
      <point x="534" y="-145" type="line"/>
    </contour>
    <contour>
      <point x="498" y="650" type="curve" smooth="yes"/>
      <point x="251" y="533"/>
      <point x="192" y="459"/>
      <point x="192" y="368" type="curve" smooth="yes"/>
      <point x="192" y="273"/>
      <point x="261" y="227"/>
      <point x="348" y="227" type="curve" smooth="yes"/>
      <point x="403" y="227"/>
      <point x="434" y="233"/>
      <point x="508" y="265" type="curve"/>
      <point x="401" y="187" type="line"/>
      <point x="381" y="232"/>
      <point x="377" y="254"/>
      <point x="377" y="286" type="curve" smooth="yes"/>
      <point x="377" y="324"/>
      <point x="424" y="365"/>
      <point x="493" y="365" type="curve" smooth="yes"/>
      <point x="608" y="365"/>
      <point x="687" y="300"/>
      <point x="687" y="237" type="curve" smooth="yes"/>
      <point x="687" y="168"/>
      <point x="550" y="85"/>
      <point x="362" y="85" type="curve" smooth="yes"/>
      <point x="171" y="85"/>
      <point x="1" y="185"/>
      <point x="1" y="386" type="curve" smooth="yes"/>
      <point x="1" y="526"/>
      <point x="101" y="647"/>
      <point x="373" y="768" type="curve" smooth="yes"/>
      <point x="595" y="869"/>
      <point x="661" y="943"/>
      <point x="661" y="1029" type="curve" smooth="yes"/>
      <point x="661" y="1105"/>
      <point x="602" y="1160"/>
      <point x="523" y="1160" type="curve" smooth="yes"/>
      <point x="436" y="1160"/>
      <point x="382" y="1101"/>
      <point x="382" y="1020" type="curve" smooth="yes"/>
      <point x="382" y="883"/>
      <point x="605" y="742"/>
      <point x="1191" y="743" type="curve"/>
      <point x="1177" y="580" type="line"/>
      <point x="479" y="581"/>
      <point x="202" y="813"/>
      <point x="202" y="1053" type="curve" smooth="yes"/>
      <point x="202" y="1197"/>
      <point x="313" y="1312"/>
      <point x="504" y="1312" type="curve" smooth="yes"/>
      <point x="718" y="1312"/>
      <point x="830" y="1182"/>
      <point x="830" y="1030" type="curve" smooth="yes"/>
      <point x="830" y="882"/>
      <point x="723" y="756"/>
    </contour>
    <contour>
      <point x="1190" y="588" type="line"/>
      <point x="899" y="99" type="line"/>
      <point x="741" y="185" type="line"/>
      <point x="1055" y="676" type="line"/>
    </contour>
    <contour>
      <point x="1112" y="1169" type="line"/>
      <point x="1323" y="1169" type="line"/>
      <point x="1323" y="0" type="line"/>
      <point x="1112" y="0" type="line"/>
    </contour>
    <contour>
      <point x="1565" y="1136" type="line"/>
      <point x="946" y="1136" type="line"/>
      <point x="946" y="1283" type="line"/>
      <point x="1565" y="1283" type="line"/>
    </contour>
  </outline>
</glyph>
<glyph name="katadeva" format="1">
  <advance width="1753"/>
  <outline>
    <contour>
      <point x="1053" y="519" type="curve"/>
      <point x="1041" y="785" type="line"/>
      <point x="1105" y="813"/>
      <point x="1196" y="839"/>
      <point x="1294" y="839" type="curve" smooth="yes"/>
      <point x="1511" y="839"/>
      <point x="1659" y="699"/>
      <point x="1659" y="507" type="curve" smooth="yes"/>
      <point x="1659" y="378"/>
      <point x="1612" y="267"/>
      <point x="1536" y="156" type="curve"/>
      <point x="1362" y="219" type="line"/>
      <point x="1440" y="334"/>
      <point x="1477" y="424"/>
      <point x="1477" y="517" type="curve" smooth="yes"/>
      <point x="1477" y="610"/>
      <point x="1413" y="665"/>
      <point x="1314" y="665" type="curve" smooth="yes"/>
      <point x="1234" y="665"/>
      <point x="1132" y="615"/>
    </contour>
    <contour>
      <point x="946" y="1136" type="line"/>
      <point x="946" y="1283" type="line"/>
      <point x="1779" y="1283" type="line"/>
      <point x="1779" y="1136" type="line"/>
    </contour>
    <component base="tatadeva"/>
    <contour>
      <point x="1088" y="-13" type="move" name="mark0"/>
    </contour>
  </outline>
</glyph>
<glyph name="khaprehalfdeva" format="1">
  <advance width="1257"/>
  <outline>
    <contour>
      <point x="220" y="674" type="line"/>
      <point x="390" y="735"/>
      <point x="435" y="818"/>
      <point x="435" y="971" type="curve" smooth="yes"/>
      <point x="435" y="1192" type="line"/>
      <point x="646" y="1192" type="line"/>
      <point x="646" y="956" type="line"/>
      <point x="646" y="766"/>
      <point x="593" y="603"/>
      <point x="340" y="493" type="curve"/>
    </contour>
    <contour>
      <point x="-35" y="1136" type="line"/>
      <point x="-35" y="1283" type="line"/>
      <point x="1379" y="1283" type="line"/>
      <point x="1379" y="1136" type="line"/>
    </contour>
    <contour>
      <point x="298" y="620" type="line"/>
      <point x="489" y="281"/>
      <point x="735" y="176"/>
      <point x="968" y="176" type="curve" smooth="yes"/>
      <point x="1209" y="176"/>
      <point x="1416" y="284"/>
      <point x="1614" y="469" type="curve"/>
      <point x="1708" y="342" type="line"/>
      <point x="1477" y="137"/>
      <point x="1247" y="33"/>
      <point x="974" y="32" type="curve" smooth="yes"/>
      <point x="765" y="32"/>
      <point x="519" y="98"/>
      <point x="332" y="285" type="curve" smooth="yes"/>
      <point x="147" y="471"/>
      <point x="40" y="674"/>
      <point x="40" y="740" type="curve" smooth="yes"/>
      <point x="40" y="792"/>
      <point x="77" y="824"/>
      <point x="133" y="824" type="curve" smooth="yes"/>
      <point x="179" y="824"/>
      <point x="218" y="789"/>
      <point x="267" y="723" type="curve" smooth="yes"/>
      <point x="318" y="649" type="line"/>
    </contour>
    <contour>
      <point x="1269" y="677" type="curve" smooth="yes"/>
      <point x="1269" y="740"/>
      <point x="1190" y="808"/>
      <point x="1060" y="808" type="curve" smooth="yes"/>
      <point x="948" y="808"/>
      <point x="897" y="735"/>
      <point x="897" y="665" type="curve" smooth="yes"/>
      <point x="897" y="591"/>
      <point x="963" y="528"/>
      <point x="1051" y="528" type="curve" smooth="yes"/>
      <point x="1184" y="528"/>
      <point x="1269" y="611"/>
    </contour>
    <contour>
      <point x="1415" y="657" type="curve" smooth="yes"/>
      <point x="1415" y="520"/>
      <point x="1274" y="383"/>
      <point x="1075" y="383" type="curve" smooth="yes"/>
      <point x="891" y="383"/>
      <point x="727" y="512"/>
      <point x="727" y="698" type="curve" smooth="yes"/>
      <point x="727" y="838"/>
      <point x="840" y="956"/>
      <point x="1027" y="956" type="curve" smooth="yes"/>
      <point x="1277" y="956"/>
      <point x="1415" y="797"/>
    </contour>
  </outline>
</glyph>
<glyph name="kharaprehalfdeva" format="1">
  <advance width="1257"/>
  <outline>
    <contour>
      <point x="1381" y="335" type="line"/>
      <point x="695" y="-141" type="line"/>
      <point x="558" y="-23" type="line"/>
      <point x="1269" y="455" type="line"/>
    </contour>
    <contour>
      <point x="300" y="623" type="line"/>
      <point x="441" y="349"/>
      <point x="715" y="222"/>
      <point x="1039" y="222" type="curve"/>
      <point x="915" y="82" type="line"/>
      <point x="682" y="82"/>
      <point x="420" y="204"/>
      <point x="276" y="348" type="curve" smooth="yes"/>
      <point x="148" y="477"/>
      <point x="39" y="670"/>
      <point x="39" y="740" type="curve" smooth="yes"/>
      <point x="39" y="789"/>
      <point x="76" y="824"/>
      <point x="130" y="824" type="curve" smooth="yes"/>
      <point x="180" y="824"/>
      <point x="221" y="789"/>
      <point x="268" y="722" type="curve" smooth="yes"/>
      <point x="317" y="649" type="line"/>
    </contour>
    <contour>
      <point x="220" y="674" type="line"/>
      <point x="390" y="735"/>
      <point x="435" y="818"/>
      <point x="435" y="971" type="curve" smooth="yes"/>
      <point x="435" y="1192" type="line"/>
      <point x="646" y="1192" type="line"/>
      <point x="646" y="956" type="line"/>
      <point x="646" y="766"/>
      <point x="593" y="603"/>
      <point x="340" y="493" type="curve"/>
    </contour>
    <contour>
      <point x="-35" y="1136" type="line"/>
      <point x="-35" y="1283" type="line"/>
      <point x="1379" y="1283" type="line"/>
      <point x="1379" y="1136" type="line"/>
    </contour>
    <contour>
      <point x="1269" y="677" type="curve" smooth="yes"/>
      <point x="1269" y="740"/>
      <point x="1190" y="808"/>
      <point x="1060" y="808" type="curve" smooth="yes"/>
      <point x="948" y="808"/>
      <point x="897" y="735"/>
      <point x="897" y="665" type="curve" smooth="yes"/>
      <point x="897" y="591"/>
      <point x="963" y="528"/>
      <point x="1051" y="528" type="curve" smooth="yes"/>
      <point x="1184" y="528"/>
      <point x="1269" y="611"/>
    </contour>
    <contour>
      <point x="1415" y="657" type="curve" smooth="yes"/>
      <point x="1415" y="520"/>
      <point x="1274" y="383"/>
      <point x="1075" y="383" type="curve" smooth="yes"/>
      <point x="891" y="383"/>
      <point x="727" y="512"/>
      <point x="727" y="698" type="curve" smooth="yes"/>
      <point x="727" y="838"/>
      <point x="840" y="956"/>
      <point x="1027" y="956" type="curve" smooth="yes"/>
      <point x="1277" y="956"/>
      <point x="1415" y="797"/>
    </contour>
  </outline>
</glyph>
<glyph name="ladevaMAR" format="1">
  <advance width="1435"/>
  <outline>
    <contour>
      <point x="600" y="421" type="line"/>
      <point x="657" y="662"/>
      <point x="789" y="859"/>
      <point x="1041" y="861" type="curve" smooth="yes"/>
      <point x="1258" y="862"/>
      <point x="1397" y="698"/>
      <point x="1397" y="510" type="curve" smooth="yes"/>
      <point x="1397" y="365"/>
      <point x="1314" y="226"/>
      <point x="1190" y="111" type="curve"/>
      <point x="1027" y="198" type="line"/>
      <point x="1164" y="326"/>
      <point x="1213" y="425"/>
      <point x="1213" y="529" type="curve" smooth="yes"/>
      <point x="1213" y="618"/>
      <point x="1154" y="683"/>
      <point x="1054" y="683" type="curve" smooth="yes"/>
      <point x="931" y="683"/>
      <point x="827" y="565"/>
      <point x="778" y="357" type="curve"/>
    </contour>
    <contour>
      <point x="967" y="1169" type="line"/>
      <point x="1177" y="1169" type="line"/>
      <point x="1177" y="787" type="line"/>
      <point x="967" y="787" type="line"/>
    </contour>
    <contour>
      <point x="-45" y="1136" type="line"/>
      <point x="-45" y="1283" type="line"/>
      <point x="1466" y="1283" type="line"/>
      <point x="1466" y="1136" type="line"/>
    </contour>
    <contour>
      <point x="874" y="644" type="curve"/>
      <point x="753" y="535" type="line"/>
      <point x="661" y="664"/>
      <point x="577" y="724"/>
      <point x="458" y="724" type="curve" smooth="yes"/>
      <point x="347" y="724"/>
      <point x="273" y="638"/>
      <point x="273" y="533" type="curve" smooth="yes"/>
      <point x="273" y="418"/>
      <point x="330" y="314"/>
      <point x="504" y="164" type="curve"/>
      <point x="359" y="81" type="line"/>
      <point x="165" y="247"/>
      <point x="74" y="417"/>
      <point x="74" y="578" type="curve" smooth="yes"/>
      <point x="74" y="759"/>
      <point x="200" y="903"/>
      <point x="418" y="903" type="curve" smooth="yes"/>
      <point x="609" y="903"/>
      <point x="746" y="797"/>
    </contour>
    <contour>
      <point x="1020" y="-13" type="move" name="mark0"/>
    </contour>
  </outline>
</glyph>
<glyph name="laprehalfdeva" format="1">
  <advance width="891"/>
  <outline>
    <contour>
      <point x="1152" y="835" type="line"/>
      <point x="1214" y="663" type="line"/>
      <point x="641" y="277" type="line"/>
      <point x="527" y="416" type="line"/>
    </contour>
    <contour>
      <point x="910" y="591" type="curve"/>
      <point x="768" y="492" type="line"/>
      <point x="666" y="640"/>
      <point x="572" y="696"/>
      <point x="464" y="696" type="curve" smooth="yes"/>
      <point x="355" y="696"/>
      <point x="271" y="609"/>
      <point x="270" y="501" type="curve" smooth="yes"/>
      <point x="269" y="380"/>
      <point x="335" y="269"/>
      <point x="506" y="107" type="curve"/>
      <point x="365" y="18" type="line"/>
      <point x="192" y="184"/>
      <point x="81" y="348"/>
      <point x="81" y="545" type="curve" smooth="yes"/>
      <point x="81" y="731"/>
      <point x="223" y="882"/>
      <point x="439" y="882" type="curve" smooth="yes"/>
      <point x="610" y="882"/>
      <point x="765" y="787"/>
    </contour>
    <contour>
      <point x="-20" y="1136" type="line"/>
      <point x="-20" y="1283" type="line"/>
      <point x="1231" y="1283" type="line"/>
      <point x="1231" y="1136" type="line"/>
    </contour>
  </outline>
</glyph>
<glyph name="maraprehalfdeva" format="1">
  <advance width="747"/>
  <outline>
    <contour>
      <point x="989" y="377" type="line"/>
      <point x="395" y="-89" type="line"/>
      <point x="279" y="43" type="line"/>
      <point x="887" y="516" type="line"/>
    </contour>
    <contour>
      <point x="-25" y="1136" type="line"/>
      <point x="-25" y="1283" type="line"/>
      <point x="979" y="1283" type="line"/>
      <point x="979" y="1136" type="line"/>
    </contour>
    <contour>
      <point x="230" y="1175" type="line"/>
      <point x="441" y="1175" type="line"/>
      <point x="441" y="637" type="line"/>
      <point x="409" y="669" type="line"/>
      <point x="992" y="669" type="line"/>
      <point x="992" y="503" type="line"/>
      <point x="402" y="503" type="line"/>
      <point x="441" y="537" type="line"/>
      <point x="441" y="397" type="line"/>
      <point x="441" y="340"/>
      <point x="420" y="310"/>
      <point x="364" y="310" type="curve" smooth="yes"/>
      <point x="259" y="310"/>
      <point x="87" y="498"/>
      <point x="87" y="587" type="curve" smooth="yes"/>
      <point x="87" y="642"/>
      <point x="115" y="668"/>
      <point x="166" y="668" type="curve" smooth="yes"/>
      <point x="262" y="668" type="line"/>
      <point x="230" y="639" type="line"/>
    </contour>
  </outline>
</glyph>
<glyph name="naprehalfdeva" format="1">
  <advance width="632"/>
  <outline>
    <contour>
      <point x="867" y="807" type="line"/>
      <point x="867" y="634" type="line"/>
      <point x="332" y="634" type="line"/>
      <point x="382" y="685" type="line"/>
      <point x="382" y="445" type="line"/>
      <point x="382" y="385"/>
      <point x="354" y="352"/>
      <point x="300" y="352" type="curve" smooth="yes"/>
      <point x="227" y="352"/>
      <point x="112" y="555"/>
      <point x="112" y="700" type="curve" smooth="yes"/>
      <point x="112" y="770"/>
      <point x="144" y="807"/>
      <point x="232" y="807" type="curve" smooth="yes"/>
    </contour>
    <contour>
      <point x="-31" y="1136" type="line"/>
      <point x="-31" y="1283" type="line"/>
      <point x="868" y="1283" type="line"/>
      <point x="868" y="1136" type="line"/>
    </contour>
  </outline>
</glyph>
<glyph name="ngayadeva" format="1">
  <advance width="2608"/>
  <outline>
    <contour>
      <point x="-26" y="1136" type="line"/>
      <point x="-26" y="1283" type="line"/>
      <point x="2624" y="1283" type="line"/>
      <point x="2624" y="1136" type="line"/>
    </contour>
    <contour>
      <point x="795" y="804" type="line"/>
      <point x="795" y="949" type="line"/>
      <point x="1607" y="949" type="line"/>
      <point x="1802" y="949"/>
      <point x="1906" y="834"/>
      <point x="1906" y="707" type="curve" smooth="yes"/>
      <point x="1906" y="575"/>
      <point x="1814" y="471"/>
      <point x="1579" y="418" type="curve"/>
      <point x="1581" y="484" type="line"/>
      <point x="1656" y="371"/>
      <point x="1759" y="298"/>
      <point x="1880" y="298" type="curve" smooth="yes"/>
      <point x="2030" y="298"/>
      <point x="2152" y="382"/>
      <point x="2224" y="518" type="curve"/>
      <point x="2224" y="243" type="line"/>
      <point x="2156" y="173"/>
      <point x="2067" y="127"/>
      <point x="1931" y="127" type="curve" smooth="yes"/>
      <point x="1696" y="127"/>
      <point x="1499" y="276"/>
      <point x="1393" y="507" type="curve"/>
      <point x="1393" y="513" type="line"/>
      <point x="1636" y="566"/>
      <point x="1708" y="634"/>
      <point x="1708" y="707" type="curve" smooth="yes"/>
      <point x="1708" y="766"/>
      <point x="1656" y="804"/>
      <point x="1547" y="804" type="curve" smooth="yes"/>
    </contour>
    <contour>
      <point x="2177" y="1169" type="line"/>
      <point x="2387" y="1169" type="line"/>
      <point x="2387" y="0" type="line"/>
      <point x="2177" y="0" type="line"/>
    </contour>
    <contour>
      <point x="1204" y="709" type="curve" smooth="yes"/>
      <point x="1293" y="709"/>
      <point x="1326" y="656"/>
      <point x="1326" y="594" type="curve" smooth="yes"/>
      <point x="1326" y="534"/>
      <point x="1289" y="480"/>
      <point x="1204" y="480" type="curve" smooth="yes"/>
      <point x="1116" y="480"/>
      <point x="1082" y="534"/>
      <point x="1082" y="594" type="curve" smooth="yes"/>
      <point x="1082" y="655"/>
      <point x="1118" y="709"/>
    </contour>
    <contour>
      <point x="734" y="1167" type="line"/>
      <point x="935" y="1167" type="line"/>
      <point x="935" y="804" type="line"/>
      <point x="517" y="804" type="line"/>
      <point x="404" y="804"/>
      <point x="365" y="759"/>
      <point x="365" y="692" type="curve" smooth="yes"/>
      <point x="365" y="635"/>
      <point x="412" y="590"/>
      <point x="498" y="554" type="curve"/>
      <point x="415" y="562" type="line"/>
      <point x="530" y="613"/>
      <point x="598" y="628"/>
      <point x="697" y="628" type="curve" smooth="yes"/>
      <point x="918" y="628"/>
      <point x="1040" y="507"/>
      <point x="1040" y="346" type="curve" smooth="yes"/>
      <point x="1040" y="174"/>
      <point x="898" y="50"/>
      <point x="627" y="50" type="curve" smooth="yes"/>
      <point x="452" y="50"/>
      <point x="313" y="99"/>
      <point x="121" y="204" type="curve"/>
      <point x="156" y="360" type="line"/>
      <point x="342" y="249"/>
      <point x="489" y="201"/>
      <point x="610" y="201" type="curve" smooth="yes"/>
      <point x="759" y="201"/>
      <point x="850" y="268"/>
      <point x="850" y="349" type="curve" smooth="yes"/>
      <point x="850" y="421"/>
      <point x="795" y="468"/>
      <point x="686" y="468" type="curve" smooth="yes"/>
      <point x="601" y="468"/>
      <point x="542" y="451"/>
      <point x="461" y="413" type="curve"/>
      <point x="446" y="412" type="line"/>
      <point x="251" y="502"/>
      <point x="175" y="609"/>
      <point x="175" y="731" type="curve" smooth="yes"/>
      <point x="175" y="851"/>
      <point x="263" y="949"/>
      <point x="471" y="949" type="curve" smooth="yes"/>
      <point x="786" y="949" type="line"/>
      <point x="734" y="897" type="line"/>
    </contour>
  </outline>
</glyph>
<glyph name="nnaprehalfdeva" format="1">
  <advance width="1066"/>
  <outline>
    <contour>
      <point x="682" y="1167" type="line"/>
      <point x="892" y="1167" type="line"/>
      <point x="892" y="721" type="line"/>
      <point x="892" y="484"/>
      <point x="788" y="336"/>
      <point x="532" y="336" type="curve" smooth="yes"/>
      <point x="279" y="336"/>
      <point x="138" y="490"/>
      <point x="138" y="733" type="curve" smooth="yes"/>
      <point x="138" y="1167" type="line"/>
      <point x="349" y="1167" type="line"/>
      <point x="349" y="678" type="line"/>
      <point x="349" y="557"/>
      <point x="409" y="494"/>
      <point x="506" y="494" type="curve" smooth="yes"/>
      <point x="623" y="494"/>
      <point x="682" y="565"/>
      <point x="682" y="716" type="curve" smooth="yes"/>
    </contour>
    <contour>
      <point x="-45" y="1136" type="line"/>
      <point x="-45" y="1283" type="line"/>
      <point x="1362" y="1283" type="line"/>
      <point x="1362" y="1136" type="line"/>
    </contour>
  </outline>
</glyph>
<glyph name="nuktasmalldeva" format="1">
  <advance width="98"/>
  <outline>
    <contour>
      <point x="-571" y="-128" type="curve" smooth="yes"/>
      <point x="-512" y="-128"/>
      <point x="-471" y="-142"/>
      <point x="-445" y="-166" type="curve" smooth="yes"/>
      <point x="-408" y="-199"/>
      <point x="-392" y="-231"/>
      <point x="-392" y="-264" type="curve" smooth="yes"/>
      <point x="-392" y="-296"/>
      <point x="-408" y="-328"/>
      <point x="-445" y="-361" type="curve"/>
      <point x="-471" y="-387"/>
      <point x="-512" y="-402"/>
      <point x="-571" y="-402" type="curve" smooth="yes"/>
      <point x="-627" y="-402"/>
      <point x="-671" y="-384"/>
      <point x="-699" y="-361" type="curve"/>
      <point x="-732" y="-328"/>
      <point x="-753" y="-296"/>
      <point x="-753" y="-264" type="curve" smooth="yes"/>
      <point x="-753" y="-231"/>
      <point x="-732" y="-199"/>
      <point x="-699" y="-166" type="curve"/>
      <point x="-671" y="-143"/>
      <point x="-627" y="-128"/>
    </contour>
  </outline>
</glyph>
<glyph name="nyaradeva" format="1">
  <advance width="1590"/>
  <outline>
    <contour>
      <point x="1295" y="304" type="line"/>
      <point x="652" y="-102" type="line"/>
      <point x="550" y="19" type="line"/>
      <point x="1205" y="433" type="line"/>
    </contour>
    <contour>
      <point x="836" y="509" type="curve"/>
      <point x="836" y="676" type="line"/>
      <point x="870" y="663"/>
      <point x="953" y="658"/>
      <point x="998" y="658" type="curve" smooth="yes"/>
      <point x="1052" y="658"/>
      <point x="1133" y="669"/>
      <point x="1205" y="703" type="curve"/>
      <point x="1205" y="511" type="line"/>
      <point x="1164" y="496"/>
      <point x="1094" y="487"/>
      <point x="1042" y="487" type="curve" smooth="yes"/>
      <point x="979" y="487"/>
      <point x="893" y="497"/>
    </contour>
    <contour>
      <point x="909" y="564" type="curve" smooth="yes"/>
      <point x="909" y="346"/>
      <point x="749" y="207"/>
      <point x="553" y="207" type="curve" smooth="yes"/>
      <point x="366" y="207"/>
      <point x="222" y="277"/>
      <point x="20" y="466" type="curve"/>
      <point x="87" y="612" type="line"/>
      <point x="270" y="438"/>
      <point x="385" y="382"/>
      <point x="505" y="382" type="curve" smooth="yes"/>
      <point x="640" y="382"/>
      <point x="729" y="466"/>
      <point x="728" y="582" type="curve" smooth="yes"/>
      <point x="728" y="683"/>
      <point x="638" y="764"/>
      <point x="516" y="764" type="curve" smooth="yes"/>
      <point x="437" y="764"/>
      <point x="373" y="739"/>
      <point x="306" y="692" type="curve"/>
      <point x="228" y="841" type="line"/>
      <point x="304" y="894"/>
      <point x="394" y="933"/>
      <point x="504" y="933" type="curve" smooth="yes"/>
      <point x="721" y="933"/>
      <point x="909" y="787"/>
    </contour>
    <contour>
      <point x="-29" y="1136" type="line"/>
      <point x="-29" y="1283" type="line"/>
      <point x="1617" y="1283" type="line"/>
      <point x="1617" y="1136" type="line"/>
    </contour>
    <contour>
      <point x="1169" y="1169" type="line"/>
      <point x="1380" y="1169" type="line"/>
      <point x="1380" y="0" type="line"/>
      <point x="1169" y="0" type="line"/>
    </contour>
  </outline>
</glyph>
<glyph name="paprehalfdeva" format="1">
  <advance width="683"/>
  <outline>
    <contour>
      <point x="972" y="1136" type="line"/>
      <point x="-36" y="1136" type="line"/>
      <point x="-36" y="1283" type="line"/>
      <point x="972" y="1283" type="line"/>
    </contour>
    <contour>
      <point x="358" y="1207" type="line"/>
      <point x="358" y="712" type="line"/>
      <point x="358" y="589"/>
      <point x="422" y="522"/>
      <point x="539" y="522" type="curve" smooth="yes"/>
      <point x="661" y="522"/>
      <point x="765" y="563"/>
      <point x="901" y="678" type="curve"/>
      <point x="1006" y="521" type="line"/>
      <point x="874" y="413"/>
      <point x="741" y="356"/>
      <point x="575" y="356" type="curve" smooth="yes"/>
      <point x="318" y="356"/>
      <point x="148" y="513"/>
      <point x="148" y="761" type="curve" smooth="yes"/>
      <point x="148" y="1207" type="line"/>
    </contour>
  </outline>
</glyph>
<glyph name="ranuktaudeva" format="1">
  <advance width="1320"/>
  <outline>
    <contour>
      <point x="0" y="0" type="line"/>
      <point x="1320" y="0" type="line"/>
      <point x="1320" y="20" type="line"/>
      <point x="0" y="20" type="line"/>
    </contour>
  </outline>
</glyph>
<glyph name="rephanusvaradeva" format="1">
  <advance width="-1"/>
  <outline>
    <contour>
      <point x="-133" y="1562" type="curve" smooth="yes"/>
      <point x="-68" y="1562"/>
      <point x="-38" y="1521"/>
      <point x="-38" y="1469" type="curve" smooth="yes"/>
      <point x="-38" y="1419"/>
      <point x="-68" y="1377"/>
      <point x="-133" y="1377" type="curve" smooth="yes"/>
      <point x="-196" y="1377"/>
      <point x="-228" y="1418"/>
      <point x="-228" y="1469" type="curve" smooth="yes"/>
      <point x="-228" y="1522"/>
      <point x="-196" y="1562"/>
    </contour>
    <contour>
      <point x="-408" y="1244" type="line"/>
      <point x="-463" y="1329"/>
      <point x="-508" y="1432"/>
      <point x="-508" y="1530" type="curve" smooth="yes"/>
      <point x="-508" y="1666"/>
      <point x="-397" y="1788"/>
      <point x="-198" y="1788" type="curve" smooth="yes"/>
      <point x="-135" y="1788"/>
      <point x="-91" y="1780"/>
      <point x="-43" y="1768" type="curve"/>
      <point x="-53" y="1650" type="line"/>
      <point x="-87" y="1657"/>
      <point x="-116" y="1660"/>
      <point x="-158" y="1660" type="curve" smooth="yes"/>
      <point x="-267" y="1660"/>
      <point x="-330" y="1587"/>
      <point x="-330" y="1492" type="curve" smooth="yes"/>
      <point x="-330" y="1414"/>
      <point x="-295" y="1336"/>
      <point x="-236" y="1244" type="curve"/>
    </contour>
    <contour>
      <point x="49" y="8" type="move" name="x29"/>
    </contour>
    <contour>
      <point x="-424" y="1282" type="move" name="_mark0"/>
    </contour>
  </outline>
</glyph>
<glyph name="rvocalicvowelsignlowdeva" format="1">
  <advance width="43"/>
  <outline>
    <contour>
      <point x="94" y="-755" type="line"/>
      <point x="-1" y="-799"/>
      <point x="-100" y="-824"/>
      <point x="-204" y="-824" type="curve" smooth="yes"/>
      <point x="-354" y="-824"/>
      <point x="-476" y="-758"/>
      <point x="-506" y="-635" type="curve" smooth="yes"/>
      <point x="-506" y="-538"/>
      <point x="-419" y="-489"/>
      <point x="-333" y="-480" type="curve"/>
      <point x="-368" y="-453"/>
      <point x="-383" y="-464"/>
      <point x="-383" y="-430" type="curve"/>
      <point x="-450" y="-355"/>
      <point x="-433" y="-329"/>
      <point x="-289" y="-397" type="curve" smooth="yes"/>
      <point x="-285" y="-496"/>
      <point x="-221" y="-557"/>
      <point x="-158" y="-590" type="curve" smooth="yes"/>
      <point x="-193" y="-594"/>
      <point x="-199" y="-608"/>
      <point x="-177" y="-631" type="curve"/>
      <point x="-177" y="-656"/>
      <point x="-164" y="-669"/>
      <point x="-138" y="-669" type="curve"/>
      <point x="-91" y="-664"/>
      <point x="-39" y="-644"/>
      <point x="34" y="-610" type="curve"/>
    </contour>
    <contour>
      <point x="-381" y="-13" type="move" name="_mark0"/>
    </contour>
  </outline>
</glyph>
<glyph name="sanuktaprehalfdeva" format="1">
  <advance width="932"/>
  <outline>
    <contour>
      <point x="0" y="0" type="line"/>
      <point x="932" y="0" type="line"/>
      <point x="932" y="20" type="line"/>
      <point x="0" y="20" type="line"/>
    </contour>
  </outline>
</glyph>
<glyph name="shadevaMAR" format="1">
  <advance width="1561"/>
  <outline>
    <contour>
      <point x="423" y="1169" type="line"/>
      <point x="634" y="1169" type="line"/>
      <point x="634" y="926" type="line"/>
      <point x="423" y="926" type="line"/>
    </contour>
    <contour>
      <point x="554" y="349" type="line"/>
      <point x="827" y="86" type="line"/>
      <point x="700" y="-26" type="line"/>
      <point x="402" y="265" type="line"/>
    </contour>
    <contour>
      <point x="324" y="210" type="curve" smooth="yes"/>
      <point x="223" y="210"/>
      <point x="183" y="263"/>
      <point x="183" y="332" type="curve" smooth="yes"/>
      <point x="183" y="408"/>
      <point x="245" y="504"/>
      <point x="334" y="504" type="curve" smooth="yes"/>
      <point x="401" y="504"/>
      <point x="449" y="465"/>
      <point x="517" y="390" type="curve"/>
      <point x="426" y="406" type="line"/>
      <point x="567" y="427"/>
      <point x="694" y="523"/>
      <point x="694" y="652" type="curve" smooth="yes"/>
      <point x="694" y="753"/>
      <point x="610" y="825"/>
      <point x="484" y="825" type="curve" smooth="yes"/>
      <point x="364" y="825"/>
      <point x="254" y="780"/>
      <point x="168" y="723" type="curve"/>
      <point x="108" y="881" type="line"/>
      <point x="204" y="932"/>
      <point x="324" y="977"/>
      <point x="489" y="977" type="curve" smooth="yes"/>
      <point x="744" y="977"/>
      <point x="889" y="847"/>
      <point x="889" y="647" type="curve" smooth="yes"/>
      <point x="889" y="399"/>
      <point x="584" y="210"/>
    </contour>
    <contour>
      <point x="1129" y="1169" type="line"/>
      <point x="1340" y="1169" type="line"/>
      <point x="1340" y="0" type="line"/>
      <point x="1129" y="0" type="line"/>
    </contour>
    <contour>
      <point x="1577" y="1136" type="line"/>
      <point x="-22" y="1136" type="line"/>
      <point x="-22" y="1283" type="line"/>
      <point x="1577" y="1283" type="line"/>
    </contour>
  </outline>
</glyph>
<glyph name="shaladevaMAR" format="1">
  <advance width="2189"/>
  <outline>
    <contour>
      <point x="108" y="443" type="line"/>
      <point x="14" y="586" type="line"/>
      <point x="314" y="751" type="line"/>
      <point x="501" y="854"/>
      <point x="582" y="934"/>
      <point x="582" y="1025" type="curve" smooth="yes"/>
      <point x="582" y="1102"/>
      <point x="525" y="1160"/>
      <point x="446" y="1160" type="curve" smooth="yes"/>
      <point x="356" y="1160"/>
      <point x="305" y="1101"/>
      <point x="305" y="1024" type="curve" smooth="yes"/>
      <point x="305" y="876"/>
      <point x="552" y="765"/>
      <point x="1027" y="726" type="curve"/>
      <point x="980" y="576" type="line"/>
      <point x="390" y="615"/>
      <point x="121" y="817"/>
      <point x="121" y="1052" type="curve" smooth="yes"/>
      <point x="121" y="1191"/>
      <point x="234" y="1314"/>
      <point x="425" y="1314" type="curve" smooth="yes"/>
      <point x="629" y="1314"/>
      <point x="752" y="1184"/>
      <point x="752" y="1018" type="curve" smooth="yes"/>
      <point x="752" y="861"/>
      <point x="642" y="738"/>
      <point x="405" y="608" type="curve" smooth="yes"/>
    </contour>
    <contour>
      <point x="1354" y="421" type="line"/>
      <point x="1410" y="662"/>
      <point x="1542" y="859"/>
      <point x="1794" y="861" type="curve" smooth="yes"/>
      <point x="2012" y="862"/>
      <point x="2150" y="698"/>
      <point x="2150" y="510" type="curve" smooth="yes"/>
      <point x="2150" y="365"/>
      <point x="2068" y="226"/>
      <point x="1943" y="111" type="curve"/>
      <point x="1781" y="198" type="line"/>
      <point x="1918" y="326"/>
      <point x="1967" y="425"/>
      <point x="1967" y="529" type="curve" smooth="yes"/>
      <point x="1967" y="618"/>
      <point x="1907" y="683"/>
      <point x="1807" y="683" type="curve" smooth="yes"/>
      <point x="1684" y="683"/>
      <point x="1581" y="565"/>
      <point x="1532" y="357" type="curve"/>
    </contour>
    <contour>
      <point x="1720" y="1169" type="line"/>
      <point x="1931" y="1169" type="line"/>
      <point x="1931" y="787" type="line"/>
      <point x="1720" y="787" type="line"/>
    </contour>
    <contour>
      <point x="846" y="1136" type="line"/>
      <point x="846" y="1283" type="line"/>
      <point x="2219" y="1283" type="line"/>
      <point x="2219" y="1136" type="line"/>
    </contour>
    <contour>
      <point x="1628" y="644" type="curve"/>
      <point x="1506" y="535" type="line"/>
      <point x="1415" y="664"/>
      <point x="1331" y="724"/>
      <point x="1211" y="724" type="curve" smooth="yes"/>
      <point x="1100" y="724"/>
      <point x="1026" y="638"/>
      <point x="1026" y="533" type="curve" smooth="yes"/>
      <point x="1026" y="418"/>
      <point x="1083" y="314"/>
      <point x="1258" y="164" type="curve"/>
      <point x="1113" y="81" type="line"/>
      <point x="918" y="247"/>
      <point x="827" y="417"/>
      <point x="827" y="578" type="curve" smooth="yes"/>
      <point x="827" y="759"/>
      <point x="953" y="903"/>
      <point x="1172" y="903" type="curve" smooth="yes"/>
      <point x="1363" y="903"/>
      <point x="1499" y="797"/>
    </contour>
    <contour>
      <point x="2657" y="-13" type="move" name="mark0"/>
    </contour>
  </outline>
</glyph>
<glyph name="shanadeva" format="1">
  <advance width="1421"/>
  <outline>
    <contour>
      <point x="1009" y="645" type="line"/>
      <point x="1092" y="502" type="line"/>
      <point x="553" y="150" type="line"/>
      <point x="565" y="219" type="line"/>
      <point x="694" y="18" type="line"/>
      <point x="706" y="-4"/>
      <point x="713" y="-20"/>
      <point x="713" y="-39" type="curve" smooth="yes"/>
      <point x="713" y="-72"/>
      <point x="691" y="-104"/>
      <point x="640" y="-104" type="curve" smooth="yes"/>
      <point x="540" y="-104"/>
      <point x="313" y="61"/>
      <point x="313" y="167" type="curve" smooth="yes"/>
      <point x="314" y="204"/>
      <point x="334" y="236"/>
      <point x="385" y="264" type="curve" smooth="yes"/>
    </contour>
    <contour>
      <point x="107" y="443" type="line"/>
      <point x="13" y="586" type="line"/>
      <point x="313" y="751" type="line"/>
      <point x="500" y="854"/>
      <point x="581" y="934"/>
      <point x="581" y="1025" type="curve" smooth="yes"/>
      <point x="581" y="1102"/>
      <point x="524" y="1160"/>
      <point x="445" y="1160" type="curve" smooth="yes"/>
      <point x="355" y="1160"/>
      <point x="303" y="1101"/>
      <point x="303" y="1024" type="curve" smooth="yes"/>
      <point x="303" y="886"/>
      <point x="515" y="761"/>
      <point x="1096" y="722" type="curve"/>
      <point x="1049" y="573" type="line"/>
      <point x="353" y="612"/>
      <point x="120" y="828"/>
      <point x="120" y="1052" type="curve" smooth="yes"/>
      <point x="120" y="1191"/>
      <point x="233" y="1314"/>
      <point x="424" y="1314" type="curve" smooth="yes"/>
      <point x="627" y="1314"/>
      <point x="751" y="1184"/>
      <point x="751" y="1018" type="curve" smooth="yes"/>
      <point x="751" y="861"/>
      <point x="641" y="738"/>
      <point x="403" y="608" type="curve" smooth="yes"/>
    </contour>
    <contour>
      <point x="984" y="1169" type="line"/>
      <point x="1195" y="1169" type="line"/>
      <point x="1195" y="0" type="line"/>
      <point x="984" y="0" type="line"/>
    </contour>
    <contour>
      <point x="1437" y="1136" type="line"/>
      <point x="835" y="1136" type="line"/>
      <point x="835" y="1283" type="line"/>
      <point x="1437" y="1283" type="line"/>
    </contour>
  </outline>
</glyph>
<glyph name="shaprehalfdeva" format="1">
  <advance width="957"/>
  <outline>
    <contour>
      <point x="493" y="444" type="line"/>
      <point x="832" y="98" type="line"/>
      <point x="705" y="-16" type="line"/>
      <point x="342" y="360" type="line"/>
    </contour>
    <contour>
      <point x="260" y="282" type="curve" smooth="yes"/>
      <point x="168" y="282"/>
      <point x="131" y="345"/>
      <point x="131" y="421" type="curve" smooth="yes"/>
      <point x="131" y="501"/>
      <point x="189" y="598"/>
      <point x="274" y="598" type="curve" smooth="yes"/>
      <point x="335" y="598"/>
      <point x="386" y="560"/>
      <point x="456" y="484" type="curve"/>
      <point x="364" y="487" type="line"/>
      <point x="544" y="553"/>
      <point x="699" y="722"/>
      <point x="699" y="930" type="curve" smooth="yes"/>
      <point x="699" y="1052"/>
      <point x="597" y="1159"/>
      <point x="476" y="1159" type="curve" smooth="yes"/>
      <point x="396" y="1159"/>
      <point x="347" y="1109"/>
      <point x="348" y="1037" type="curve" smooth="yes"/>
      <point x="349" y="947"/>
      <point x="450" y="846"/>
      <point x="749" y="832" type="curve"/>
      <point x="698" y="697" type="line"/>
      <point x="315" y="726"/>
      <point x="159" y="892"/>
      <point x="159" y="1067" type="curve" smooth="yes"/>
      <point x="159" y="1197"/>
      <point x="255" y="1314"/>
      <point x="451" y="1314" type="curve" smooth="yes"/>
      <point x="704" y="1314"/>
      <point x="873" y="1146"/>
      <point x="873" y="901" type="curve" smooth="yes"/>
      <point x="873" y="557"/>
      <point x="475" y="282"/>
    </contour>
  </outline>
</glyph>
<glyph name="sharaprehalfdeva" format="1">
  <advance width="984"/>
  <outline>
    <contour>
      <point x="1283" y="1136" type="line"/>
      <point x="835" y="1136" type="line"/>
      <point x="835" y="1283" type="line"/>
      <point x="1283" y="1283" type="line"/>
    </contour>
    <contour>
      <point x="1069" y="573" type="line"/>
      <point x="347" y="610"/>
      <point x="120" y="828"/>
      <point x="120" y="1052" type="curve" smooth="yes"/>
      <point x="120" y="1191"/>
      <point x="233" y="1314"/>
      <point x="424" y="1314" type="curve" smooth="yes"/>
      <point x="627" y="1314"/>
      <point x="751" y="1184"/>
      <point x="751" y="1018" type="curve" smooth="yes"/>
      <point x="751" y="861"/>
      <point x="641" y="738"/>
      <point x="403" y="608" type="curve" smooth="yes"/>
      <point x="107" y="443" type="line"/>
      <point x="13" y="586" type="line"/>
      <point x="313" y="751" type="line"/>
      <point x="500" y="854"/>
      <point x="581" y="934"/>
      <point x="581" y="1025" type="curve" smooth="yes"/>
      <point x="581" y="1102"/>
      <point x="524" y="1160"/>
      <point x="445" y="1160" type="curve" smooth="yes"/>
      <point x="355" y="1160"/>
      <point x="303" y="1101"/>
      <point x="303" y="1024" type="curve" smooth="yes"/>
      <point x="303" y="886"/>
      <point x="517" y="761"/>
      <point x="1065" y="730" type="curve"/>
      <point x="1117" y="544" type="line"/>
      <point x="420" y="60" type="line"/>
      <point x="312" y="198" type="line"/>
      <point x="1036" y="684" type="line"/>
    </contour>
  </outline>
</glyph>
<glyph name="shavadeva" format="1">
  <advance width="1421"/>
  <outline>
    <contour>
      <point x="107" y="443" type="line"/>
      <point x="13" y="586" type="line"/>
      <point x="313" y="751" type="line"/>
      <point x="500" y="854"/>
      <point x="581" y="934"/>
      <point x="581" y="1025" type="curve" smooth="yes"/>
      <point x="581" y="1102"/>
      <point x="524" y="1160"/>
      <point x="445" y="1160" type="curve" smooth="yes"/>
      <point x="355" y="1160"/>
      <point x="303" y="1101"/>
      <point x="303" y="1024" type="curve" smooth="yes"/>
      <point x="303" y="886"/>
      <point x="515" y="761"/>
      <point x="1096" y="722" type="curve"/>
      <point x="1049" y="573" type="line"/>
      <point x="353" y="612"/>
      <point x="120" y="828"/>
      <point x="120" y="1052" type="curve" smooth="yes"/>
      <point x="120" y="1191"/>
      <point x="233" y="1314"/>
      <point x="424" y="1314" type="curve" smooth="yes"/>
      <point x="627" y="1314"/>
      <point x="751" y="1184"/>
      <point x="751" y="1018" type="curve" smooth="yes"/>
      <point x="751" y="861"/>
      <point x="641" y="738"/>
      <point x="403" y="608" type="curve" smooth="yes"/>
    </contour>
    <contour>
      <point x="984" y="1169" type="line"/>
      <point x="1195" y="1169" type="line"/>
      <point x="1195" y="-247" type="line"/>
      <point x="984" y="-247" type="line"/>
    </contour>
    <contour>
      <point x="1437" y="1136" type="line"/>
      <point x="835" y="1136" type="line"/>
      <point x="835" y="1283" type="line"/>
      <point x="1437" y="1283" type="line"/>
    </contour>
    <contour>
      <point x="1008" y="146" type="curve"/>
      <point x="1008" y="-49" type="line"/>
      <point x="939" y="-101"/>
      <point x="847" y="-124"/>
      <point x="761" y="-124" type="curve" smooth="yes"/>
      <point x="534" y="-124"/>
      <point x="378" y="25"/>
      <point x="378" y="200" type="curve" smooth="yes"/>
      <point x="378" y="339"/>
      <point x="504" y="457"/>
      <point x="698" y="457" type="curve" smooth="yes"/>
      <point x="843" y="457"/>
      <point x="936" y="431"/>
      <point x="1047" y="377" type="curve"/>
      <point x="1045" y="238" type="line"/>
      <point x="931" y="300"/>
      <point x="852" y="318"/>
      <point x="755" y="318" type="curve" smooth="yes"/>
      <point x="630" y="318"/>
      <point x="561" y="247"/>
      <point x="561" y="167" type="curve" smooth="yes"/>
      <point x="561" y="78"/>
      <point x="642" y="20"/>
      <point x="731" y="20" type="curve" smooth="yes"/>
      <point x="831" y="20"/>
      <point x="921" y="53"/>
    </contour>
  </outline>
</glyph>
<glyph name="ssattadeva" format="1">
  <advance width="1203"/>
  <outline>
    <contour>
      <point x="843" y="586" type="line"/>
      <point x="750" y="518" type="line"/>
      <point x="254" y="1121" type="line"/>
      <point x="347" y="1189" type="line"/>
    </contour>
    <contour>
      <point x="1219" y="1136" type="line"/>
      <point x="-36" y="1136" type="line"/>
      <point x="-36" y="1283" type="line"/>
      <point x="1219" y="1283" type="line"/>
    </contour>
    <contour>
      <point x="333" y="127" type="curve" smooth="yes"/>
      <point x="333" y="4"/>
      <point x="439" y="-78"/>
      <point x="603" y="-78" type="curve" smooth="yes"/>
      <point x="707" y="-78"/>
      <point x="781" y="-61"/>
      <point x="918" y="-6" type="curve"/>
      <point x="963" y="-177" type="line"/>
      <point x="817" y="-229"/>
      <point x="748" y="-241"/>
      <point x="631" y="-241" type="curve" smooth="yes"/>
      <point x="306" y="-241"/>
      <point x="130" y="-74"/>
      <point x="130" y="156" type="curve" smooth="yes"/>
      <point x="130" y="351"/>
      <point x="281" y="507"/>
      <point x="546" y="507" type="curve" smooth="yes"/>
      <point x="574" y="507" type="line"/>
      <point x="585" y="356" type="line"/>
      <point x="577" y="356" type="line"/>
      <point x="426" y="356"/>
      <point x="333" y="259"/>
    </contour>
    <contour>
      <point x="771" y="735" type="curve" smooth="yes"/>
      <point x="771" y="1169" type="line"/>
      <point x="981" y="1169" type="line"/>
      <point x="981" y="697" type="line"/>
      <point x="981" y="525"/>
      <point x="863" y="356"/>
      <point x="575" y="356" type="curve" smooth="yes"/>
      <point x="319" y="356"/>
      <point x="148" y="513"/>
      <point x="148" y="761" type="curve" smooth="yes"/>
      <point x="148" y="1207" type="line"/>
      <point x="358" y="1207" type="line"/>
      <point x="358" y="712" type="line"/>
      <point x="358" y="589"/>
      <point x="422" y="522"/>
      <point x="539" y="522" type="curve" smooth="yes"/>
      <point x="700" y="522"/>
      <point x="771" y="596"/>
    </contour>
    <contour>
      <point x="718" y="-13" type="move" name="mark0"/>
    </contour>
  </outline>
</glyph>
<glyph name="taprehalfdeva" format="1">
  <advance width="656"/>
  <outline>
    <contour>
      <point x="893" y="897" type="line"/>
      <point x="893" y="718" type="line"/>
      <point x="545" y="718" type="line"/>
      <point x="386" y="718"/>
      <point x="296" y="623"/>
      <point x="296" y="489" type="curve" smooth="yes"/>
      <point x="296" y="371"/>
      <point x="345" y="238"/>
      <point x="487" y="23" type="curve"/>
      <point x="319" y="-26" type="line"/>
      <point x="175" y="185"/>
      <point x="99" y="373"/>
      <point x="99" y="542" type="curve" smooth="yes"/>
      <point x="99" y="745"/>
      <point x="232" y="897"/>
      <point x="497" y="897" type="curve" smooth="yes"/>
    </contour>
    <contour>
      <point x="-47" y="1136" type="line"/>
      <point x="-47" y="1283" type="line"/>
      <point x="912" y="1283" type="line"/>
      <point x="912" y="1136" type="line"/>
    </contour>
  </outline>
</glyph>
<glyph name="taradeva" format="1">
  <advance width="1180"/>
  <outline>
    <contour>
      <point x="866" y="453" type="line"/>
      <point x="270" y="150" type="line"/>
      <point x="171" y="301" type="line"/>
      <point x="772" y="596" type="line"/>
    </contour>
    <contour>
      <point x="-50" y="1136" type="line"/>
      <point x="-50" y="1283" type="line"/>
      <point x="1189" y="1283" type="line"/>
      <point x="1189" y="1136" type="line"/>
    </contour>
    <contour>
      <point x="76" y="819" type="line"/>
      <point x="160" y="854"/>
      <point x="259" y="880"/>
      <point x="352" y="880" type="curve" smooth="yes"/>
      <point x="466" y="880"/>
      <point x="591" y="827"/>
      <point x="788" y="699" type="curve"/>
      <point x="788" y="507" type="line"/>
      <point x="583" y="647"/>
      <point x="467" y="704"/>
      <point x="376" y="704" type="curve" smooth="yes"/>
      <point x="300" y="704"/>
      <point x="204" y="678"/>
      <point x="130" y="644" type="curve"/>
    </contour>
    <contour>
      <point x="742" y="1169" type="line"/>
      <point x="953" y="1169" type="line"/>
      <point x="953" y="0" type="line"/>
      <point x="742" y="0" type="line"/>
    </contour>
  </outline>
</glyph>
<glyph name="ttattadeva" format="1">
  <advance width="1057"/>
  <outline>
    <contour>
      <point x="585" y="275" type="line"/>
      <point x="772" y="275" type="line"/>
      <point x="772" y="-62" type="line"/>
      <point x="584" y="-62" type="line"/>
      <point x="393" y="-62"/>
      <point x="318" y="-146"/>
      <point x="318" y="-261" type="curve" smooth="yes"/>
      <point x="318" y="-375"/>
      <point x="437" y="-458"/>
      <point x="573" y="-458" type="curve" smooth="yes"/>
      <point x="677" y="-458"/>
      <point x="747" y="-444"/>
      <point x="868" y="-400" type="curve"/>
      <point x="909" y="-552" type="line"/>
      <point x="781" y="-592"/>
      <point x="714" y="-603"/>
      <point x="597" y="-603" type="curve" smooth="yes"/>
      <point x="312" y="-603"/>
      <point x="129" y="-438"/>
      <point x="129" y="-236" type="curve" smooth="yes"/>
      <point x="129" y="-66"/>
      <point x="253" y="72"/>
      <point x="517" y="72" type="curve" smooth="yes"/>
      <point x="621" y="72" type="line"/>
      <point x="585" y="41" type="line"/>
    </contour>
    <contour>
      <point x="642" y="1184" type="line"/>
      <point x="837" y="1184" type="line"/>
      <point x="837" y="806" type="line"/>
      <point x="590" y="806" type="line"/>
      <point x="393" y="806"/>
      <point x="310" y="717"/>
      <point x="310" y="595" type="curve" smooth="yes"/>
      <point x="310" y="474"/>
      <point x="433" y="385"/>
      <point x="577" y="385" type="curve" smooth="yes"/>
      <point x="687" y="385"/>
      <point x="769" y="401"/>
      <point x="894" y="447" type="curve"/>
      <point x="938" y="288" type="line"/>
      <point x="803" y="246"/>
      <point x="728" y="233"/>
      <point x="604" y="233" type="curve" smooth="yes"/>
      <point x="305" y="233"/>
      <point x="112" y="410"/>
      <point x="112" y="621" type="curve" smooth="yes"/>
      <point x="112" y="800"/>
      <point x="245" y="944"/>
      <point x="521" y="944" type="curve" smooth="yes"/>
      <point x="679" y="944" type="line"/>
      <point x="642" y="913" type="line"/>
    </contour>
    <contour>
      <point x="1093" y="1136" type="line"/>
      <point x="-34" y="1136" type="line"/>
      <point x="-34" y="1283" type="line"/>
      <point x="1093" y="1283" type="line"/>
    </contour>
    <contour>
      <point x="565" y="1261" type="move" name="mark0"/>
    </contour>
  </outline>
</glyph>
<glyph name="ttatthadeva" format="1">
  <advance width="1057"/>
  <outline>
    <contour>
      <point x="845" y="-257" type="curve" smooth="yes"/>
      <point x="845" y="-174"/>
      <point x="789" y="-100"/>
      <point x="708" y="-65" type="curve"/>
      <point x="574" y="-65" type="line"/>
      <point x="374" y="-65"/>
      <point x="293" y="-150"/>
      <point x="293" y="-267" type="curve" smooth="yes"/>
      <point x="293" y="-381"/>
      <point x="393" y="-472"/>
      <point x="566" y="-472" type="curve" smooth="yes"/>
      <point x="739" y="-472"/>
      <point x="845" y="-381"/>
    </contour>
    <contour>
      <point x="594" y="277" type="line"/>
      <point x="782" y="277" type="line"/>
      <point x="782" y="23" type="line"/>
      <point x="749" y="66" type="line"/>
      <point x="914" y="8"/>
      <point x="1024" y="-121"/>
      <point x="1024" y="-279" type="curve" smooth="yes"/>
      <point x="1024" y="-460"/>
      <point x="870" y="-611"/>
      <point x="604" y="-611" type="curve" smooth="yes"/>
      <point x="271" y="-611"/>
      <point x="108" y="-432"/>
      <point x="108" y="-239" type="curve" smooth="yes"/>
      <point x="108" y="-60"/>
      <point x="253" y="73"/>
      <point x="490" y="73" type="curve" smooth="yes"/>
      <point x="632" y="73" type="line"/>
      <point x="594" y="43" type="line"/>
    </contour>
    <contour>
      <point x="1093" y="1136" type="line"/>
      <point x="-34" y="1136" type="line"/>
      <point x="-34" y="1283" type="line"/>
      <point x="1093" y="1283" type="line"/>
    </contour>
    <contour>
      <point x="642" y="1184" type="line"/>
      <point x="837" y="1184" type="line"/>
      <point x="837" y="806" type="line"/>
      <point x="590" y="806" type="line"/>
      <point x="393" y="806"/>
      <point x="310" y="717"/>
      <point x="310" y="595" type="curve" smooth="yes"/>
      <point x="310" y="474"/>
      <point x="433" y="385"/>
      <point x="577" y="385" type="curve" smooth="yes"/>
      <point x="687" y="385"/>
      <point x="769" y="401"/>
      <point x="894" y="447" type="curve"/>
      <point x="938" y="288" type="line"/>
      <point x="803" y="246"/>
      <point x="728" y="233"/>
      <point x="604" y="233" type="curve" smooth="yes"/>
      <point x="305" y="233"/>
      <point x="112" y="410"/>
      <point x="112" y="621" type="curve" smooth="yes"/>
      <point x="112" y="800"/>
      <point x="245" y="944"/>
      <point x="521" y="944" type="curve" smooth="yes"/>
      <point x="679" y="944" type="line"/>
      <point x="642" y="913" type="line"/>
    </contour>
    <contour>
      <point x="637" y="1261" type="move" name="mark0"/>
    </contour>
  </outline>
</glyph>
<glyph name="uunuktadeva" format="1">
  <advance width="1469"/>
  <outline>
    <component base="nuktadeva" xOffset="1388" yOffset="43"/>
    <component base="uudeva"/>
    <contour>
      <point x="827" y="1274" type="move" name="mark0"/>
    </contour>
  </outline>
</glyph>
<glyph name="vaprehalfdeva" format="1">
  <advance width="682"/>
  <outline>
    <contour>
      <point x="928" y="586" type="curve" smooth="yes"/>
      <point x="928" y="414"/>
      <point x="772" y="237"/>
      <point x="520" y="237" type="curve" smooth="yes"/>
      <point x="271" y="237"/>
      <point x="96" y="428"/>
      <point x="96" y="634" type="curve" smooth="yes"/>
      <point x="96" y="802"/>
      <point x="226" y="942"/>
      <point x="471" y="942" type="curve" smooth="yes"/>
      <point x="769" y="942"/>
      <point x="928" y="755"/>
    </contour>
    <contour>
      <point x="757" y="610" type="curve" smooth="yes"/>
      <point x="757" y="696"/>
      <point x="661" y="783"/>
      <point x="511" y="783" type="curve" smooth="yes"/>
      <point x="370" y="783"/>
      <point x="289" y="700"/>
      <point x="289" y="593" type="curve" smooth="yes"/>
      <point x="289" y="490"/>
      <point x="374" y="404"/>
      <point x="496" y="404" type="curve" smooth="yes"/>
      <point x="653" y="404"/>
      <point x="757" y="504"/>
    </contour>
    <contour>
      <point x="893" y="1136" type="line"/>
      <point x="-20" y="1136" type="line"/>
      <point x="-20" y="1283" type="line"/>
      <point x="893" y="1283" type="line"/>
    </contour>
  </outline>
</glyph>
